<?xml version="1.0" encoding="UTF-8"?>
<svg id="Layer_1" xmlns="http://www.w3.org/2000/svg" version="1.1" viewBox="0 0 48.1 51.5">
  <!-- Generator: Adobe Illustrator 29.3.1, SVG Export Plug-In . SVG Version: 2.1.0 Build 151)  -->
  <defs>
    <style>
      .st0 {
        fill: #09d882;
      }
    </style>
  </defs>
  <path class="st0" d="M39.3,5.2h-3.7c1.4,6.5,2.1,13.4,2.1,20.5s-.8,14-2.1,20.5h3.7c1.3-6.5,2.1-13.4,2.1-20.5s-.7-14-2.1-20.5Z"/>
  <path class="st0" d="M30,5.2h-3.9c2.8,6.2,4.4,13.2,4.4,20.5s-1.6,14.3-4.4,20.5h3.9c2.6-6.3,4.1-13.2,4.1-20.5s-1.5-14.3-4.1-20.5Z"/>
  <path class="st0" d="M20.1,5.2h-4.6c4.9,5.6,7.9,12.7,7.9,20.5s-3,14.9-7.9,20.5h4.6c4.3-5.8,6.9-12.9,6.9-20.5s-2.6-14.7-6.9-20.5Z"/>
  <path class="st0" d="M19,25.8c0-8.3-4.8-15.6-12.3-20.2v4.3c5.3,3.9,8.7,9.6,8.7,15.9s-3.4,12-8.7,15.9v4.3c7.4-4.6,12.3-11.9,12.3-20.2Z"/>
</svg>