<svg width="1920" height="799" viewBox="0 0 1920 799" fill="none" xmlns="http://www.w3.org/2000/svg">
    <path d="M79.25 799V0M1039.25 799V0M559.25 799V559.25M559.25 0V479.25M1519.25 799V0M320.25 799V239.25M320.25 0V159.25M1279.25 799V559.25M1279.25 0V479.25M799.25 799V0M1759.25 799V319.25M1759.25 0V239.25M159.25 799V0M1119.25 799V0M639.25 799V0M1599.25 799V0M399.25 799V239.25M399.25 0V159.25M1359.25 799V559.25M1359.25 0V479.25M879.25 799V0M1839.25 0V799V639H1920H0M239.25 799V0M1199.25 799V0M719.25 799V0M1679.25 799V319.25M1679.25 0V239.25M479.25 799V559.25M479.25 0V479.25M1439.25 799V0M959.25 799V0M0 239.25H320.25M1920 239.25H1759.25M0 159.25H320.25M1920 159.25H399.25M0 399.25H1920M0 559.25H479.25M1920 559.25H1359.25M0 79.25H1920M0 319.25H1679.25M1920 319.25H1759.25M0 479.25H479.25M1920 479.25H1359.25M1920 719H0M320.25 159.25V239.25M320.25 159.25H399.25M320.25 239.25H399.25M399.25 239.25V159.25M399.25 239.25H1679.25M1279.25 479.25V559.25M1279.25 479.25H1359.25M1279.25 479.25H559.25M1279.25 559.25H1359.25M1279.25 559.25H559.25M1359.25 559.25V479.25M1759.25 319.25V239.25M1759.25 319.25H1679.25M1759.25 239.25H1679.25M1679.25 239.25V319.25M559.25 559.25V479.25M559.25 559.25H479.25M559.25 479.25H479.25M479.25 479.25V559.25" stroke="url(#paint0_linear_25379_27875)" stroke-opacity="0.15"/>
    <defs>
        <linearGradient id="paint0_linear_25379_27875" x1="1920" y1="319.5" x2="0" y2="319.5" gradientUnits="userSpaceOnUse">
            <stop stop-color="white" stop-opacity="0.5"/>
            <stop offset="0.4" stop-color="white" stop-opacity="0.04"/>
            <stop offset="0.5" stop-color="white" stop-opacity="0.1"/>
            <stop offset="0.6" stop-color="white" stop-opacity="0.04"/>
            <stop offset="1" stop-color="white" stop-opacity="0.5"/>
        </linearGradient>
    </defs>
</svg>
