<svg width="26" height="26" viewBox="0 0 26 26" fill="none" xmlns="http://www.w3.org/2000/svg">
<g clip-path="url(#clip0_14802_15484)">
<path d="M4.66646 24.385C2.36542 24.385 0.5 22.5196 0.5 20.2186C0.5 17.9175 2.36542 16.0521 4.66646 16.0521C6.9675 16.0521 8.83292 17.9175 8.83292 20.2186C8.83292 22.5196 6.9675 24.385 4.66646 24.385Z" fill="white"/>
<path d="M4.66646 24.385C2.36542 24.385 0.5 22.5196 0.5 20.2186C0.5 17.9175 2.36542 16.0521 4.66646 16.0521C6.9675 16.0521 8.83292 17.9175 8.83292 20.2186C8.83292 22.5196 6.9675 24.385 4.66646 24.385Z" fill="#00AB46"/>
<path d="M8.32677 5.54617L2.12969 16.2801C2.88594 15.7922 3.76667 15.5323 4.66667 15.5315C7.33302 15.5237 9.48417 17.7799 9.34802 20.4427L12.6989 14.6383L8.93906 8.12784C8.47042 7.31607 8.28052 6.42013 8.32677 5.54617Z" fill="white"/>
<path d="M8.32677 5.54617L2.12969 16.2801C2.88594 15.7922 3.76667 15.5323 4.66667 15.5315C7.33302 15.5237 9.48417 17.7799 9.34802 20.4427L12.6989 14.6383L8.93906 8.12784C8.47042 7.31607 8.28052 6.42013 8.32677 5.54617Z" fill="#FFB900"/>
<path d="M24.9418 18.1346L16.6075 3.70055C15.4569 1.70753 12.9084 1.0243 10.9154 2.17492C8.9224 3.32555 8.23906 5.87399 9.38969 7.86701L17.724 22.3011C18.8746 24.2941 21.423 24.976 23.416 23.8267C25.4092 22.6761 26.091 20.1276 24.9418 18.1346Z" fill="white"/>
<path d="M24.9418 18.1346L16.6075 3.70055C15.4569 1.70753 12.9084 1.0243 10.9154 2.17492C8.9224 3.32555 8.23906 5.87399 9.38969 7.86701L17.724 22.3011C18.8746 24.2941 21.423 24.976 23.416 23.8267C25.4092 22.6761 26.091 20.1276 24.9418 18.1346Z" fill="#008DDF"/>
</g>
<defs>
<clipPath id="clip0_14802_15484">
<rect width="25" height="25" fill="white" transform="translate(0.5 0.500122)"/>
</clipPath>
</defs>
</svg>
