<svg width="1920" height="639" viewBox="0 0 1920 639" fill="none" xmlns="http://www.w3.org/2000/svg">
<path d="M79.25 639V0M1039.25 639V0M559.25 639V0M1519.25 639V0M320.25 639V0M1279.25 639V0M799.25 639V0M1759.25 639V0M159.25 639V0M1119.25 639V0M639.25 639V0M1599.25 639V0M399.25 639V0M1359.25 639V0M879.25 639V0M1839.25 639V0M239.25 639V0M1199.25 639V0M719.25 639V0M1679.25 639V0M479.25 639V0M1439.25 639V0M959.25 639V0M0 239.25H1920M0 159.25H1920M0 399.25H1920M0 559.25H1920M0 79.25H1920M0 319.25H1920M0 479.25H1920" stroke="url(#paint0_linear_16810_19996)" stroke-opacity="0.1"/>
<defs>
<linearGradient id="paint0_linear_16810_19996" x1="1920" y1="319.5" x2="0" y2="319.5" gradientUnits="userSpaceOnUse">
<stop stop-opacity="0.5"/>
<stop offset="0.4" stop-opacity="0.04"/>
<stop offset="0.5" stop-opacity="0.1"/>
<stop offset="0.6" stop-opacity="0.04"/>
<stop offset="1" stop-opacity="0.5"/>
</linearGradient>
</defs>
</svg>
