<svg width="62" height="62" viewBox="0 0 62 62" fill="none" xmlns="http://www.w3.org/2000/svg">
<path d="M4.10938 27.3515C4.10938 19.2133 4.10938 15.1442 5.69319 12.0358C7.08635 9.30153 9.30934 7.07853 12.0436 5.68537C15.152 4.10156 19.2211 4.10156 27.3594 4.10156H34.6896C42.8279 4.10156 46.897 4.10156 50.0054 5.68537C52.7396 7.07853 54.9626 9.30153 56.3558 12.0358C57.9396 15.1442 57.9396 19.2133 57.9396 27.3516V34.6818C57.9396 42.82 57.9396 46.8892 56.3558 49.9976C54.9626 52.7318 52.7396 54.9548 50.0054 56.348C46.897 57.9318 42.8278 57.9318 34.6896 57.9318H27.3594C19.2211 57.9318 15.152 57.9318 12.0436 56.348C9.30934 54.9548 7.08635 52.7318 5.69319 49.9976C4.10938 46.8892 4.10938 42.82 4.10938 34.6818V27.3515Z" fill="url(#paint0_radial_26782_50239)"/>
<path d="M4.10938 27.3515C4.10938 19.2133 4.10938 15.1442 5.69319 12.0358C7.08635 9.30153 9.30934 7.07853 12.0436 5.68537C15.152 4.10156 19.2211 4.10156 27.3594 4.10156H34.6896C42.8279 4.10156 46.897 4.10156 50.0054 5.68537C52.7396 7.07853 54.9626 9.30153 56.3558 12.0358C57.9396 15.1442 57.9396 19.2133 57.9396 27.3516V34.6818C57.9396 42.82 57.9396 46.8892 56.3558 49.9976C54.9626 52.7318 52.7396 54.9548 50.0054 56.348C46.897 57.9318 42.8278 57.9318 34.6896 57.9318H27.3594C19.2211 57.9318 15.152 57.9318 12.0436 56.348C9.30934 54.9548 7.08635 52.7318 5.69319 49.9976C4.10938 46.8892 4.10938 42.82 4.10938 34.6818V27.3515Z" fill="url(#paint1_radial_26782_50239)"/>
<path fill-rule="evenodd" clip-rule="evenodd" d="M31.3603 49.7624C23.7149 49.7389 17.5234 43.5241 17.5234 35.9021C17.5234 32.2835 19.3244 27.385 21.6042 24.6216C22.2829 23.7927 23.628 24.064 23.926 25.0672C24.1476 25.8132 24.7047 27.063 25.4739 27.9284C25.4739 22.1115 27.9328 16.7763 32.8379 13.3411C33.7545 12.6992 34.9479 13.4071 34.972 14.4199C34.972 18.3228 37.2778 22.7783 40.2487 25.2782C43.4616 27.9284 45.2909 31.8214 45.2675 35.9725C45.2206 43.5475 38.9823 49.7624 31.3603 49.7624ZM31.7612 44.4847C30.3541 44.4847 29.0407 43.9454 28.0323 42.9604C27.0004 41.952 26.4375 40.6152 26.414 39.1612C26.3671 38.3403 26.5313 37.4961 26.9301 36.7456C27.3991 35.4791 29.0408 31.7268 32.84 30.2962C33.2856 30.132 33.7547 30.2024 34.1299 30.4838C34.5052 30.7652 34.6928 31.2108 34.6459 31.6798C34.6459 31.6798 34.5522 32.8055 34.8805 34.025C35.0212 34.5644 35.3026 35.0569 35.7248 35.526C36.6628 36.5579 37.1553 37.8712 37.1319 39.2549C37.0616 42.1395 34.7632 44.4378 31.8785 44.4847C31.8551 44.4847 31.8081 44.4847 31.7612 44.4847Z" fill="white"/>
<defs>
<radialGradient id="paint0_radial_26782_50239" cx="0" cy="0" r="1" gradientUnits="userSpaceOnUse" gradientTransform="translate(18.4081 62.0778) rotate(-90) scale(53.3497 49.6194)">
<stop stop-color="#FFDD55"/>
<stop offset="0.1" stop-color="#FFDD55"/>
<stop offset="0.5" stop-color="#FF543E"/>
<stop offset="1" stop-color="#C837AB"/>
</radialGradient>
<radialGradient id="paint1_radial_26782_50239" cx="0" cy="0" r="1" gradientTransform="matrix(4.68073 23.3837 -96.3864 19.3046 -4.90747 7.9794)" gradientUnits="userSpaceOnUse">
<stop stop-color="#3771C8"/>
<stop offset="0.128" stop-color="#3771C8"/>
<stop offset="1" stop-color="#6600FF" stop-opacity="0"/>
</radialGradient>
</defs>
</svg>
