<svg width="72" height="72" viewBox="0 0 72 72" fill="none" xmlns="http://www.w3.org/2000/svg">
<rect width="72" height="72" rx="15.4286" fill="url(#paint0_radial_237_17030)"/>
<rect width="72" height="72" rx="15.4286" fill="url(#paint1_radial_237_17030)"/>
<rect width="72" height="72" rx="15.4286" fill="url(#paint2_radial_237_17030)"/>
<path d="M54.0004 21.8576C54.0004 23.9878 52.2735 25.7147 50.1433 25.7147C48.013 25.7147 46.2861 23.9878 46.2861 21.8576C46.2861 19.7273 48.013 18.0004 50.1433 18.0004C52.2735 18.0004 54.0004 19.7273 54.0004 21.8576Z" fill="white"/>
<path fill-rule="evenodd" clip-rule="evenodd" d="M36.0004 48.8576C43.1012 48.8576 48.8576 43.1012 48.8576 36.0004C48.8576 28.8996 43.1012 23.1433 36.0004 23.1433C28.8996 23.1433 23.1433 28.8996 23.1433 36.0004C23.1433 43.1012 28.8996 48.8576 36.0004 48.8576ZM36.0004 43.7147C40.2609 43.7147 43.7147 40.2609 43.7147 36.0004C43.7147 31.7399 40.2609 28.2861 36.0004 28.2861C31.7399 28.2861 28.2861 31.7399 28.2861 36.0004C28.2861 40.2609 31.7399 43.7147 36.0004 43.7147Z" fill="white"/>
<path fill-rule="evenodd" clip-rule="evenodd" d="M10.2861 34.9718C10.2861 26.331 10.2861 22.0106 11.9677 18.7103C13.4469 15.8072 15.8072 13.4469 18.7103 11.9677C22.0106 10.2861 26.331 10.2861 34.9718 10.2861H37.029C45.6698 10.2861 49.9902 10.2861 53.2906 11.9677C56.1936 13.4469 58.5539 15.8072 60.0331 18.7103C61.7147 22.0106 61.7147 26.331 61.7147 34.9718V37.029C61.7147 45.6698 61.7147 49.9902 60.0331 53.2906C58.5539 56.1936 56.1936 58.5539 53.2906 60.0331C49.9902 61.7147 45.6698 61.7147 37.029 61.7147H34.9718C26.331 61.7147 22.0106 61.7147 18.7103 60.0331C15.8072 58.5539 13.4469 56.1936 11.9677 53.2906C10.2861 49.9902 10.2861 45.6698 10.2861 37.029V34.9718ZM34.9718 15.429H37.029C41.4343 15.429 44.4289 15.433 46.7437 15.6221C48.9984 15.8063 50.1514 16.1402 50.9557 16.5501C52.8911 17.5362 54.4646 19.1097 55.4508 21.0451C55.8606 21.8494 56.1945 23.0025 56.3787 25.2572C56.5678 27.5719 56.5718 30.5666 56.5718 34.9718V37.029C56.5718 41.4343 56.5678 44.4289 56.3787 46.7437C56.1945 48.9984 55.8606 50.1514 55.4508 50.9557C54.4646 52.8911 52.8911 54.4646 50.9557 55.4508C50.1514 55.8606 48.9984 56.1945 46.7437 56.3787C44.4289 56.5678 41.4343 56.5718 37.029 56.5718H34.9718C30.5666 56.5718 27.5719 56.5678 25.2572 56.3787C23.0025 56.1945 21.8494 55.8606 21.0451 55.4508C19.1097 54.4646 17.5362 52.8911 16.5501 50.9557C16.1402 50.1514 15.8063 48.9984 15.6221 46.7437C15.433 44.4289 15.429 41.4343 15.429 37.029V34.9718C15.429 30.5666 15.433 27.5719 15.6221 25.2572C15.8063 23.0025 16.1402 21.8494 16.5501 21.0451C17.5362 19.1097 19.1097 17.5362 21.0451 16.5501C21.8494 16.1402 23.0025 15.8063 25.2572 15.6221C27.5719 15.433 30.5666 15.429 34.9718 15.429Z" fill="white"/>
<defs>
<radialGradient id="paint0_radial_237_17030" cx="0" cy="0" r="1" gradientUnits="userSpaceOnUse" gradientTransform="translate(25.7143 54) rotate(-55.3758) scale(65.6218)">
<stop stop-color="#B13589"/>
<stop offset="0.79309" stop-color="#C62F94"/>
<stop offset="1" stop-color="#8A3AC8"/>
</radialGradient>
<radialGradient id="paint1_radial_237_17030" cx="0" cy="0" r="1" gradientUnits="userSpaceOnUse" gradientTransform="translate(23.1429 74.5714) rotate(-65.1363) scale(58.0995)">
<stop stop-color="#E0E8B7"/>
<stop offset="0.444662" stop-color="#FB8A2E"/>
<stop offset="0.71474" stop-color="#E2425C"/>
<stop offset="1" stop-color="#E2425C" stop-opacity="0"/>
</radialGradient>
<radialGradient id="paint2_radial_237_17030" cx="0" cy="0" r="1" gradientUnits="userSpaceOnUse" gradientTransform="translate(-3.85714 2.57143) rotate(-8.1301) scale(100.005 21.3901)">
<stop offset="0.156701" stop-color="#406ADC"/>
<stop offset="0.467799" stop-color="#6A45BE"/>
<stop offset="1" stop-color="#6A45BE" stop-opacity="0"/>
</radialGradient>
</defs>
</svg>
