<svg width="33" height="33" viewBox="0 0 33 33" fill="none" xmlns="http://www.w3.org/2000/svg">
<g clip-path="url(#clip0_16810_16878)">
<path d="M32.4961 20.01L30.9467 21.185L29.4015 20.109C29.4015 19.9959 29.4015 19.8758 29.3945 19.7557C29.3945 19.6426 29.3945 19.5225 29.3874 19.4024C29.2885 16.6187 28.582 13.6372 27.1689 11.4541C26.0809 9.7796 24.689 8.98123 23.1347 8.98123C21.5026 8.98123 20.1744 9.95623 18.7048 12.0758C18.6624 12.1394 18.6129 12.203 18.5706 12.2736C18.5423 12.309 18.5211 12.3443 18.4928 12.3867C18.4222 12.4926 18.3515 12.5986 18.2809 12.7117C17.645 13.7008 16.9809 14.8524 16.2602 16.1242C16.1966 16.2443 16.126 16.3644 16.0624 16.4845C16.0412 16.5128 16.02 16.5481 16.0059 16.5763L15.8575 16.8378L14.9814 18.385C12.9254 22.0236 12.4026 22.8573 11.3782 24.2209C9.57653 26.616 8.03631 27.5274 6.00859 27.5274C3.60642 27.5274 2.08033 26.4888 1.14066 24.9204C0.37055 23.6486 -0.00390625 21.9742 -0.00390625 20.0666L3.50751 20.1867C3.50751 21.4302 3.77599 22.3769 4.13631 22.9562C4.60262 23.7052 5.28794 23.9948 6.00153 23.9948C6.91294 23.9948 7.76077 23.8041 9.37164 21.5715C10.6646 19.784 12.1907 17.2829 13.2151 15.7073L14.1831 14.2307L14.3879 13.9057L14.5999 13.5878L14.9532 13.0437C15.4901 12.2242 16.0695 11.3551 16.6912 10.5215C16.7619 10.4225 16.8325 10.3236 16.9102 10.2247C16.9809 10.1258 17.0586 10.0269 17.1292 9.93504C17.7651 9.12254 18.4363 8.36656 19.157 7.74482C20.464 6.60732 21.87 5.97852 23.2901 5.97852C25.6711 5.97852 27.939 7.35623 29.6771 9.9421C31.4504 12.5845 32.376 15.8769 32.482 19.3035C32.489 19.4166 32.489 19.5367 32.489 19.6568C32.4961 19.7769 32.4961 19.8899 32.4961 20.01Z" fill="#0081FB"/>
<path d="M2.76562 10.1866C4.37437 7.7102 6.69742 5.97852 9.36101 5.97852C10.904 5.97852 12.4372 6.43422 14.0389 7.73987C15.7904 9.16705 17.6577 11.5169 19.9871 15.3901L20.8222 16.7798C22.8386 20.133 23.9853 21.8576 24.6572 22.6715C25.5206 23.7165 26.0596 23.9948 26.8453 23.9948C28.8377 23.9948 29.4008 22.2003 29.4008 20.1082L32.4975 20.0115C32.4975 22.1981 32.0658 23.8048 31.331 25.0737C30.6217 26.3009 29.2383 27.5274 26.911 27.5274C25.464 27.5274 24.1824 27.2137 22.7651 25.8791C21.6757 24.8547 20.4018 23.0347 19.4219 21.3991L16.5068 16.5389C15.0443 14.1 13.7026 12.2807 12.9261 11.4576C12.091 10.5716 11.0595 9.51183 9.34617 9.51183C7.95927 9.51183 6.73981 10.4741 5.75421 11.9599L2.76562 10.1866Z" fill="url(#paint0_linear_16810_16878)"/>
<path d="M9.35751 9.51113C7.97343 9.51113 6.75539 10.4734 5.77191 11.9592C4.38077 14.059 3.5287 17.1861 3.5287 20.1895C3.5287 21.428 3.52658 22.3599 3.88196 22.935L1.16892 24.9225C0.401637 23.6465 -0.00390625 22.0166 -0.00390625 20.109C-0.00390625 16.6399 0.953431 12.9794 2.76425 10.1866C4.37088 7.7102 6.713 5.97852 9.37164 5.97852L9.35751 9.51113Z" fill="url(#paint1_linear_16810_16878)"/>
<path opacity="0.05" d="M14.5965 13.5883L14.3846 13.9062L14.1797 14.2312C14.6813 14.9589 15.2536 15.835 15.8541 16.8383L16.0025 16.5769C16.0166 16.5486 16.0378 16.5133 16.059 16.485C16.1226 16.3649 16.1933 16.2448 16.2569 16.1247C15.6704 15.1638 15.1052 14.3089 14.5965 13.5883ZM16.9069 10.2252C16.8291 10.3241 16.7585 10.423 16.6878 10.522C17.2036 11.1649 17.7264 11.8926 18.2775 12.7122C18.3482 12.5991 18.4188 12.4932 18.4895 12.3872C18.5177 12.3448 18.5389 12.3095 18.5672 12.2741C18.6096 12.2035 18.659 12.1399 18.7014 12.0763C18.1645 11.285 17.6416 10.5714 17.1259 9.93555C17.0552 10.0274 16.9775 10.1263 16.9069 10.2252Z" fill="white"/>
<path opacity="0.07" d="M14.5948 13.5877L14.3828 13.9056C14.8844 14.6262 15.4497 15.4882 16.0573 16.4844C16.1209 16.3643 16.1915 16.2442 16.2551 16.1241C15.6687 15.1632 15.1035 14.3083 14.5948 13.5877ZM16.6861 10.5213C17.2018 11.1643 17.7247 11.892 18.2757 12.7116C18.3464 12.5985 18.4171 12.4925 18.4877 12.3866C17.9437 11.5811 17.4138 10.8605 16.9051 10.2246C16.8274 10.3235 16.7567 10.4224 16.6861 10.5213Z" fill="white"/>
</g>
<defs>
<linearGradient id="paint0_linear_16810_16878" x1="29.1796" y1="16.753" x2="8.85231" y2="16.753" gradientUnits="userSpaceOnUse">
<stop stop-color="#0081FB"/>
<stop offset="0.995" stop-color="#0064E1"/>
</linearGradient>
<linearGradient id="paint1_linear_16810_16878" x1="4.68387" y1="22.4899" x2="4.68387" y2="8.45982" gradientUnits="userSpaceOnUse">
<stop stop-color="#0081FB"/>
<stop offset="0.995" stop-color="#0064E1"/>
</linearGradient>
<clipPath id="clip0_16810_16878">
<rect width="32.5" height="32.5" fill="white" transform="translate(-0.00390625 -0.00390625)"/>
</clipPath>
</defs>
</svg>
