<svg width="18" height="18" viewBox="0 0 18 18" fill="none" xmlns="http://www.w3.org/2000/svg">
<g clip-path="url(#clip0_17117_17257)">
<path d="M9 18C13.9706 18 18 13.9706 18 9C18 4.02944 13.9706 0 9 0C4.02944 0 0 4.02944 0 9C0 13.9706 4.02944 18 9 18Z" fill="#D80027"/>
<path d="M12.0475 6.95361L13.0241 8.29939L14.6057 7.78656L13.6276 9.13117L14.604 10.4769L13.023 9.96211L12.0449 11.3067L12.0459 9.64405L10.4648 9.12926L12.0465 8.61643L12.0475 6.95361Z" fill="#F0F0F0"/>
<path d="M9.38294 12.494C7.52522 12.494 6.01918 10.988 6.01918 9.13026C6.01918 7.27254 7.52522 5.7665 9.38294 5.7665C9.96217 5.7665 10.5072 5.913 10.983 6.17081C10.2365 5.44076 9.21566 4.99023 8.0892 4.99023C5.80271 4.99023 3.94922 6.84377 3.94922 9.13021C3.94922 11.4167 5.80275 13.2702 8.0892 13.2702C9.21575 13.2702 10.2366 12.8196 10.983 12.0896C10.5072 12.3475 9.96217 12.494 9.38294 12.494Z" fill="#F0F0F0"/>
</g>
<defs>
<clipPath id="clip0_17117_17257">
<rect width="18" height="18" fill="white"/>
</clipPath>
</defs>
</svg>
