<svg width="18" height="18" viewBox="0 0 18 18" fill="none" xmlns="http://www.w3.org/2000/svg">
<g clip-path="url(#clip0_17117_17262)">
<path d="M9 18C13.9706 18 18 13.9706 18 9C18 4.02944 13.9706 0 9 0C4.02944 0 0 4.02944 0 9C0 13.9706 4.02944 18 9 18Z" fill="#F0F0F0"/>
<path d="M8.60938 9.00018H18.0007C18.0007 8.18786 17.8924 7.40092 17.6906 6.65234H8.60938V9.00018Z" fill="#D80027"/>
<path d="M8.60938 4.30389H16.6797C16.1288 3.40488 15.4243 2.61024 14.603 1.95605H8.60938V4.30389Z" fill="#D80027"/>
<path d="M9.0008 18C11.1189 18 13.0658 17.2679 14.6032 16.0435H3.39844C4.93582 17.2679 6.88267 18 9.0008 18Z" fill="#D80027"/>
<path d="M1.31951 13.695H16.6776C17.1199 12.9733 17.4629 12.1844 17.6885 11.3472H0.308594C0.534191 12.1844 0.877211 12.9733 1.31951 13.695Z" fill="#D80027"/>
<path d="M4.16897 1.40548H4.98913L4.22624 1.95971L4.51765 2.85652L3.75479 2.30228L2.99194 2.85652L3.24366 2.08178C2.57196 2.64129 1.98323 3.29681 1.49808 4.02722H1.76087L1.27526 4.38001C1.1996 4.50622 1.12704 4.63444 1.0575 4.76455L1.28939 5.47826L0.856758 5.16393C0.749215 5.39177 0.650848 5.62475 0.56243 5.86259L0.81791 6.64896H1.76087L0.99798 7.2032L1.28939 8.1L0.526535 7.54576L0.0695742 7.87778C0.0238359 8.24544 0 8.61993 0 9H9C9 4.02947 9 3.44348 9 0C7.22208 0 5.56471 0.515742 4.16897 1.40548ZM4.51765 8.1L3.75479 7.54576L2.99194 8.1L3.28335 7.2032L2.52046 6.64896H3.46342L3.75479 5.75216L4.04617 6.64896H4.98913L4.22624 7.2032L4.51765 8.1ZM4.22624 4.58146L4.51765 5.47826L3.75479 4.92402L2.99194 5.47826L3.28335 4.58146L2.52046 4.02722H3.46342L3.75479 3.13042L4.04617 4.02722H4.98913L4.22624 4.58146ZM7.74591 8.1L6.98305 7.54576L6.2202 8.1L6.51161 7.2032L5.74871 6.64896H6.69168L6.98305 5.75216L7.27443 6.64896H8.21739L7.4545 7.2032L7.74591 8.1ZM7.4545 4.58146L7.74591 5.47826L6.98305 4.92402L6.2202 5.47826L6.51161 4.58146L5.74871 4.02722H6.69168L6.98305 3.13042L7.27443 4.02722H8.21739L7.4545 4.58146ZM7.4545 1.95971L7.74591 2.85652L6.98305 2.30228L6.2202 2.85652L6.51161 1.95971L5.74871 1.40548H6.69168L6.98305 0.508676L7.27443 1.40548H8.21739L7.4545 1.95971Z" fill="#0052B4"/>
</g>
<defs>
<clipPath id="clip0_17117_17262">
<rect width="18" height="18" fill="white"/>
</clipPath>
</defs>
</svg>
