<svg width="23" height="22" viewBox="0 0 23 22" fill="none" xmlns="http://www.w3.org/2000/svg">
<g id="colors, rgb, adjustments">
<path id="vector" d="M7.19483 9.15718C6.93431 8.57128 6.78951 7.92239 6.78951 7.23962C6.78951 4.63387 8.89854 2.52148 11.5002 2.52148C14.1018 2.52148 16.2108 4.63387 16.2108 7.23962C16.2108 7.92239 16.066 8.57128 15.8055 9.15718M7.19483 9.15718C4.84599 9.42405 3.021 11.4211 3.021 13.845C3.021 16.4508 5.13003 18.5632 7.73164 18.5632C9.27259 18.5632 10.6407 17.8221 11.5002 16.6764M7.19483 9.15718C7.85919 10.6513 9.27612 11.7358 10.9633 11.9275M15.8055 9.15718C15.6293 9.13716 15.4502 9.12688 15.2687 9.12688C13.7277 9.12688 12.3596 9.86795 11.5002 11.0137M15.8055 9.15718C18.1543 9.42405 19.9793 11.4211 19.9793 13.845C19.9793 16.4508 17.8703 18.5632 15.2687 18.5632C13.7277 18.5632 12.3596 17.8221 11.5002 16.6764M11.5002 11.0137C11.2888 11.2955 11.1082 11.6017 10.9633 11.9275M11.5002 11.0137C11.7115 11.2955 11.8921 11.6017 12.037 11.9275M10.9633 11.9275C11.1395 11.9475 11.3186 11.9578 11.5002 11.9578C11.6817 11.9578 11.8608 11.9475 12.037 11.9275M12.037 11.9275C12.2975 12.5134 12.4423 13.1622 12.4423 13.845C12.4423 14.9074 12.0917 15.8877 11.5002 16.6764" stroke="#03696C" stroke-width="2"/>
</g>
</svg>
