<svg width="22" height="22" viewBox="0 0 22 22" fill="none" xmlns="http://www.w3.org/2000/svg">
<path d="M11.8113 3.6844H19.9386M11.8113 7.47712H16.6877M11.8113 14.5208H19.9386M11.8113 18.3135H16.6877M4.22587 18.8553H4.76768C5.96464 18.8553 6.93496 17.885 6.93496 16.688V16.1462C6.93496 14.9493 5.96464 13.9789 4.76768 13.9789H4.22587C3.02891 13.9789 2.05859 14.9493 2.05859 16.1462V16.688C2.05859 17.885 3.02891 18.8553 4.22587 18.8553ZM4.22587 8.01894H4.76768C5.96464 8.01894 6.93496 7.04862 6.93496 5.85167V5.30985C6.93496 4.1129 5.96464 3.14258 4.76768 3.14258H4.22587C3.02891 3.14258 2.05859 4.1129 2.05859 5.30985V5.85167C2.05859 7.04862 3.02891 8.01894 4.22587 8.01894Z" stroke="url(#paint0_linear_25528_27642)" stroke-width="1.6" stroke-linecap="round" stroke-linejoin="round"/>
<defs>
<linearGradient id="paint0_linear_25528_27642" x1="2.05832" y1="18.8552" x2="17.6408" y2="1.12334" gradientUnits="userSpaceOnUse">
<stop stop-color="#1570EF"/>
<stop offset="1" stop-color="#2E90FA"/>
</linearGradient>
</defs>
</svg>
