<svg width="22" height="22" viewBox="0 0 22 22" fill="none" xmlns="http://www.w3.org/2000/svg">
<path d="M3.24195 19.7043L3.60514 18.9915H3.60514L3.24195 19.7043ZM2.29481 18.7572L3.00762 18.394H3.00762L2.29481 18.7572ZM19.7024 18.7572L18.9896 18.394L18.9896 18.394L19.7024 18.7572ZM18.7552 19.7043L18.392 18.9915H18.392L18.7552 19.7043ZM19.7024 3.2439L18.9896 3.60709V3.60709L19.7024 3.2439ZM18.7552 2.29677L18.392 3.00957V3.00957L18.7552 2.29677ZM2.29481 3.2439L1.58201 2.88071L1.58201 2.88071L2.29481 3.2439ZM3.24195 2.29677L2.87875 1.58396L2.87875 1.58396L3.24195 2.29677ZM10.9986 12.6387H10.1986V14.2387H10.9986V12.6387ZM19.9386 14.2387H20.7386V12.6387H19.9386V14.2387ZM10.9986 9.36236H11.7986V7.76236H10.9986V9.36236ZM2.05859 7.76236H1.25859V9.36236H2.05859V7.76236ZM11.7986 2.06055V1.26055H10.1986V2.06055H11.7986ZM10.1986 19.9405V20.7405H11.7986V19.9405H10.1986ZM19.9386 5.52818H19.1386V16.4729H19.9386H20.7386V5.52818H19.9386ZM16.471 19.9405V19.1405H5.52623V19.9405V20.7405H16.471V19.9405ZM2.05859 16.4729H2.85859V5.52818H2.05859H1.25859V16.4729H2.05859ZM5.52623 2.06055V2.86055H16.471V2.06055V1.26055H5.52623V2.06055ZM5.52623 19.9405V19.1405C4.90614 19.1405 4.48918 19.1399 4.16791 19.1137C3.85599 19.0882 3.70537 19.0426 3.60514 18.9915L3.24195 19.7043L2.87875 20.4171C3.24213 20.6023 3.62675 20.6748 4.03762 20.7084C4.43915 20.7412 4.93254 20.7405 5.52623 20.7405V19.9405ZM2.05859 16.4729H1.25859C1.25859 17.0666 1.25797 17.56 1.29078 17.9615C1.32435 18.3724 1.39686 18.757 1.58201 19.1204L2.29481 18.7572L3.00762 18.394C2.95655 18.2938 2.91095 18.1431 2.88546 17.8312C2.85922 17.51 2.85859 17.093 2.85859 16.4729H2.05859ZM3.24195 19.7043L3.60514 18.9915C3.34787 18.8604 3.1387 18.6513 3.00762 18.394L2.29481 18.7572L1.58201 19.1204C1.86649 19.6787 2.32043 20.1326 2.87875 20.4171L3.24195 19.7043ZM19.9386 16.4729H19.1386C19.1386 17.093 19.138 17.51 19.1117 17.8312C19.0862 18.1431 19.0406 18.2938 18.9896 18.394L19.7024 18.7572L20.4152 19.1204C20.6003 18.757 20.6728 18.3724 20.7064 17.9615C20.7392 17.56 20.7386 17.0666 20.7386 16.4729H19.9386ZM16.471 19.9405V20.7405C17.0646 20.7405 17.558 20.7412 17.9596 20.7084C18.3704 20.6748 18.7551 20.6023 19.1184 20.4171L18.7552 19.7043L18.392 18.9915C18.2918 19.0426 18.1412 19.0882 17.8293 19.1137C17.508 19.1399 17.0911 19.1405 16.471 19.1405V19.9405ZM19.7024 18.7572L18.9896 18.394C18.8585 18.6513 18.6493 18.8604 18.392 18.9915L18.7552 19.7043L19.1184 20.4171C19.6768 20.1326 20.1307 19.6787 20.4152 19.1204L19.7024 18.7572ZM19.9386 5.52818H20.7386C20.7386 4.93449 20.7392 4.44111 20.7064 4.03958C20.6728 3.62871 20.6003 3.24408 20.4152 2.88071L19.7024 3.2439L18.9896 3.60709C19.0406 3.70732 19.0862 3.85794 19.1117 4.16987C19.138 4.49113 19.1386 4.90809 19.1386 5.52818H19.9386ZM16.471 2.06055V2.86055C17.0911 2.86055 17.508 2.86117 17.8293 2.88742C18.1412 2.9129 18.2918 2.9585 18.392 3.00957L18.7552 2.29677L19.1184 1.58396C18.7551 1.39881 18.3704 1.3263 17.9596 1.29273C17.558 1.25992 17.0646 1.26055 16.471 1.26055V2.06055ZM19.7024 3.2439L20.4152 2.88071C20.1307 2.32238 19.6768 1.86844 19.1184 1.58396L18.7552 2.29677L18.392 3.00957C18.6493 3.14066 18.8585 3.34982 18.9896 3.60709L19.7024 3.2439ZM2.05859 5.52818H2.85859C2.85859 4.90809 2.85922 4.49113 2.88546 4.16987C2.91095 3.85794 2.95655 3.70732 3.00762 3.60709L2.29481 3.2439L1.58201 2.88071C1.39686 3.24408 1.32435 3.62871 1.29078 4.03958C1.25797 4.44111 1.25859 4.93449 1.25859 5.52818H2.05859ZM5.52623 2.06055V1.26055C4.93254 1.26055 4.43915 1.25992 4.03762 1.29273C3.62675 1.3263 3.24213 1.39881 2.87875 1.58396L3.24195 2.29677L3.60514 3.00957C3.70537 2.9585 3.85599 2.9129 4.16792 2.88742C4.48918 2.86117 4.90614 2.86055 5.52623 2.86055V2.06055ZM2.29481 3.2439L3.00762 3.60709C3.1387 3.34982 3.34787 3.14066 3.60514 3.00957L3.24195 2.29677L2.87875 1.58396C2.32042 1.86844 1.86649 2.32238 1.58201 2.88071L2.29481 3.2439ZM10.9986 13.4387V14.2387H19.9386V13.4387V12.6387H10.9986V13.4387ZM10.9986 8.56236V7.76236H2.05859V8.56236V9.36236H10.9986V8.56236ZM10.9986 2.06055H10.1986V19.9405H10.9986H11.7986V2.06055H10.9986Z" fill="url(#paint0_linear_25528_27510)"/>
<defs>
<linearGradient id="paint0_linear_25528_27510" x1="10.9986" y1="19.9402" x2="12.8512" y2="19.8439" gradientUnits="userSpaceOnUse">
<stop stop-color="#7B39BE"/>
<stop offset="1" stop-color="#9D4EDD"/>
</linearGradient>
</defs>
</svg>
