<svg width="22" height="22" viewBox="0 0 22 22" fill="none" xmlns="http://www.w3.org/2000/svg">
<path d="M6.18229 18.5291H8.14965C8.14965 18.5291 10.3954 19.3973 11.9057 19.4693C15.2356 19.6281 17.8809 18.077 20.0234 15.7177C20.5127 15.1789 20.5044 14.3655 20.0501 13.7969C19.4644 13.0639 18.3635 13.0045 17.6291 13.5881C16.82 14.2311 15.746 14.9544 14.7227 15.2384C13.3092 15.6308 11.9057 15.7085 11.9057 15.7085C19.4177 15.2384 16.5113 10.0846 6.18229 12.8346M12.8788 3.56661C12.4629 2.42257 11.3659 1.60547 10.0781 1.60547C8.43278 1.60547 7.09896 2.93929 7.09896 4.58464C7.09896 6.22998 8.43278 7.5638 10.0781 7.5638C10.3793 7.5638 10.6701 7.51911 10.9441 7.43599M12.8788 3.56661C11.6558 3.93756 10.7656 5.07381 10.7656 6.41797C10.7656 6.77552 10.8286 7.11836 10.9441 7.43599M12.8788 3.56661C13.1529 3.4835 13.4436 3.4388 13.7448 3.4388C15.3901 3.4388 16.724 4.77262 16.724 6.41797C16.724 8.06332 15.3901 9.39714 13.7448 9.39714C12.457 9.39714 11.36 8.58003 10.9441 7.43599M4.34896 19.4805C3.33644 19.4805 2.51562 18.6597 2.51562 17.6471V13.5221C2.51562 12.5096 3.33644 11.6888 4.34896 11.6888C5.36148 11.6888 6.18229 12.5096 6.18229 13.5221V17.6471C6.18229 18.6597 5.36148 19.4805 4.34896 19.4805Z" stroke="url(#paint0_linear_25528_27429)" stroke-width="1.6" stroke-linecap="round" stroke-linejoin="round"/>
<defs>
<linearGradient id="paint0_linear_25528_27429" x1="2.51535" y1="19.4804" x2="20.3904" y2="1.60525" gradientUnits="userSpaceOnUse">
<stop stop-color="#0086C9"/>
<stop offset="1" stop-color="#0BA5EC"/>
</linearGradient>
</defs>
</svg>
