<svg width="22" height="22" viewBox="0 0 22 22" fill="none" xmlns="http://www.w3.org/2000/svg">
<path d="M11.827 6.03005L15.6946 9.8976M15.6962 6.03005L11.8286 9.8976M7.85751 7.85947H3.71543C2.80038 7.85947 2.05859 8.60125 2.05859 9.5163V18.2837C2.05859 19.1988 2.80038 19.9405 3.71543 19.9405H12.4828C13.3979 19.9405 14.1397 19.1988 14.1397 18.2837V14.1416M9.51435 14.1416H18.2818C19.1968 14.1416 19.9386 13.3998 19.9386 12.4848V3.71738C19.9386 2.80234 19.1968 2.06055 18.2818 2.06055H9.51435C8.5993 2.06055 7.85751 2.80234 7.85751 3.71738V12.4848C7.85751 13.3998 8.5993 14.1416 9.51435 14.1416Z" stroke="url(#paint0_linear_25528_27688)" stroke-width="1.6" stroke-linecap="round" stroke-linejoin="round"/>
<defs>
<linearGradient id="paint0_linear_25528_27688" x1="2.05832" y1="19.9404" x2="19.9384" y2="2.06033" gradientUnits="userSpaceOnUse">
<stop stop-color="#DC6803"/>
<stop offset="1" stop-color="#F79009"/>
</linearGradient>
</defs>
</svg>
