<svg width="22" height="22" viewBox="0 0 22 22" fill="none" xmlns="http://www.w3.org/2000/svg">
    <path d="M3.24341 19.7038L3.6066 18.991H3.6066L3.24341 19.7038ZM2.29628 18.7567L3.00908 18.3935H3.00908L2.29628 18.7567ZM19.7038 18.7567L18.991 18.3935L18.991 18.3935L19.7038 18.7567ZM18.7567 19.7038L18.3935 18.991H18.3935L18.7567 19.7038ZM19.7038 3.24341L18.991 3.6066V3.6066L19.7038 3.24341ZM18.7567 2.29628L18.3935 3.00908V3.00908L18.7567 2.29628ZM2.29628 3.24341L1.58347 2.88022L1.58347 2.88022L2.29628 3.24341ZM3.24341 2.29628L2.88022 1.58347L2.88022 1.58347L3.24341 2.29628ZM11.0001 12.6382H10.2001V14.2382H11.0001V12.6382ZM19.9401 14.2382H20.7401V12.6382H19.9401V14.2382ZM11.0001 9.36188H11.8001V7.76188H11.0001V9.36188ZM2.06006 7.76188H1.26006V9.36188H2.06006V7.76188ZM11.8001 2.06006V1.26006H10.2001V2.06006H11.8001ZM10.2001 19.9401V20.7401H11.8001V19.9401H10.2001ZM19.1401 5.52769V16.4724H20.7401V5.52769H19.1401ZM16.4724 19.1401H5.52769V20.7401H16.4724V19.1401ZM2.86006 16.4724V5.52769H1.26006V16.4724H2.86006ZM5.52769 2.86006H16.4724V1.26006H5.52769V2.86006ZM5.52769 19.1401C4.9076 19.1401 4.49064 19.1394 4.16938 19.1132C3.85746 19.0877 3.70683 19.0421 3.6066 18.991L2.88022 20.4166C3.24359 20.6018 3.62822 20.6743 4.03909 20.7079C4.44062 20.7407 4.934 20.7401 5.52769 20.7401V19.1401ZM1.26006 16.4724C1.26006 17.0661 1.25944 17.5595 1.29224 17.961C1.32581 18.3719 1.39832 18.7565 1.58347 19.1199L3.00908 18.3935C2.95801 18.2933 2.91241 18.1427 2.88693 17.8307C2.86068 17.5095 2.86006 17.0925 2.86006 16.4724H1.26006ZM3.6066 18.991C3.34933 18.8599 3.14017 18.6508 3.00908 18.3935L1.58347 19.1199C1.86795 19.6782 2.32189 20.1322 2.88022 20.4166L3.6066 18.991ZM19.1401 16.4724C19.1401 17.0925 19.1394 17.5095 19.1132 17.8307C19.0877 18.1427 19.0421 18.2933 18.991 18.3935L20.4166 19.1199C20.6018 18.7565 20.6743 18.3719 20.7079 17.961C20.7407 17.5595 20.7401 17.0661 20.7401 16.4724H19.1401ZM16.4724 20.7401C17.0661 20.7401 17.5595 20.7407 17.961 20.7079C18.3719 20.6743 18.7565 20.6018 19.1199 20.4166L18.3935 18.991C18.2933 19.0421 18.1427 19.0877 17.8307 19.1132C17.5095 19.1394 17.0925 19.1401 16.4724 19.1401V20.7401ZM18.991 18.3935C18.8599 18.6508 18.6508 18.8599 18.3935 18.991L19.1199 20.4166C19.6782 20.1322 20.1322 19.6782 20.4166 19.1199L18.991 18.3935ZM20.7401 5.52769C20.7401 4.934 20.7407 4.44062 20.7079 4.03909C20.6743 3.62822 20.6018 3.24359 20.4166 2.88022L18.991 3.6066C19.0421 3.70683 19.0877 3.85746 19.1132 4.16938C19.1394 4.49064 19.1401 4.9076 19.1401 5.52769H20.7401ZM16.4724 2.86006C17.0925 2.86006 17.5095 2.86068 17.8307 2.88693C18.1427 2.91241 18.2933 2.95801 18.3935 3.00908L19.1199 1.58347C18.7565 1.39832 18.3719 1.32581 17.961 1.29224C17.5595 1.25944 17.0661 1.26006 16.4724 1.26006V2.86006ZM20.4166 2.88022C20.1322 2.32189 19.6782 1.86795 19.1199 1.58347L18.3935 3.00908C18.6508 3.14017 18.8599 3.34933 18.991 3.6066L20.4166 2.88022ZM2.86006 5.52769C2.86006 4.9076 2.86068 4.49064 2.88693 4.16938C2.91241 3.85746 2.95801 3.70683 3.00908 3.6066L1.58347 2.88022C1.39832 3.24359 1.32581 3.62822 1.29224 4.03909C1.25944 4.44062 1.26006 4.934 1.26006 5.52769H2.86006ZM5.52769 1.26006C4.934 1.26006 4.44062 1.25944 4.03909 1.29224C3.62822 1.32581 3.24359 1.39832 2.88022 1.58347L3.6066 3.00908C3.70683 2.95801 3.85746 2.91241 4.16938 2.88693C4.49064 2.86068 4.9076 2.86006 5.52769 2.86006V1.26006ZM3.00908 3.6066C3.14017 3.34933 3.34933 3.14017 3.6066 3.00908L2.88022 1.58347C2.32189 1.86795 1.86795 2.32189 1.58347 2.88022L3.00908 3.6066ZM11.0001 14.2382H19.9401V12.6382H11.0001V14.2382ZM11.0001 7.76188H2.06006V9.36188H11.0001V7.76188ZM10.2001 2.06006V19.9401H11.8001V2.06006H10.2001Z" fill="url(#paint0_linear_24030_116522)"/>
    <defs>
        <linearGradient id="paint0_linear_24030_116522" x1="11" y1="19.9397" x2="12.8527" y2="19.8435" gradientUnits="userSpaceOnUse">
            <stop stop-color="#7B39BE"/>
            <stop offset="1" stop-color="#9D4EDD"/>
        </linearGradient>
    </defs>
</svg>