<svg width="22" height="22" viewBox="0 0 22 22" fill="none" xmlns="http://www.w3.org/2000/svg">
    <path d="M6.18229 18.5281H8.14965C8.14965 18.5281 10.3954 19.3963 11.9057 19.4683C15.2356 19.6271 17.8809 18.076 20.0234 15.7167C20.5127 15.178 20.5044 14.3646 20.0501 13.7959C19.4644 13.0629 18.3635 13.0036 17.6291 13.5871C16.82 14.2301 15.746 14.9534 14.7227 15.2374C13.3092 15.6298 11.9057 15.7075 11.9057 15.7075C19.4177 15.2374 16.5113 10.0837 6.18229 12.8337M12.8788 3.56564C12.4629 2.4216 11.3659 1.60449 10.0781 1.60449C8.43278 1.60449 7.09896 2.93831 7.09896 4.58366C7.09896 6.22901 8.43278 7.56283 10.0781 7.56283C10.3793 7.56283 10.6701 7.51813 10.9441 7.43501M12.8788 3.56564C11.6558 3.93658 10.7656 5.07283 10.7656 6.41699C10.7656 6.77454 10.8286 7.11738 10.9441 7.43501M12.8788 3.56564C13.1529 3.48252 13.4436 3.43783 13.7448 3.43783C15.3901 3.43783 16.724 4.77164 16.724 6.41699C16.724 8.06234 15.3901 9.39616 13.7448 9.39616C12.457 9.39616 11.36 8.57906 10.9441 7.43501M4.34896 19.4795C3.33644 19.4795 2.51562 18.6587 2.51562 17.6462V13.5212C2.51562 12.5086 3.33644 11.6878 4.34896 11.6878C5.36148 11.6878 6.18229 12.5086 6.18229 13.5212V17.6462C6.18229 18.6587 5.36148 19.4795 4.34896 19.4795Z" stroke="url(#paint0_linear_24030_116319)" stroke-width="1.6" stroke-linecap="round" stroke-linejoin="round"/>
    <defs>
        <linearGradient id="paint0_linear_24030_116319" x1="2.51535" y1="19.4794" x2="20.3904" y2="1.60427" gradientUnits="userSpaceOnUse">
            <stop stop-color="#0086C9"/>
            <stop offset="1" stop-color="#0BA5EC"/>
        </linearGradient>
    </defs>
</svg>
