<svg width="22" height="22" viewBox="0 0 22 22" fill="none" xmlns="http://www.w3.org/2000/svg">
    <path d="M5.27083 4.8125C5.27083 6.58441 3.83441 8.02083 2.0625 8.02083M16.7292 4.8125C16.7292 6.58441 18.1656 8.02083 19.9375 8.02083M5.27083 17.1875C5.27083 15.4156 3.83441 13.9792 2.0625 13.9792M16.7292 17.1875C16.7292 15.4156 18.1656 13.9792 19.9375 13.9792M3.89583 17.1875H18.1042C19.1167 17.1875 19.9375 16.3667 19.9375 15.3542V6.64583C19.9375 5.63331 19.1167 4.8125 18.1042 4.8125H3.89583C2.88331 4.8125 2.0625 5.63331 2.0625 6.64583V15.3542C2.0625 16.3667 2.88331 17.1875 3.89583 17.1875ZM13.0625 11C13.0625 12.1391 12.1391 13.0625 11 13.0625C9.86091 13.0625 8.9375 12.1391 8.9375 11C8.9375 9.86091 9.86091 8.9375 11 8.9375C12.1391 8.9375 13.0625 9.86091 13.0625 11Z" stroke="url(#paint0_linear_24030_116409)" stroke-width="1.5" stroke-linecap="round" stroke-linejoin="round"/>
    <defs>
        <linearGradient id="paint0_linear_24030_116409" x1="2.06222" y1="17.1874" x2="13.6453" y2="0.456338" gradientUnits="userSpaceOnUse">
            <stop stop-color="#039855"/>
            <stop offset="1" stop-color="#12B76A"/>
        </linearGradient>
    </defs>
</svg>
