<svg width="22" height="22" viewBox="0 0 22 22" fill="none" xmlns="http://www.w3.org/2000/svg">
    <path d="M11 19.9385C15.936 19.9385 19.9375 15.937 19.9375 11.001C19.9375 6.06493 15.936 2.06348 11 2.06348C6.06395 2.06348 2.0625 6.06493 2.0625 11.001C2.0625 12.3497 2.36127 13.6287 2.89624 14.7754C2.99472 14.9865 3.02527 15.2242 2.97026 15.4505L2.18842 18.6678C2.01922 19.3641 2.64016 19.9959 3.33924 19.8387L6.69307 19.0847C6.90959 19.036 7.13546 19.0651 7.33785 19.1562C8.45547 19.6588 9.69508 19.9385 11 19.9385Z" stroke="url(#paint0_linear_24030_116477)" stroke-width="1.6" stroke-linecap="round" stroke-linejoin="round"/>
    <path d="M9.08901 10.218C8.96712 9.97421 8.61924 9.97421 8.49735 10.218L7.73999 11.7327C7.70799 11.7967 7.65609 11.8486 7.59208 11.8806L6.07736 12.638C5.83359 12.7599 5.83359 13.1077 6.07736 13.2296L7.59208 13.987C7.65609 14.019 7.70799 14.0709 7.73999 14.1349L8.49735 15.6496C8.61924 15.8934 8.96712 15.8934 9.08901 15.6496L9.84637 14.1349C9.87837 14.0709 9.93027 14.019 9.99428 13.987L11.509 13.2296C11.7528 13.1077 11.7528 12.7599 11.509 12.638L9.99428 11.8806C9.93027 11.8486 9.87837 11.7967 9.84637 11.7327L9.08901 10.218Z" fill="url(#paint1_linear_24030_116477)"/>
    <path d="M14.0787 6.89464C13.9497 6.63668 13.5816 6.63668 13.4526 6.89464L12.8846 8.03078C12.8507 8.09851 12.7958 8.15343 12.728 8.1873L11.5919 8.75537C11.3339 8.88435 11.3339 9.25246 11.5919 9.38143L12.728 9.94951C12.7958 9.98337 12.8507 10.0383 12.8846 10.106L13.4526 11.2422C13.5816 11.5001 13.9497 11.5001 14.0787 11.2422L14.6468 10.106C14.6806 10.0383 14.7356 9.98337 14.8033 9.94951L15.9394 9.38143C16.1974 9.25246 16.1974 8.88435 15.9394 8.75537L14.8033 8.1873C14.7356 8.15343 14.6806 8.09851 14.6468 8.03078L14.0787 6.89464Z" fill="url(#paint2_linear_24030_116477)"/>
    <defs>
        <linearGradient id="paint0_linear_24030_116477" x1="2.06222" y1="19.9384" x2="19.9373" y2="2.06326" gradientUnits="userSpaceOnUse">
            <stop stop-color="#6938EF"/>
            <stop offset="1" stop-color="#7A5AF8"/>
        </linearGradient>
        <linearGradient id="paint1_linear_24030_116477" x1="5.89422" y1="15.8321" x2="15.1059" y2="5.46901" gradientUnits="userSpaceOnUse">
            <stop stop-color="#6938EF"/>
            <stop offset="1" stop-color="#7A5AF8"/>
        </linearGradient>
        <linearGradient id="paint2_linear_24030_116477" x1="5.47968" y1="16.1702" x2="14.8834" y2="5.59102" gradientUnits="userSpaceOnUse">
            <stop stop-color="#6938EF"/>
            <stop offset="1" stop-color="#7A5AF8"/>
        </linearGradient>
    </defs>
</svg>
