<svg width="152" height="46" viewBox="0 0 152 46" fill="none" xmlns="http://www.w3.org/2000/svg">
<rect x="13.8281" width="137.648" height="46" rx="3.98026" fill="#002839"/>
<path d="M1.34295 12.616L24.7769 3.64746V23.0512L1.39065 15.1115C0.214406 14.7121 0.182833 13.06 1.34295 12.616Z" fill="#002839"/>
<g clip-path="url(#clip0_14802_13914)">
<path d="M6.01953 13.2285L14.4267 13.2301L19.5387 13.231V8.1665L6.01953 13.2285Z" fill="#FF9D28"/>
<path d="M19.5391 8.1644V26.0447L25.924 5.77295L19.5391 8.1644Z" fill="#68C5ED"/>
<path d="M19.5379 13.2299L14.4258 13.229L19.5379 26.0456V13.2299Z" fill="#044D80"/>
<path d="M6.01953 13.229L15.7376 16.5193L14.4267 13.2307L6.01953 13.229Z" fill="#E54747"/>
<path d="M36.9834 21.3398C36.9093 21.414 36.7858 21.5064 36.6131 21.6175C36.4401 21.7287 36.2149 21.8398 35.9372 21.951C35.6594 22.0619 35.3197 22.1575 34.9187 22.238C34.5173 22.318 34.0577 22.3583 33.5392 22.3583C32.5392 22.3583 31.6749 22.1977 30.9467 21.8769C30.2181 21.5561 29.6163 21.1083 29.1412 20.5344C28.6659 19.9603 28.3172 19.2815 28.095 18.4974C27.8728 17.7135 27.7617 16.8525 27.7617 15.9142C27.7617 14.9762 27.8821 14.1087 28.1228 13.3125C28.3635 12.5162 28.7246 11.8282 29.206 11.2478C29.6875 10.6677 30.2893 10.2139 31.0115 9.88669C31.7337 9.55981 32.5823 9.396 33.5577 9.396C34.0392 9.396 34.4743 9.43934 34.8632 9.5256C35.2521 9.61205 35.5915 9.71398 35.8817 9.83115C36.1716 9.94863 36.4124 10.0718 36.6039 10.2015C36.7951 10.3311 36.9401 10.4394 37.0391 10.5255C37.1502 10.6245 37.2457 10.7417 37.3261 10.8773C37.4063 11.0134 37.4464 11.1615 37.4464 11.3218C37.4464 11.5689 37.3538 11.8157 37.1687 12.0625C36.9836 12.3096 36.7798 12.538 36.5575 12.7477C36.4094 12.5995 36.2428 12.4485 36.0576 12.2941C35.8724 12.1398 35.6656 12.0041 35.4373 11.8866C35.2087 11.7695 34.9495 11.6708 34.6595 11.5904C34.3693 11.5102 34.0453 11.47 33.6874 11.47C33.0578 11.47 32.5301 11.5967 32.1041 11.8496C31.6782 12.1028 31.3356 12.4329 31.0764 12.8403C30.8172 13.2477 30.632 13.7138 30.5209 14.2384C30.4098 14.7632 30.3542 15.297 30.3542 15.8402C30.3542 16.4205 30.4098 16.976 30.5209 17.5066C30.6319 18.0375 30.8232 18.5068 31.0949 18.914C31.3663 19.3213 31.7213 19.6486 32.1597 19.8954C32.5977 20.1425 33.144 20.2658 33.7985 20.2658C34.1439 20.2658 34.4619 20.2227 34.7521 20.1362C35.042 20.0499 35.2983 19.9449 35.5206 19.8212C35.7428 19.6981 35.9372 19.5685 36.1039 19.4326C36.2705 19.2968 36.4094 19.1797 36.5205 19.0807C36.5946 19.1672 36.6808 19.2723 36.7798 19.3955C36.8792 19.5201 36.9719 19.6499 37.0575 19.7844C37.1438 19.9204 37.2178 20.0561 37.2797 20.1916C37.3413 20.3277 37.3723 20.451 37.3723 20.5619C37.3723 20.7226 37.3413 20.8583 37.2797 20.9694C37.2178 21.0806 37.1191 21.2041 36.9834 21.3398ZM46.5263 19.9196C46.5263 20.9008 46.6689 21.615 46.9547 22.0621C46.7312 22.1488 46.5231 22.211 46.3307 22.2483C46.138 22.2856 45.9363 22.3041 45.7252 22.3041C45.2782 22.3041 44.9396 22.2172 44.71 22.0433C44.4801 21.8696 44.3342 21.6212 44.2722 21.2982C43.9988 21.5841 43.6387 21.8262 43.1917 22.0249C42.7446 22.2233 42.198 22.3229 41.5523 22.3229C41.217 22.3229 40.8817 22.2764 40.5464 22.1838C40.211 22.0905 39.9066 21.9392 39.6335 21.729C39.3601 21.5183 39.1367 21.2367 38.9629 20.8838C38.7888 20.5309 38.702 20.1008 38.702 19.5933C38.702 18.9619 38.854 18.448 39.1585 18.052C39.4627 17.6557 39.8446 17.3431 40.3042 17.114C40.7636 16.8852 41.2604 16.7276 41.7946 16.6408C42.3284 16.554 42.8192 16.4985 43.2662 16.4734C43.4154 16.4611 43.5611 16.4547 43.704 16.4547H44.1046V16.1157C44.1046 15.6383 43.9771 15.2992 43.7226 15.0983C43.4679 14.8975 43.0549 14.7968 42.4838 14.7968C41.9497 14.7968 41.4746 14.8838 41.0587 15.0575C40.6424 15.2316 40.2357 15.4301 39.8385 15.6537C39.6644 15.4426 39.5246 15.2099 39.4193 14.9551C39.3137 14.7008 39.261 14.5113 39.261 14.3869C39.261 14.2132 39.357 14.0455 39.5497 13.8839C39.7421 13.7227 40.0061 13.5766 40.3415 13.4462C40.6769 13.3157 41.0617 13.2104 41.4966 13.1295C41.9311 13.0488 42.3907 13.0084 42.8751 13.0084C43.5457 13.0084 44.1139 13.0768 44.5796 13.2133C45.0453 13.3501 45.4241 13.5612 45.716 13.8467C46.0077 14.1326 46.2158 14.4894 46.34 14.9179C46.464 15.3464 46.5264 15.8464 46.5264 16.4175L46.5263 19.9196ZM44.1417 17.7587H43.881C43.7939 17.7587 43.7068 17.7652 43.6202 17.7774C43.3095 17.8024 43.0021 17.8396 42.698 17.8891C42.3935 17.9389 42.1234 18.0258 41.8877 18.15C41.6516 18.2742 41.4592 18.4358 41.3102 18.6342C41.1611 18.8331 41.0866 19.0878 41.0866 19.3981C41.0866 19.7459 41.1858 20.0407 41.3846 20.2829C41.5831 20.5252 41.9185 20.6463 42.3906 20.6463C42.6264 20.6463 42.85 20.6154 43.0613 20.553C43.2723 20.4912 43.4586 20.4104 43.6202 20.311C43.7814 20.2116 43.9089 20.103 44.0021 19.9849C44.0952 19.867 44.1418 19.7584 44.1418 19.659L44.1417 17.7587ZM51.1647 14.0888C51.3626 13.853 51.6724 13.6138 52.0932 13.3715C52.5141 13.1294 53.0465 13.0083 53.6903 13.0083C54.1486 13.0083 54.5849 13.0859 54.9998 13.2411C55.4142 13.3965 55.7827 13.6481 56.1046 13.9956C56.4266 14.3435 56.6834 14.8031 56.8755 15.3742C57.0674 15.9456 57.1634 16.6474 57.1634 17.4792C57.1634 18.4479 57.0518 19.2461 56.829 19.8731C56.606 20.5005 56.3184 20.9973 55.9657 21.3635C55.6128 21.7299 55.2195 21.9876 54.7864 22.1366C54.353 22.2856 53.9196 22.3602 53.4864 22.3602C53.1273 22.3602 52.8146 22.3198 52.5486 22.2391C52.2823 22.1582 52.0564 22.0685 51.8707 21.969C51.685 21.8697 51.5427 21.7705 51.4437 21.6709C51.3447 21.5716 51.2827 21.5031 51.258 21.4658V26.0453H48.7244V13.269C48.7867 13.2568 48.8619 13.2443 48.9497 13.2318C49.0249 13.2197 49.1124 13.2103 49.2125 13.2039C49.3126 13.1978 49.4315 13.1946 49.5691 13.1946C49.9819 13.1946 50.3323 13.263 50.6201 13.3995C50.9079 13.5363 51.0896 13.7659 51.1647 14.0888ZM54.518 17.5351C54.518 17.1625 54.4871 16.815 54.4254 16.4919C54.3637 16.1692 54.2618 15.8897 54.1198 15.6537C53.9777 15.4178 53.7861 15.2345 53.5454 15.104C53.3044 14.9736 53.0113 14.9085 52.6657 14.9085C52.1471 14.9085 51.7859 15.008 51.5821 15.2065C51.3784 15.4053 51.2765 15.6228 51.2765 15.8586V19.808C51.3751 19.9075 51.5509 20.0253 51.8041 20.1619C52.0574 20.2987 52.3505 20.3667 52.6841 20.3667C53.314 20.3667 53.777 20.1186 54.0734 19.6217C54.3699 19.125 54.518 18.4293 54.518 17.5351ZM59.1188 20.7394C59.0317 20.4912 58.9759 20.2302 58.9511 19.9569C58.9261 19.6839 58.9139 19.4107 58.9139 19.1371V10.4933C59.0006 10.4811 59.0938 10.4686 59.1933 10.4561C59.2799 10.4439 59.3732 10.4346 59.4727 10.4281C59.572 10.422 59.6713 10.4189 59.7707 10.4189C59.9693 10.4189 60.1682 10.4375 60.3669 10.4747C60.5654 10.512 60.7456 10.5865 60.9073 10.6982C61.0685 10.81 61.1989 10.9623 61.2984 11.1546C61.3977 11.3473 61.4474 11.5989 61.4474 11.9091V13.2317H64.0556V15.1134H61.4474V19.086C61.4474 19.9523 61.8013 20.3854 62.5093 20.3854C62.6831 20.3854 62.8475 20.3576 63.003 20.3015C63.1582 20.2457 63.2978 20.1837 63.4222 20.1153C63.5462 20.0471 63.655 19.9757 63.7482 19.9011C63.8413 19.8265 63.9065 19.7707 63.9437 19.7335C64.13 20.0069 64.2726 20.2435 64.3722 20.4432C64.4715 20.6432 64.5212 20.8308 64.5212 21.0061C64.5212 21.1692 64.4562 21.3292 64.3256 21.4858C64.1951 21.6424 64.0118 21.7868 63.776 21.9183C63.54 22.0499 63.2545 22.1564 62.9191 22.2379C62.5838 22.3195 62.2173 22.3603 61.82 22.3603C61.0497 22.3603 60.4506 22.2111 60.0222 21.9132C59.5938 21.615 59.2924 21.2237 59.1188 20.7394ZM70.4723 20.4972C70.7837 20.4972 71.0579 20.4632 71.2949 20.3947C71.5316 20.3267 71.7434 20.2428 71.9304 20.1434C72.1172 20.0441 72.2794 19.9354 72.4166 19.8174C72.5536 19.6995 72.6781 19.5908 72.7906 19.4912C72.9399 19.6774 73.0956 19.9168 73.2578 20.2084C73.4197 20.5005 73.5008 20.7394 73.5008 20.9256C73.5008 21.199 73.3454 21.4474 73.0352 21.6709C72.7744 21.8697 72.4046 22.0405 71.9267 22.1831C71.4484 22.3258 70.8863 22.3973 70.2408 22.3973C69.6567 22.3973 69.0825 22.3229 68.5176 22.1738C67.9524 22.0249 67.4493 21.764 67.0086 21.3913C66.5676 21.0189 66.2105 20.5191 65.9373 19.8918C65.6641 19.2647 65.5275 18.4731 65.5275 17.5165C65.5275 16.734 65.6487 16.0606 65.8907 15.4953C66.133 14.9303 66.4557 14.4614 66.8597 14.0888C67.263 13.7163 67.7194 13.4432 68.2288 13.2691C68.7379 13.0954 69.2596 13.0083 69.7937 13.0083C70.4891 13.0083 71.079 13.1172 71.5634 13.3343C72.0478 13.5518 72.4419 13.8437 72.7464 14.2099C73.0505 14.5763 73.2709 14.9955 73.4076 15.4674C73.5441 15.9395 73.6126 16.4361 73.6126 16.9577V17.2185C73.6126 17.3181 73.6094 17.4234 73.6032 17.5351C73.5969 17.647 73.5908 17.7559 73.5847 17.8611C73.5782 17.9669 73.5689 18.0506 73.5568 18.1127H68.0611C68.1109 18.7958 68.3227 19.3639 68.6966 19.8174C69.0702 20.2708 69.6622 20.4972 70.4723 20.4972ZM71.3212 16.7154C71.3212 16.1193 71.2055 15.635 70.9745 15.2624C70.7434 14.8899 70.3279 14.7035 69.7286 14.7035C69.2162 14.7035 68.8073 14.8805 68.5014 15.2345C68.1951 15.5885 68.0424 16.0821 68.0424 16.7154L71.3212 16.7154ZM78.0216 14.1359C78.096 14.025 78.1953 13.9019 78.3196 13.7662C78.4436 13.6306 78.5959 13.5074 78.776 13.3966C78.956 13.2857 79.1547 13.1931 79.3722 13.1192C79.5893 13.0453 79.8222 13.0083 80.0709 13.0083C80.2198 13.0083 80.3782 13.0208 80.5458 13.0453C80.7135 13.07 80.8686 13.1163 81.0114 13.1838C81.1542 13.2517 81.2692 13.3439 81.3562 13.461C81.4429 13.578 81.4866 13.7227 81.4866 13.895C81.4866 14.166 81.4181 14.4772 81.2817 14.8285C81.1449 15.1801 81.0085 15.48 80.8719 15.7282C80.6605 15.5544 80.4494 15.4209 80.2384 15.3277C80.0271 15.2346 79.7787 15.188 79.4932 15.188C79.1082 15.188 78.7854 15.3001 78.5247 15.5242C78.2636 15.7483 78.1333 16.0161 78.1333 16.3275V22.3582H75.5998V13.269C75.6618 13.2568 75.7363 13.2443 75.8233 13.2318C75.8978 13.2197 75.9847 13.2103 76.0841 13.2039C76.1835 13.1978 76.3013 13.1946 76.4381 13.1946C76.8354 13.1946 77.18 13.2717 77.472 13.4255C77.7636 13.5791 77.9471 13.816 78.0216 14.1359ZM85.2248 14.1359C85.2993 14.025 85.3986 13.9019 85.5229 13.7662C85.6469 13.6306 85.7991 13.5074 85.9793 13.3966C86.1592 13.2857 86.3579 13.1931 86.5754 13.1192C86.7926 13.0453 87.0254 13.0083 87.274 13.0083C87.423 13.0083 87.5813 13.0208 87.749 13.0453C87.9166 13.07 88.0718 13.1163 88.2147 13.1838C88.3575 13.2517 88.4723 13.3439 88.5595 13.461C88.6462 13.578 88.6899 13.7227 88.6899 13.895C88.6899 14.166 88.6213 14.4772 88.485 14.8285C88.348 15.1801 88.2116 15.48 88.075 15.7282C87.8638 15.5544 87.6526 15.4209 87.4416 15.3277C87.2304 15.2346 86.982 15.188 86.6965 15.188C86.3115 15.188 85.9886 15.3001 85.7278 15.5242C85.467 15.7483 85.3366 16.0161 85.3366 16.3275V22.3582H82.8031V13.269C82.8651 13.2568 82.9396 13.2443 83.0266 13.2318C83.1012 13.2197 83.188 13.2103 83.2874 13.2039C83.3867 13.1978 83.5045 13.1946 83.6413 13.1946C84.0387 13.1946 84.3834 13.2717 84.6752 13.4255C84.9668 13.5791 85.1502 13.816 85.2248 14.1359ZM97.3152 19.9196C97.3152 20.9008 97.458 21.615 97.7437 22.0621C97.5202 22.1488 97.3121 22.211 97.1197 22.2483C96.927 22.2856 96.7253 22.3041 96.5143 22.3041C96.067 22.3041 95.7286 22.2172 95.499 22.0433C95.2689 21.8696 95.1232 21.6212 95.0611 21.2982C94.7879 21.5841 94.4277 21.8262 93.9806 22.0249C93.5336 22.2233 92.9869 22.3229 92.3413 22.3229C92.0059 22.3229 91.6707 22.2764 91.3353 22.1838C91 22.0905 90.6954 21.9392 90.4225 21.729C90.1491 21.5183 89.9256 21.2367 89.7518 20.8838C89.5778 20.5309 89.4911 20.1008 89.4911 19.5933C89.4911 18.9619 89.6429 18.448 89.9475 18.052C90.2516 17.6557 90.6336 17.3431 91.0932 17.114C91.5525 16.8852 92.0493 16.7276 92.5836 16.6408C93.1173 16.554 93.6081 16.4985 94.0552 16.4734C94.2043 16.4611 94.3501 16.4547 94.4931 16.4547H94.8936V16.1157C94.8936 15.6383 94.766 15.2992 94.5116 15.0983C94.2568 14.8975 93.8439 14.7968 93.2727 14.7968C92.7387 14.7968 92.2637 14.8838 91.8477 15.0575C91.4314 15.2316 91.0248 15.4301 90.6274 15.6537C90.4534 15.4426 90.3135 15.2099 90.2082 14.9551C90.1027 14.7008 90.0499 14.5113 90.0499 14.3869C90.0499 14.2132 90.146 14.0455 90.3387 13.8839C90.5311 13.7227 90.7951 13.5766 91.1304 13.4462C91.4658 13.3157 91.8506 13.2104 92.2854 13.1295C92.72 13.0488 93.1796 13.0084 93.664 13.0084C94.3346 13.0084 94.9028 13.0768 95.3686 13.2133C95.8342 13.3501 96.213 13.5612 96.5049 13.8467C96.7966 14.1326 97.0046 14.4894 97.129 14.9179C97.2529 15.3464 97.3152 15.8464 97.3152 16.4175V19.9196ZM94.9307 17.7587H94.6699C94.5828 17.7587 94.4958 17.7652 94.4091 17.7774C94.0986 17.8024 93.7911 17.8396 93.487 17.8891C93.1825 17.9389 92.9124 18.0258 92.6766 18.15C92.4406 18.2742 92.2481 18.4358 92.0991 18.6342C91.9501 18.8331 91.8755 19.0878 91.8755 19.3981C91.8755 19.7459 91.9748 20.0407 92.1736 20.2829C92.3721 20.5252 92.7076 20.6463 93.1796 20.6463C93.4154 20.6463 93.639 20.6154 93.8503 20.553C94.0614 20.4912 94.2476 20.4104 94.4091 20.311C94.5703 20.2116 94.698 20.103 94.791 19.9849C94.8842 19.867 94.9307 19.7584 94.9307 19.659L94.9307 17.7587Z" fill="#EBF1F5"/>
</g>
<path d="M40.4253 29.6748C40.7232 28.7581 42.0202 28.7581 42.3181 29.6748L42.7121 30.8876C42.8454 31.2976 43.2274 31.5752 43.6585 31.5752H44.9338C45.8977 31.5752 46.2985 32.8087 45.5186 33.3753L44.4869 34.1249C44.1382 34.3783 43.9923 34.8274 44.1255 35.2374L44.5195 36.4502C44.8174 37.367 43.7681 38.1293 42.9883 37.5628L41.9566 36.8132C41.6078 36.5598 41.1356 36.5598 40.7868 36.8132L39.7551 37.5628C38.9753 38.1293 37.926 37.367 38.2239 36.4502L38.618 35.2374C38.7512 34.8274 38.6052 34.3783 38.2565 34.1249L37.2248 33.3753C36.4449 32.8087 36.8457 31.5752 37.8097 31.5752H39.0849C39.516 31.5752 39.8981 31.2976 40.0313 30.8876L40.4253 29.6748Z" fill="#F28833"/>
<path d="M53.0269 29.6748C53.3248 28.7581 54.6218 28.7581 54.9196 29.6748L55.3137 30.8876C55.4469 31.2976 55.829 31.5752 56.2601 31.5752H57.5353C58.4993 31.5752 58.9001 32.8087 58.1202 33.3753L57.0885 34.1249C56.7398 34.3783 56.5938 34.8274 56.727 35.2374L57.1211 36.4502C57.419 37.367 56.3697 38.1293 55.5899 37.5628L54.5582 36.8132C54.2094 36.5598 53.7371 36.5598 53.3884 36.8132L52.3567 37.5628C51.5768 38.1293 50.5276 37.367 50.8254 36.4502L51.2195 35.2374C51.3527 34.8274 51.2068 34.3783 50.858 34.1249L49.8263 33.3753C49.0465 32.8087 49.4473 31.5752 50.4112 31.5752H51.6865C52.1176 31.5752 52.4996 31.2976 52.6328 30.8876L53.0269 29.6748Z" fill="#F28833"/>
<path d="M65.6324 29.6748C65.9303 28.7581 67.2272 28.7581 67.5251 29.6748L67.9192 30.8876C68.0524 31.2976 68.4345 31.5752 68.8655 31.5752H70.1408C71.1047 31.5752 71.5055 32.8087 70.7257 33.3753L69.694 34.1249C69.3452 34.3783 69.1993 34.8274 69.3325 35.2374L69.7266 36.4502C70.0244 37.367 68.9752 38.1293 68.1953 37.5628L67.1636 36.8132C66.8149 36.5598 66.3426 36.5598 65.9939 36.8132L64.9622 37.5628C64.1823 38.1293 63.133 37.367 63.4309 36.4502L63.825 35.2374C63.9582 34.8274 63.8123 34.3783 63.4635 34.1249L62.4318 33.3753C61.652 32.8087 62.0527 31.5752 63.0167 31.5752H64.2919C64.723 31.5752 65.1051 31.2976 65.2383 30.8876L65.6324 29.6748Z" fill="#F28833"/>
<path d="M78.2378 29.6748C78.5357 28.7581 79.8327 28.7581 80.1306 29.6748L80.5246 30.8876C80.6579 31.2976 81.0399 31.5752 81.471 31.5752H82.7463C83.7102 31.5752 84.111 32.8087 83.3311 33.3753L82.2994 34.1249C81.9507 34.3783 81.8048 34.8274 81.938 35.2374L82.332 36.4502C82.6299 37.367 81.5806 38.1293 80.8008 37.5628L79.7691 36.8132C79.4203 36.5598 78.9481 36.5598 78.5993 36.8132L77.5676 37.5628C76.7878 38.1293 75.7385 37.367 76.0364 36.4502L76.4305 35.2374C76.5637 34.8274 76.4177 34.3783 76.069 34.1249L75.0373 33.3753C74.2574 32.8087 74.6582 31.5752 75.6222 31.5752H76.8974C77.3285 31.5752 77.7106 31.2976 77.8438 30.8876L78.2378 29.6748Z" fill="#F28833"/>
<path d="M90.9577 29.7133C91.2183 28.9111 92.3532 28.9111 92.6138 29.7133L93.0079 30.9261C93.1578 31.3873 93.5876 31.6996 94.0726 31.6996H95.3478C96.1913 31.6996 96.542 32.7789 95.8596 33.2747L94.8279 34.0243C94.4355 34.3093 94.2714 34.8146 94.4212 35.2758L94.8153 36.4887C95.0759 37.2908 94.1578 37.9579 93.4755 37.4621L92.4438 36.7126C92.0514 36.4275 91.5201 36.4275 91.1278 36.7126L90.0961 37.4621C89.4137 37.9579 88.4956 37.2908 88.7562 36.4887L89.1503 35.2758C89.3002 34.8146 89.136 34.3093 88.7436 34.0243L87.7119 33.2747C87.0296 32.7789 87.3803 31.6996 88.2237 31.6996H89.499C89.9839 31.6996 90.4138 31.3873 90.5636 30.9261L90.9577 29.7133Z" stroke="#F28833" stroke-width="0.248766"/>
<mask id="mask0_14802_13914" style="mask-type:alpha" maskUnits="userSpaceOnUse" x="84" y="26" width="8" height="15">
<rect x="84.8203" y="26.7622" width="7.04375" height="13.9309" fill="#D9D9D9"/>
</mask>
<g mask="url(#mask0_14802_13914)">
<path d="M90.8394 29.6748C91.1373 28.7581 92.4343 28.7581 92.7321 29.6748L93.1262 30.8876C93.2594 31.2976 93.6415 31.5752 94.0726 31.5752H95.3478C96.3118 31.5752 96.7126 32.8087 95.9327 33.3753L94.901 34.1249C94.5523 34.3783 94.4063 34.8274 94.5395 35.2374L94.9336 36.4502C95.2315 37.367 94.1822 38.1293 93.4024 37.5628L92.3707 36.8132C92.0219 36.5598 91.5496 36.5598 91.2009 36.8132L90.1692 37.5628C89.3893 38.1293 88.3401 37.367 88.6379 36.4502L89.032 35.2374C89.1652 34.8274 89.0193 34.3783 88.6705 34.1249L87.6388 33.3753C86.859 32.8087 87.2598 31.5752 88.2237 31.5752H89.499C89.9301 31.5752 90.3121 31.2976 90.4453 30.8876L90.8394 29.6748Z" fill="#F28833"/>
</g>
<path d="M111.645 28.437V25.5271L117.97 15.5614H120.556V19.5115H119.055L115.354 25.3764V25.497H124.513V28.437H111.645ZM119.101 31V27.5474L119.176 26.2734V15.5614H122.666V31H119.101ZM128.427 31.2186C127.885 31.2186 127.42 31.0276 127.033 30.6457C126.651 30.2638 126.462 29.8014 126.467 29.2586C126.462 28.7259 126.651 28.2711 127.033 27.8942C127.42 27.5122 127.885 27.3213 128.427 27.3213C128.94 27.3213 129.392 27.5122 129.784 27.8942C130.181 28.2711 130.382 28.7259 130.387 29.2586C130.382 29.6205 130.287 29.9497 130.101 30.2462C129.92 30.5427 129.681 30.7789 129.385 30.9548C129.093 31.1307 128.774 31.2186 128.427 31.2186ZM138.64 31.2111C137.514 31.2111 136.514 31.0075 135.64 30.6005C134.765 30.1934 134.074 29.633 133.567 28.9194C133.064 28.2058 132.803 27.3866 132.783 26.4619H136.401C136.431 27.0298 136.663 27.4871 137.095 27.8339C137.527 28.1756 138.042 28.3465 138.64 28.3465C139.107 28.3465 139.522 28.2435 139.884 28.0374C140.246 27.8314 140.53 27.5424 140.736 27.1705C140.942 26.7936 141.042 26.3614 141.037 25.8739C141.042 25.3764 140.939 24.9417 140.728 24.5698C140.522 24.1979 140.236 23.9089 139.869 23.7028C139.507 23.4918 139.09 23.3862 138.617 23.3862C138.17 23.3812 137.746 23.4792 137.343 23.6802C136.946 23.8813 136.645 24.1552 136.439 24.5019L133.145 23.8838L133.816 15.5614H143.721V18.5692H136.884L136.529 22.2103H136.62C136.876 21.7831 137.288 21.4313 137.856 21.1549C138.429 20.8734 139.08 20.7327 139.809 20.7327C140.733 20.7327 141.557 20.9488 142.281 21.381C143.01 21.8082 143.583 22.4012 144 23.1601C144.422 23.9189 144.633 24.7884 144.633 25.7684C144.633 26.8288 144.382 27.7685 143.879 28.5877C143.382 29.4069 142.683 30.0502 141.784 30.5175C140.889 30.9799 139.841 31.2111 138.64 31.2111Z" fill="#4EB7DC"/>
<defs>
<clipPath id="clip0_14802_13914">
<rect width="93.2874" height="21.455" fill="white" transform="translate(5.46484 5.30713)"/>
</clipPath>
</defs>
</svg>
