<svg width="119" height="46" viewBox="0 0 119 46" fill="none" xmlns="http://www.w3.org/2000/svg">
<g clip-path="url(#clip0_14802_13934)">
<rect x="0.859375" width="117.313" height="46" rx="3.98077" fill="white"/>
<path d="M13.5847 15.4564C13.7085 15.0756 14.2472 15.0756 14.3709 15.4564L15.1842 17.9593C15.2395 18.1296 15.3982 18.2449 15.5772 18.2449L18.209 18.2449C18.6094 18.2449 18.7758 18.7573 18.4519 18.9926L16.3228 20.5395C16.1779 20.6447 16.1173 20.8313 16.1727 21.0016L16.9859 23.5045C17.1096 23.8853 16.6738 24.202 16.3499 23.9666L14.2208 22.4197C14.0759 22.3145 13.8797 22.3145 13.7349 22.4197L11.6058 23.9666C11.2818 24.202 10.846 23.8853 10.9697 23.5045L11.783 21.0016C11.8383 20.8313 11.7777 20.6447 11.6328 20.5395L9.50373 18.9926C9.17981 18.7573 9.34628 18.2449 9.74667 18.2449L12.3784 18.2449C12.5575 18.2449 12.7162 18.1296 12.7715 17.9593L13.5847 15.4564Z" fill="#FF492C"/>
<path d="M25.159 15.4564C25.2827 15.0756 25.8214 15.0756 25.9451 15.4564L26.7584 17.9593C26.8137 18.1296 26.9724 18.2449 27.1515 18.2449L29.7832 18.2449C30.1836 18.2449 30.3501 18.7573 30.0261 18.9926L27.897 20.5395C27.7522 20.6447 27.6915 20.8313 27.7469 21.0016L28.5601 23.5045C28.6839 23.8853 28.248 24.202 27.9241 23.9666L25.795 22.4197C25.6501 22.3145 25.454 22.3145 25.3091 22.4197L23.18 23.9666C22.8561 24.202 22.4202 23.8853 22.544 23.5045L23.3572 21.0016C23.4125 20.8313 23.3519 20.6447 23.2071 20.5395L21.0779 18.9926C20.754 18.7573 20.9205 18.2449 21.3209 18.2449L23.9526 18.2449C24.1317 18.2449 24.2904 18.1296 24.3457 17.9593L25.159 15.4564Z" fill="#FF492C"/>
<path d="M36.7293 15.4564C36.853 15.0756 37.3917 15.0756 37.5154 15.4564L38.3287 17.9593C38.384 18.1296 38.5427 18.2449 38.7218 18.2449L41.3535 18.2449C41.7539 18.2449 41.9204 18.7573 41.5965 18.9926L39.4673 20.5395C39.3225 20.6447 39.2619 20.8313 39.3172 21.0016L40.1304 23.5045C40.2542 23.8853 39.8183 24.202 39.4944 23.9666L37.3653 22.4197C37.2204 22.3145 37.0243 22.3145 36.8794 22.4197L34.7503 23.9666C34.4264 24.202 33.9905 23.8853 34.1143 23.5045L34.9275 21.0016C34.9829 20.8313 34.9222 20.6447 34.7774 20.5395L32.6483 18.9926C32.3243 18.7573 32.4908 18.2449 32.8912 18.2449L35.5229 18.2449C35.702 18.2449 35.8607 18.1296 35.916 17.9593L36.7293 15.4564Z" fill="#FF492C"/>
<path d="M48.3035 15.4564C48.4272 15.0756 48.9659 15.0756 49.0897 15.4564L49.9029 17.9593C49.9582 18.1296 50.1169 18.2449 50.296 18.2449L52.9277 18.2449C53.3281 18.2449 53.4946 18.7573 53.1707 18.9926L51.0416 20.5395C50.8967 20.6447 50.8361 20.8313 50.8914 21.0016L51.7047 23.5045C51.8284 23.8853 51.3926 24.202 51.0686 23.9666L48.9395 22.4197C48.7947 22.3145 48.5985 22.3145 48.4536 22.4197L46.3245 23.9666C46.0006 24.202 45.5648 23.8853 45.6885 23.5045L46.5017 21.0016C46.5571 20.8313 46.4965 20.6447 46.3516 20.5395L44.2225 18.9926C43.8986 18.7573 44.065 18.2449 44.4654 18.2449L47.0972 18.2449C47.2762 18.2449 47.4349 18.1296 47.4902 17.9593L48.3035 15.4564Z" fill="#FF492C"/>
<path d="M59.976 15.4883C60.0688 15.2027 60.4728 15.2027 60.5656 15.4883L61.3789 17.9912C61.448 18.2041 61.6464 18.3482 61.8702 18.3482L64.5019 18.3482C64.8022 18.3482 64.9271 18.7325 64.6842 18.909L62.555 20.4559C62.374 20.5875 62.2982 20.8206 62.3674 21.0335L63.1806 23.5364C63.2734 23.822 62.9465 24.0595 62.7036 23.883L60.5745 22.3361C60.3934 22.2046 60.1482 22.2046 59.9671 22.3361L57.838 23.883C57.5951 24.0595 57.2682 23.822 57.361 23.5364L58.1742 21.0335C58.2434 20.8206 58.1676 20.5875 57.9865 20.4559L55.8574 18.909C55.6145 18.7325 55.7393 18.3482 56.0396 18.3482L58.6714 18.3482C58.8952 18.3482 59.0936 18.2041 59.1627 17.9912L59.976 15.4883Z" stroke="#FF3722" stroke-width="0.206658"/>
<mask id="mask0_14802_13934" style="mask-type:alpha" maskUnits="userSpaceOnUse" x="54" y="14" width="7" height="12">
<rect x="54.4844" y="14.2466" width="5.78642" height="11.5728" fill="#D9D9D9"/>
</mask>
<g mask="url(#mask0_14802_13934)">
<path d="M59.8777 15.4564C60.0014 15.0756 60.5402 15.0756 60.6639 15.4564L61.4771 17.9593C61.5325 18.1296 61.6912 18.2449 61.8702 18.2449L64.5019 18.2449C64.9023 18.2449 65.0688 18.7573 64.7449 18.9926L62.6158 20.5395C62.4709 20.6447 62.4103 20.8313 62.4656 21.0016L63.2789 23.5045C63.4026 23.8853 62.9668 24.202 62.6429 23.9666L60.5137 22.4197C60.3689 22.3145 60.1727 22.3145 60.0279 22.4197L57.8987 23.9666C57.5748 24.202 57.139 23.8853 57.2627 23.5045L58.076 21.0016C58.1313 20.8313 58.0707 20.6447 57.9258 20.5395L55.7967 18.9926C55.4728 18.7573 55.6392 18.2449 56.0396 18.2449L58.6714 18.2449C58.8504 18.2449 59.0091 18.1296 59.0645 17.9593L59.8777 15.4564Z" fill="#FF492C"/>
</g>
<path d="M8.76684 31.6665V27.2256H10.1351C10.4155 27.2256 10.657 27.2806 10.8593 27.3904C11.0617 27.5003 11.2171 27.6528 11.3255 27.848C11.434 28.0417 11.4882 28.2672 11.4882 28.5245C11.4882 28.7789 11.434 29.003 11.3255 29.1967C11.2171 29.389 11.0617 29.5393 10.8593 29.6477C10.6584 29.7562 10.4177 29.8104 10.1373 29.8104H8.91212V29.5567H10.1308C10.3592 29.5567 10.5543 29.514 10.7162 29.4287C10.8781 29.3434 11.0024 29.2242 11.0892 29.0709C11.1759 28.9163 11.2193 28.7341 11.2193 28.5245C11.2193 28.3135 11.1759 28.1299 11.0892 27.9737C11.0024 27.8162 10.8774 27.694 10.7141 27.6073C10.5521 27.5205 10.357 27.4772 10.1286 27.4772H9.03789V31.6665H8.76684ZM10.5905 29.6542L11.6833 31.6665H11.3711L10.2847 29.6542H10.5905ZM13.7411 31.7359C13.4404 31.7359 13.1788 31.6614 12.9562 31.5125C12.7335 31.3637 12.5615 31.1598 12.4401 30.9011C12.3187 30.6423 12.2579 30.3474 12.2579 30.0164C12.2579 29.6839 12.3187 29.3875 12.4401 29.1273C12.563 28.8671 12.7314 28.6618 12.9453 28.5115C13.1593 28.3612 13.4036 28.286 13.6782 28.286C13.8647 28.286 14.0411 28.3236 14.2073 28.3987C14.375 28.4725 14.5225 28.5794 14.6497 28.7197C14.7783 28.8599 14.8788 29.029 14.9511 29.2271C15.0248 29.4251 15.0617 29.6477 15.0617 29.8949V30.0597H12.4249V29.819H14.7971C14.7971 29.5776 14.748 29.3601 14.6497 29.1664C14.5514 28.9726 14.4177 28.8187 14.2485 28.7045C14.0794 28.5903 13.8893 28.5332 13.6782 28.5332C13.4571 28.5332 13.2597 28.5953 13.0863 28.7197C12.9142 28.8425 12.7776 29.0088 12.6764 29.2184C12.5767 29.428 12.5247 29.6622 12.5203 29.921V30.0294C12.5203 30.3069 12.5687 30.5563 12.6656 30.7775C12.7639 30.9972 12.9041 31.1714 13.0863 31.3C13.2684 31.4273 13.4867 31.4909 13.7411 31.4909C13.9233 31.4909 14.0787 31.4605 14.2073 31.3998C14.3374 31.3376 14.4437 31.2625 14.5261 31.1743C14.6085 31.0861 14.6706 31.0008 14.7126 30.9184L14.9533 31.016C14.9027 31.1273 14.8239 31.2386 14.7169 31.3499C14.6114 31.4598 14.4769 31.5516 14.3136 31.6253C14.1517 31.699 13.9609 31.7359 13.7411 31.7359ZM16.8549 31.7381C16.6627 31.7381 16.4863 31.6998 16.3258 31.6231C16.1668 31.5465 16.0389 31.4345 15.942 31.287C15.8466 31.1396 15.7989 30.9603 15.7989 30.7493C15.7989 30.6105 15.8235 30.4883 15.8726 30.3828C15.9218 30.2773 15.9977 30.1862 16.1003 30.1096C16.203 30.033 16.3345 29.9701 16.495 29.921C16.6554 29.8704 16.847 29.8313 17.0696 29.8039C17.2387 29.7836 17.3898 29.7641 17.5228 29.7453C17.6558 29.7251 17.7599 29.694 17.835 29.6521C17.9117 29.6102 17.95 29.5465 17.95 29.4613V29.3225C17.95 29.0796 17.8733 28.8866 17.7201 28.7435C17.5669 28.6004 17.3558 28.5288 17.0869 28.5288C16.8484 28.5288 16.6475 28.5816 16.4841 28.6871C16.3222 28.7912 16.2087 28.9257 16.1437 29.0905L15.8943 28.9972C15.9579 28.8382 16.0497 28.7059 16.1697 28.6004C16.2911 28.4949 16.4299 28.4161 16.586 28.3641C16.7436 28.312 16.9084 28.286 17.0804 28.286C17.2293 28.286 17.371 28.3069 17.5054 28.3489C17.6413 28.3908 17.762 28.4544 17.8676 28.5397C17.9745 28.625 18.0591 28.7341 18.1213 28.8671C18.1834 28.9987 18.2145 29.1562 18.2145 29.3398V31.6665H17.95V31.0659H17.9304C17.8726 31.1902 17.7931 31.3037 17.6919 31.4063C17.5922 31.5075 17.4715 31.5884 17.3298 31.6492C17.1896 31.7084 17.0313 31.7381 16.8549 31.7381ZM16.8809 31.493C17.0891 31.493 17.2734 31.4424 17.4339 31.3412C17.5958 31.2386 17.7223 31.0984 17.8134 30.9206C17.9044 30.7428 17.95 30.5411 17.95 30.3156V29.8255C17.9167 29.8545 17.8683 29.8805 17.8047 29.9036C17.7425 29.9253 17.6717 29.9448 17.5922 29.9622C17.5141 29.9781 17.4317 29.9925 17.345 30.0055C17.2597 30.0171 17.1766 30.0279 17.0956 30.038C16.8528 30.067 16.6547 30.1118 16.5015 30.1725C16.3497 30.2318 16.2384 30.3098 16.1675 30.4067C16.0982 30.5035 16.0635 30.6206 16.0635 30.7579C16.0635 30.9849 16.1415 31.1642 16.2976 31.2957C16.4538 31.4273 16.6482 31.493 16.8809 31.493ZM20.4664 31.7359C20.1989 31.7359 19.9655 31.6622 19.766 31.5147C19.5665 31.3673 19.4118 31.1642 19.302 30.9054C19.1935 30.6452 19.1393 30.3467 19.1393 30.0099C19.1393 29.6759 19.1943 29.3796 19.3041 29.1208C19.4154 28.8606 19.5708 28.6568 19.7703 28.5093C19.9698 28.3604 20.2026 28.286 20.4685 28.286C20.6594 28.286 20.8249 28.3229 20.9651 28.3966C21.1068 28.4689 21.2253 28.565 21.3207 28.685C21.4176 28.805 21.4913 28.9365 21.5419 29.0796H21.5679V27.2256H21.8303V31.6665H21.5744V30.9401H21.5419C21.4884 31.0832 21.414 31.2155 21.3185 31.3369C21.2231 31.4569 21.1046 31.5537 20.9629 31.6275C20.8213 31.6998 20.6557 31.7359 20.4664 31.7359ZM20.4902 31.4909C20.7157 31.4909 20.9087 31.4265 21.0692 31.2979C21.2311 31.1678 21.3547 30.9914 21.44 30.7688C21.5267 30.5447 21.5701 30.291 21.5701 30.0077C21.5701 29.7244 21.5267 29.4721 21.44 29.2509C21.3547 29.0283 21.2311 28.8534 21.0692 28.7262C20.9087 28.5975 20.7157 28.5332 20.4902 28.5332C20.2618 28.5332 20.0659 28.5982 19.9026 28.7283C19.7407 28.857 19.6164 29.0326 19.5296 29.2553C19.4443 29.4779 19.4017 29.7287 19.4017 30.0077C19.4017 30.2867 19.4443 30.5382 19.5296 30.7623C19.6164 30.9864 19.7407 31.1642 19.9026 31.2957C20.0659 31.4258 20.2618 31.4909 20.4902 31.4909ZM25.9762 31.7359C25.7016 31.7359 25.4573 31.6622 25.2433 31.5147C25.0294 31.3658 24.861 31.1613 24.7381 30.9011C24.6152 30.6409 24.5538 30.3445 24.5538 30.012C24.5538 29.6781 24.6152 29.3817 24.7381 29.123C24.861 28.8628 25.0294 28.6582 25.2433 28.5093C25.4573 28.3604 25.7016 28.286 25.9762 28.286C26.2509 28.286 26.4952 28.3604 26.7092 28.5093C26.9231 28.6582 27.0915 28.8628 27.2144 29.123C27.3373 29.3832 27.3987 29.6795 27.3987 30.012C27.3987 30.3445 27.3373 30.6409 27.2144 30.9011C27.0915 31.1613 26.9231 31.3658 26.7092 31.5147C26.4952 31.6622 26.2509 31.7359 25.9762 31.7359ZM25.9762 31.4909C26.209 31.4909 26.4121 31.4251 26.5856 31.2935C26.7605 31.162 26.8956 30.9842 26.991 30.7601C27.0879 30.5361 27.1363 30.2867 27.1363 30.012C27.1363 29.7374 27.0879 29.4887 26.991 29.2661C26.8942 29.042 26.759 28.8642 26.5856 28.7327C26.4121 28.5997 26.209 28.5332 25.9762 28.5332C25.7435 28.5332 25.5404 28.5997 25.3669 28.7327C25.1935 28.8642 25.0583 29.042 24.9614 29.2661C24.8646 29.4887 24.8162 29.7374 24.8162 30.012C24.8162 30.2867 24.8639 30.5361 24.9593 30.7601C25.0561 30.9842 25.1913 31.162 25.3648 31.2935C25.5397 31.4251 25.7435 31.4909 25.9762 31.4909ZM30.4437 30.4847V28.3359H30.7082V31.6665H30.4437V31.1266H30.422C30.3439 31.2986 30.2174 31.4388 30.0425 31.5472C29.869 31.6557 29.6638 31.7099 29.4267 31.7099C29.2084 31.7099 29.0154 31.6622 28.8477 31.5668C28.68 31.4713 28.5485 31.3362 28.4531 31.1613C28.3577 30.9849 28.31 30.7753 28.31 30.5324V28.3359H28.5745V30.5216C28.5745 30.7991 28.6584 31.0239 28.826 31.196C28.9952 31.3665 29.2135 31.4518 29.4809 31.4518C29.6544 31.4518 29.8141 31.4128 29.9601 31.3347C30.1061 31.2567 30.2232 31.1454 30.3114 31.0008C30.3996 30.8548 30.4437 30.6828 30.4437 30.4847ZM31.8043 31.6665V28.3359H32.0624V28.8563H32.0862C32.1585 28.6857 32.2806 28.5491 32.4527 28.4464C32.6247 28.3424 32.8206 28.2903 33.0403 28.2903C33.0634 28.2903 33.0866 28.2903 33.1097 28.2903C33.1328 28.2903 33.1545 28.291 33.1747 28.2925V28.5592C33.1574 28.5578 33.1364 28.5556 33.1119 28.5527C33.0887 28.5484 33.0598 28.5462 33.0251 28.5462C32.8401 28.5462 32.6753 28.5859 32.5307 28.6655C32.3876 28.745 32.2749 28.8548 32.1925 28.9951C32.1101 29.1338 32.0689 29.2928 32.0689 29.4721V31.6665H31.8043ZM35.6028 31.6665V28.3359H35.8608V28.8563H35.8847C35.957 28.6857 36.0791 28.5491 36.2511 28.4464C36.4232 28.3424 36.619 28.2903 36.8388 28.2903C36.8619 28.2903 36.885 28.2903 36.9082 28.2903C36.9313 28.2903 36.953 28.291 36.9732 28.2925V28.5592C36.9559 28.5578 36.9349 28.5556 36.9103 28.5527C36.8872 28.5484 36.8583 28.5462 36.8236 28.5462C36.6386 28.5462 36.4738 28.5859 36.3292 28.6655C36.1861 28.745 36.0733 28.8548 35.9909 28.9951C35.9085 29.1338 35.8673 29.2928 35.8673 29.4721V31.6665H35.6028ZM38.8814 31.7359C38.5807 31.7359 38.3191 31.6614 38.0964 31.5125C37.8738 31.3637 37.7018 31.1598 37.5804 30.9011C37.4589 30.6423 37.3982 30.3474 37.3982 30.0164C37.3982 29.6839 37.4589 29.3875 37.5804 29.1273C37.7032 28.8671 37.8717 28.6618 38.0856 28.5115C38.2995 28.3612 38.5439 28.286 38.8185 28.286C39.005 28.286 39.1814 28.3236 39.3476 28.3987C39.5153 28.4725 39.6627 28.5794 39.79 28.7197C39.9186 28.8599 40.0191 29.029 40.0914 29.2271C40.1651 29.4251 40.2019 29.6477 40.2019 29.8949V30.0597H37.5652V29.819H39.9374C39.9374 29.5776 39.8883 29.3601 39.79 29.1664C39.6917 28.9726 39.5579 28.8187 39.3888 28.7045C39.2197 28.5903 39.0296 28.5332 38.8185 28.5332C38.5973 28.5332 38.4 28.5953 38.2265 28.7197C38.0545 28.8425 37.9179 29.0088 37.8167 29.2184C37.717 29.428 37.6649 29.6622 37.6606 29.921V30.0294C37.6606 30.3069 37.709 30.5563 37.8059 30.7775C37.9042 30.9972 38.0444 31.1714 38.2265 31.3C38.4087 31.4273 38.627 31.4909 38.8814 31.4909C39.0635 31.4909 39.2189 31.4605 39.3476 31.3998C39.4777 31.3376 39.584 31.2625 39.6664 31.1743C39.7488 31.0861 39.8109 31.0008 39.8528 30.9184L40.0935 31.016C40.0429 31.1273 39.9641 31.2386 39.8572 31.3499C39.7516 31.4598 39.6172 31.5516 39.4539 31.6253C39.2919 31.699 39.1011 31.7359 38.8814 31.7359ZM43.4464 28.3359L42.2429 31.6665H41.9437L40.7402 28.3359H41.0243L42.0825 31.3261H42.1042L43.1623 28.3359H43.4464ZM44.2861 31.6665V28.3359H44.5485V31.6665H44.2861ZM44.4184 27.7461C44.3606 27.7461 44.31 27.7258 44.2666 27.6853C44.2247 27.6449 44.2037 27.5957 44.2037 27.5379C44.2037 27.4801 44.2247 27.4309 44.2666 27.3904C44.3085 27.35 44.3591 27.3297 44.4184 27.3297C44.4762 27.3297 44.5261 27.35 44.568 27.3904C44.6114 27.4309 44.633 27.4801 44.633 27.5379C44.633 27.5957 44.6121 27.6449 44.5702 27.6853C44.5282 27.7258 44.4776 27.7461 44.4184 27.7461ZM46.9554 31.7359C46.6547 31.7359 46.3931 31.6614 46.1704 31.5125C45.9478 31.3637 45.7758 31.1598 45.6544 30.9011C45.5329 30.6423 45.4722 30.3474 45.4722 30.0164C45.4722 29.6839 45.5329 29.3875 45.6544 29.1273C45.7772 28.8671 45.9456 28.6618 46.1596 28.5115C46.3735 28.3612 46.6178 28.286 46.8925 28.286C47.079 28.286 47.2553 28.3236 47.4216 28.3987C47.5893 28.4725 47.7367 28.5794 47.8639 28.7197C47.9926 28.8599 48.0931 29.029 48.1653 29.2271C48.2391 29.4251 48.2759 29.6477 48.2759 29.8949V30.0597H45.6392V29.819H48.0114C48.0114 29.5776 47.9622 29.3601 47.8639 29.1664C47.7656 28.9726 47.6319 28.8187 47.4628 28.7045C47.2937 28.5903 47.1036 28.5332 46.8925 28.5332C46.6713 28.5332 46.474 28.5953 46.3005 28.7197C46.1285 28.8425 45.9919 29.0088 45.8907 29.2184C45.791 29.428 45.7389 29.6622 45.7346 29.921V30.0294C45.7346 30.3069 45.783 30.5563 45.8799 30.7775C45.9782 30.9972 46.1184 31.1714 46.3005 31.3C46.4827 31.4273 46.701 31.4909 46.9554 31.4909C47.1375 31.4909 47.2929 31.4605 47.4216 31.3998C47.5517 31.3376 47.6579 31.2625 47.7403 31.1743C47.8227 31.0861 47.8849 31.0008 47.9268 30.9184L48.1675 31.016C48.1169 31.1273 48.0381 31.2386 47.9312 31.3499C47.8256 31.4598 47.6912 31.5516 47.5278 31.6253C47.3659 31.699 47.1751 31.7359 46.9554 31.7359ZM49.9131 31.6665L48.9156 28.3359H49.1932L50.0518 31.2784H50.0757L50.9365 28.3359H51.2119L52.0706 31.2762H52.0923L52.951 28.3359H53.2285L52.2311 31.6665H51.9362L51.0862 28.7674H51.058L50.208 31.6665H49.9131ZM56.1689 29.0536L55.9238 29.1186C55.8848 28.9972 55.8291 28.8924 55.7569 28.8042C55.6846 28.7161 55.5935 28.6481 55.4837 28.6004C55.3752 28.5513 55.2451 28.5267 55.0933 28.5267C54.849 28.5267 54.6488 28.5874 54.4927 28.7088C54.338 28.8303 54.2607 28.9885 54.2607 29.1837C54.2607 29.3427 54.3134 29.4743 54.419 29.5783C54.5245 29.681 54.6857 29.759 54.9025 29.8125L55.4143 29.9405C55.6774 30.0055 55.8754 30.111 56.0084 30.2571C56.1414 30.4016 56.2079 30.5816 56.2079 30.797C56.2079 30.9806 56.158 31.1432 56.0583 31.2849C55.9585 31.4265 55.8205 31.5371 55.6441 31.6166C55.4692 31.6961 55.2654 31.7359 55.0326 31.7359C54.7218 31.7359 54.4667 31.6636 54.2672 31.5191C54.0677 31.373 53.9398 31.1642 53.8834 30.8924L54.1371 30.8273C54.1848 31.0442 54.2838 31.2097 54.4342 31.3239C54.5859 31.4367 54.7847 31.493 55.0305 31.493C55.3022 31.493 55.5212 31.4287 55.6875 31.3C55.8552 31.1714 55.939 31.0066 55.939 30.8057C55.939 30.6524 55.8899 30.523 55.7916 30.4175C55.6933 30.312 55.5444 30.2346 55.3449 30.1855L54.8136 30.0554C54.5418 29.9889 54.338 29.8826 54.2021 29.7366C54.0662 29.5892 53.9983 29.4078 53.9983 29.1924C53.9983 29.0131 54.0453 28.8556 54.1393 28.7197C54.2332 28.5838 54.3626 28.4775 54.5274 28.4009C54.6922 28.3243 54.8808 28.286 55.0933 28.286C55.3752 28.286 55.6051 28.3525 55.7829 28.4855C55.9607 28.6185 56.0894 28.8078 56.1689 29.0536ZM60.079 31.7359C59.8043 31.7359 59.56 31.6622 59.3461 31.5147C59.1321 31.3658 58.9637 31.1613 58.8409 30.9011C58.718 30.6409 58.6565 30.3445 58.6565 30.012C58.6565 29.6781 58.718 29.3817 58.8409 29.123C58.9637 28.8628 59.1321 28.6582 59.3461 28.5093C59.56 28.3604 59.8043 28.286 60.079 28.286C60.3537 28.286 60.598 28.3604 60.8119 28.5093C61.0259 28.6582 61.1943 28.8628 61.3172 29.123C61.44 29.3832 61.5015 29.6795 61.5015 30.012C61.5015 30.3445 61.44 30.6409 61.3172 30.9011C61.1943 31.1613 61.0259 31.3658 60.8119 31.5147C60.598 31.6622 60.3537 31.7359 60.079 31.7359ZM60.079 31.4909C60.3117 31.4909 60.5149 31.4251 60.6883 31.2935C60.8632 31.162 60.9984 30.9842 61.0938 30.7601C61.1907 30.5361 61.2391 30.2867 61.2391 30.012C61.2391 29.7374 61.1907 29.4887 61.0938 29.2661C60.997 29.042 60.8618 28.8642 60.6883 28.7327C60.5149 28.5997 60.3117 28.5332 60.079 28.5332C59.8463 28.5332 59.6432 28.5997 59.4697 28.7327C59.2962 28.8642 59.1611 29.042 59.0642 29.2661C58.9673 29.4887 58.9189 29.7374 58.9189 30.012C58.9189 30.2867 58.9666 30.5361 59.062 30.7601C59.1589 30.9842 59.2941 31.162 59.4675 31.2935C59.6424 31.4251 59.8463 31.4909 60.079 31.4909ZM62.6773 29.5068V31.6665H62.4127V28.3359H62.6708V28.8628H62.6968C62.7749 28.6908 62.8999 28.5527 63.0719 28.4486C63.2439 28.3445 63.4485 28.2925 63.6856 28.2925C63.9096 28.2925 64.1062 28.3402 64.2754 28.4356C64.446 28.531 64.579 28.6669 64.6744 28.8433C64.7712 29.0182 64.8196 29.2271 64.8196 29.4699V31.6665H64.5551V29.4808C64.5551 29.1974 64.4705 28.9698 64.3014 28.7977C64.1337 28.6243 63.9118 28.5375 63.6357 28.5375C63.4507 28.5375 63.2859 28.578 63.1413 28.659C62.9968 28.7399 62.8833 28.8534 62.8009 28.9994C62.7185 29.1439 62.6773 29.3131 62.6773 29.5068Z" fill="#6A6A6A"/>
<path d="M70.457 0H118.173V46H70.457L82.5883 24.3246L70.457 0Z" fill="#FF3A22"/>
<g clip-path="url(#clip1_14802_13934)">
<path d="M101.337 28.0413C102.11 29.3824 102.874 30.7083 103.638 32.0327C100.257 34.6215 94.9956 34.9344 91.101 31.9532C86.6192 28.5197 85.8826 22.6612 88.2821 18.444C91.0418 13.5933 96.2063 12.5205 99.5314 13.3071C99.4415 13.5025 97.45 17.6341 97.45 17.6341C97.45 17.6341 97.2925 17.6444 97.2035 17.6461C96.2206 17.6878 95.4886 17.9165 94.704 18.3221C93.8432 18.7713 93.1055 19.4245 92.5554 20.2246C92.0053 21.0247 91.6595 21.9474 91.5483 22.912C91.4323 23.8902 91.5676 24.8818 91.9414 25.7933C92.2574 26.5638 92.7044 27.2481 93.3037 27.8259C94.2231 28.713 95.3171 29.2623 96.5852 29.4442C97.7861 29.6166 98.941 29.4459 100.023 28.9021C100.429 28.6984 100.775 28.4734 101.178 28.1649C101.23 28.1316 101.275 28.0893 101.337 28.0413Z" fill="white"/>
<path d="M101.347 16.2777C101.151 16.0847 100.969 15.9065 100.788 15.7273C100.68 15.6204 100.576 15.5092 100.465 15.4049C100.425 15.3673 100.379 15.3159 100.379 15.3159C100.379 15.3159 100.417 15.236 100.433 15.2032C100.644 14.7783 100.976 14.4678 101.37 14.2207C101.805 13.9454 102.312 13.8053 102.827 13.8182C103.486 13.8311 104.098 13.9952 104.615 14.437C104.997 14.7631 105.192 15.1768 105.227 15.6707C105.284 16.5038 104.939 17.1419 104.255 17.5872C103.853 17.8492 103.419 18.0518 102.984 18.2917C102.744 18.4241 102.539 18.5405 102.304 18.7801C102.098 19.0205 102.088 19.2472 102.088 19.2472L105.204 19.2432V20.6311H100.394C100.394 20.6311 100.394 20.5363 100.394 20.4969C100.376 19.8149 100.455 19.1731 100.768 18.5537C101.055 17.9854 101.501 17.5694 102.038 17.2491C102.451 17.0023 102.886 16.7923 103.3 16.5466C103.555 16.3952 103.736 16.1732 103.734 15.8511C103.734 15.5747 103.533 15.3291 103.246 15.2524C102.568 15.0697 101.879 15.3613 101.52 15.9812C101.468 16.0717 101.415 16.1617 101.347 16.2777Z" fill="white"/>
<path d="M107.372 26.5684L104.746 22.0332H99.5494L96.9062 26.6153H102.141L104.725 31.129L107.372 26.5684Z" fill="white"/>
</g>
</g>
<defs>
<clipPath id="clip0_14802_13934">
<rect x="0.859375" width="117.313" height="46" rx="3.98077" fill="white"/>
</clipPath>
<clipPath id="clip1_14802_13934">
<rect width="20.435" height="21.0087" fill="white" transform="translate(86.9375 13.0752)"/>
</clipPath>
</defs>
</svg>
