<svg width="59" height="100" viewBox="0 0 59 100" fill="none" xmlns="http://www.w3.org/2000/svg">
<rect width="59" height="100" fill="#1A1A1A"/>
<path d="M-1030 -13617C-1030 -13618.1 -1029.1 -13619 -1028 -13619H5128C5129.1 -13619 5130 -13618.1 5130 -13617V437C5130 438.104 5129.1 439 5128 439H-1028C-1029.1 439 -1030 438.105 -1030 437V-13617Z" fill="#444444"/>
<path d="M-1028 -13618H5128V-13620H-1028V-13618ZM5129 -13617V437H5131V-13617H5129ZM5128 438H-1028V440H5128V438ZM-1029 437V-13617H-1031V437H-1029ZM-1028 438C-1028.55 438 -1029 437.552 -1029 437H-1031C-1031 438.657 -1029.66 440 -1028 440V438ZM5129 437C5129 437.552 5128.55 438 5128 438V440C5129.66 440 5131 438.657 5131 437H5129ZM5128 -13618C5128.55 -13618 5129 -13617.6 5129 -13617H5131C5131 -13618.7 5129.66 -13620 5128 -13620V-13618ZM-1028 -13620C-1029.66 -13620 -1031 -13618.7 -1031 -13617H-1029C-1029 -13617.6 -1028.55 -13618 -1028 -13618V-13620Z" fill="white" fill-opacity="0.1"/>
<g clip-path="url(#clip0_14024_31627)">
<rect width="1920" height="13841" transform="translate(-930 -13502)" fill="white"/>
<mask id="path-3-inside-1_14024_31627" fill="white">
<path d="M-930 -509H990V251H-930V-509Z"/>
</mask>
<path d="M-930 -508H990V-510H-930V-508Z" fill="#F2F4F7" mask="url(#path-3-inside-1_14024_31627)"/>
<mask id="path-5-inside-2_14024_31627" fill="white">
<path d="M-610 -25H670V91H-610V-25Z"/>
</mask>
<path d="M-610 -24H670V-26H-610V-24Z" fill="#F2F4F7" mask="url(#path-5-inside-2_14024_31627)"/>
<g clip-path="url(#clip1_14024_31627)">
<path d="M0.34375 0V84.2067L29.6693 100L58.9948 84.2067V0H0.34375Z" fill="#002171"/>
<path d="M55.6735 89.3626H55.1002V90.617H54.576V89.3626H54.0078V88.8574H55.6742V89.3626H55.6735ZM58.0019 90.617H57.4778V89.8919L57.0811 90.5979H56.8458L56.4492 89.8919V90.617H55.925V88.8574H56.3707L56.9638 89.9212L57.5569 88.8574H58.0027V90.617H58.0019Z" fill="#002171"/>
<path d="M58.9948 0H0.34375V58.651H58.9948V0Z" fill="#FF1628"/>
<path d="M14.9373 9.06369V9.85768C14.9373 11.3284 14.4667 12.5197 13.5253 13.431C12.584 14.343 11.3633 14.799 9.87794 14.799C8.28923 14.799 6.96592 14.2844 5.92193 13.255C4.87794 12.2111 4.36328 10.9464 4.36328 9.46105C4.36328 7.97571 4.87794 6.69639 5.90727 5.6524C6.95126 4.60841 8.23058 4.09375 9.75991 4.09375C11.6866 4.09375 13.3633 5.0351 14.2452 6.49111L12.5099 7.49111C12.0246 6.65313 10.9659 6.06442 9.74525 6.06442C8.75991 6.06442 7.95126 6.38774 7.31856 7.0351C6.6866 7.6678 6.37721 8.47645 6.37721 9.46179C6.37721 10.4471 6.70052 11.2411 7.33322 11.8738C7.98058 12.5058 8.83322 12.8152 9.89187 12.8152C11.4652 12.8152 12.5238 12.0798 12.8919 10.8591H9.77457V9.06516H14.9366L14.9373 9.06369Z" fill="white"/>
<path d="M17.9778 8.50577C18.3129 7.56442 19.1516 7.09375 20.1017 7.09375V9.21179C19.557 9.13847 19.0541 9.25577 18.6208 9.56516C18.1875 9.87381 17.9778 10.3738 17.9778 11.0798V14.5945H16.1758V7.24111H17.9778V8.50577Z" fill="white"/>
<path d="M23.1423 11.6972C23.3923 12.6239 24.0837 13.0799 25.2156 13.0799C25.9363 13.0799 26.495 12.8299 26.863 12.3445L28.3923 13.2265C27.6716 14.2705 26.5983 14.7998 25.1863 14.7998C23.9656 14.7998 22.995 14.4318 22.2596 13.6972C21.5243 12.9618 21.1562 12.0352 21.1562 10.9179C21.1562 9.80055 21.5243 8.88853 22.245 8.15319C22.9656 7.40319 23.907 7.03516 25.0389 7.03516C26.1123 7.03516 27.0096 7.40319 27.701 8.15319C28.407 8.90319 28.7596 9.81521 28.7596 10.9179C28.7596 11.1679 28.7303 11.4179 28.6863 11.6972H23.1423ZM26.863 10.2265C26.6423 9.22651 25.907 8.74117 25.0397 8.74117C24.025 8.74117 23.3337 9.28516 23.113 10.2265H26.863Z" fill="white"/>
<path d="M35.5996 7.24092H37.4969V14.5943H35.5996V13.7263C35.0263 14.4469 34.2323 14.7996 33.2022 14.7996C32.1722 14.7996 31.3789 14.4315 30.6729 13.6815C29.9815 12.9315 29.6289 12.0049 29.6289 10.9169C29.6289 9.8289 29.9823 8.91688 30.6729 8.16688C31.3789 7.41688 32.2169 7.03418 33.2022 7.03418C34.1876 7.03418 35.0255 7.38682 35.5996 8.10749V7.24019V7.24092ZM33.5556 12.9909C34.1443 12.9909 34.6289 12.7996 35.0116 12.4176C35.4082 12.0203 35.5996 11.5203 35.5996 10.9176C35.5996 10.315 35.4082 9.81497 35.0116 9.43227C34.6289 9.03491 34.1443 8.8443 33.5556 8.8443C32.9669 8.8443 32.4823 9.03565 32.0996 9.43227C31.7169 9.81497 31.5263 10.315 31.5263 10.9176C31.5263 11.5203 31.7176 12.0203 32.0996 12.4176C32.4815 12.7996 32.9669 12.9909 33.5556 12.9909Z" fill="white"/>
<path d="M43.7176 9.06409H42.0556V12.1227C42.0556 12.9167 42.6289 12.9314 43.7176 12.8727V14.5934C41.1142 14.8874 40.1582 14.1374 40.1582 12.1227V9.06409H38.8789V7.24078H40.1582V5.75544L42.0556 5.18213V7.24078H43.7176V9.06409Z" fill="white"/>
<path d="M9.55673 17.2285C10.5421 17.2285 11.38 17.5665 12.0567 18.2285C12.7334 18.8905 13.0714 19.7139 13.0714 20.6845C13.0714 21.6552 12.7334 22.4785 12.0567 23.1405C11.38 23.8026 10.5421 24.1405 9.55673 24.1405H7.74808V27.5232H5.71875V17.2285H9.55746H9.55673ZM9.55673 22.2432C10.424 22.2432 11.0567 21.5665 11.0567 20.6845C11.0567 19.8026 10.4248 19.1259 9.55673 19.1259H7.74808V22.2432H9.55673Z" fill="white"/>
<path d="M16.3505 17.3247H14.4531V27.5241H16.3505V17.3247Z" fill="white"/>
<path d="M23.9668 20.1696H25.8641V27.5223H23.9668V26.6542C23.3935 27.3749 22.5995 27.7276 21.5694 27.7276C20.5393 27.7276 19.7461 27.3595 19.0401 26.6103C18.3487 25.8603 17.9961 24.9336 17.9961 23.8456C17.9961 22.7576 18.3487 21.8456 19.0401 21.0956C19.7461 20.3456 20.5841 19.9629 21.5694 19.9629C22.5547 19.9629 23.3927 20.3155 23.9668 21.0362V20.1689V20.1696ZM21.9228 25.9196C22.5115 25.9196 22.9961 25.7283 23.3788 25.3463C23.7754 24.949 23.9668 24.449 23.9668 23.8463C23.9668 23.2437 23.7754 22.7437 23.3788 22.361C22.9961 21.9636 22.5115 21.773 21.9228 21.773C21.3341 21.773 20.8495 21.9644 20.4668 22.361C20.0841 22.7437 19.8935 23.2437 19.8935 23.8463C19.8935 24.449 20.0848 24.949 20.4668 25.3463C20.8487 25.7283 21.3348 25.9196 21.9228 25.9196Z" fill="white"/>
<path d="M28.5995 26.6115C27.8641 25.8615 27.4961 24.9494 27.4961 23.8468C27.4961 22.7442 27.8641 21.8321 28.5995 21.0821C29.3495 20.3321 30.2762 19.9648 31.3788 19.9648C32.8055 19.9648 34.0701 20.7002 34.6728 21.8622L33.0408 22.8182C32.7468 22.2156 32.1141 21.8329 31.3641 21.8329C30.2322 21.8329 29.3935 22.6709 29.3935 23.8475C29.3935 24.4209 29.5848 24.9062 29.9521 25.2889C30.3194 25.6562 30.7901 25.8475 31.3641 25.8475C32.1288 25.8475 32.7615 25.4795 33.0555 24.8769L34.7028 25.8182C34.0562 26.9802 32.8055 27.7302 31.3795 27.7302C30.2769 27.7302 29.3502 27.3622 28.6002 26.6122" fill="white"/>
<path d="M37.7361 24.6264C37.9861 25.5531 38.6774 26.0091 39.8094 26.0091C40.5301 26.0091 41.0887 25.7591 41.4567 25.2737L42.9861 26.1557C42.2654 27.1997 41.1921 27.729 39.7801 27.729C38.5594 27.729 37.5887 27.361 36.8534 26.6264C36.118 25.891 35.75 24.9644 35.75 23.8471C35.75 22.7298 36.118 21.8177 36.8387 21.0824C37.5594 20.3324 38.5007 19.9644 39.6327 19.9644C40.706 19.9644 41.6034 20.3317 42.2947 21.0824C43.0007 21.8324 43.3534 22.7444 43.3534 23.8471C43.3534 24.0971 43.324 24.3471 43.2801 24.6264H37.7361ZM41.4567 23.1557C41.2361 22.1557 40.5007 21.6704 39.6334 21.6704C38.6188 21.6704 37.9274 22.2144 37.7067 23.1557H41.4567Z" fill="white"/>
<path d="M11.9373 30.6729V32.5174H9.158V40.4529H7.12868V32.5174H4.36328V30.6729H11.9373Z" fill="white"/>
<path d="M15.0975 40.659C14.0096 40.659 13.0829 40.2909 12.3329 39.5409C11.5829 38.7909 11.2148 37.8642 11.2148 36.7763C11.2148 35.6883 11.5829 34.7763 12.3329 34.0263C13.0829 33.2763 14.0096 32.8936 15.0975 32.8936C16.1855 32.8936 17.1122 33.2755 17.8622 34.0263C18.6122 34.7763 18.9949 35.6883 18.9949 36.7763C18.9949 37.8642 18.6129 38.7909 17.8622 39.5409C17.1122 40.2909 16.1855 40.659 15.0975 40.659ZM15.0975 38.8056C15.6709 38.8056 16.1415 38.6142 16.5242 38.2323C16.9062 37.8496 17.0975 37.3642 17.0975 36.7763C17.0975 36.1883 16.9062 35.7029 16.5242 35.3202C16.1415 34.9383 15.6716 34.7469 15.0975 34.7469C14.5235 34.7469 14.0536 34.9383 13.6709 35.3202C13.3028 35.7029 13.1122 36.1875 13.1122 36.7763C13.1122 37.365 13.3036 37.8496 13.6709 38.2323C14.0528 38.6142 14.5235 38.8056 15.0975 38.8056Z" fill="white"/>
<path d="M7.52332 53.9842L4.64062 43.6895H6.77259L8.74326 51.3221L10.8906 43.6895H12.626L14.788 51.3221L16.7587 43.6895H18.8906L16.0087 53.9842H13.6993L11.7579 47.1895L9.83197 53.9842H7.52332Z" fill="white"/>
<path d="M22.5975 54.1902C21.5096 54.1902 20.5829 53.8222 19.8329 53.0722C19.0829 52.3222 18.7148 51.3955 18.7148 50.3075C18.7148 49.2195 19.0829 48.3075 19.8329 47.5575C20.5829 46.8075 21.5096 46.4248 22.5975 46.4248C23.6855 46.4248 24.6122 46.8068 25.3622 47.5575C26.1122 48.3075 26.4949 49.2195 26.4949 50.3075C26.4949 51.3955 26.1129 52.3222 25.3622 53.0722C24.6122 53.8222 23.6855 54.1902 22.5975 54.1902ZM22.5975 52.3368C23.1709 52.3368 23.6415 52.1455 24.0242 51.7635C24.4062 51.3808 24.5975 50.8962 24.5975 50.3075C24.5975 49.7188 24.4062 49.2342 24.0242 48.8515C23.6415 48.4695 23.1716 48.2782 22.5975 48.2782C22.0235 48.2782 21.5536 48.4695 21.1709 48.8515C20.8028 49.2342 20.6122 49.7188 20.6122 50.3075C20.6122 50.8962 20.8036 51.3808 21.1709 51.7635C21.5528 52.1455 22.0235 52.3368 22.5975 52.3368Z" fill="white"/>
<path d="M29.7301 47.8954C30.0828 46.9541 30.9655 46.4834 31.9655 46.4834V48.6014C31.3914 48.5281 30.8621 48.6454 30.4061 48.9548C29.9501 49.2635 29.7294 49.7635 29.7294 50.4695V53.9841H27.832V46.6308H29.7294V47.8954H29.7301Z" fill="white"/>
<path d="M40.1465 53.9842H37.9405L35.2638 50.6455V53.9842H33.3672V43.6895H35.2638V49.8661L37.7931 46.6308H40.0578L37.1025 50.2635L40.1465 53.9842Z" fill="white"/>
<path d="M40.8359 52.6589C40.8359 51.7373 41.5698 50.9961 42.4987 50.9961C43.4276 50.9961 44.1615 51.73 44.1615 52.6515C44.1615 53.5731 43.4276 54.3069 42.4987 54.3069C41.5698 54.3069 40.8359 53.5951 40.8359 52.6589ZM43.8616 52.6515C43.8616 51.8348 43.2919 51.2659 42.4987 51.2659C41.7054 51.2659 41.1351 51.8429 41.1351 52.6589C41.1351 53.4748 41.734 54.0371 42.4987 54.0371C43.2634 54.0371 43.8616 53.4682 43.8616 52.6515ZM41.929 51.8128H42.506C42.888 51.8128 43.1351 51.9704 43.1351 52.3069V52.3143C43.1351 52.5613 42.9928 52.6962 42.7978 52.7564L43.2326 53.4528H42.8579L42.4606 52.8165H42.2883V53.4528H41.929V51.8128ZM42.4987 52.5694C42.6856 52.5694 42.7832 52.4873 42.7832 52.3297V52.3223C42.7832 52.1501 42.6783 52.0899 42.4987 52.0899H42.289V52.5694H42.4987Z" fill="white"/>
<path d="M6.75781 67.9177C6.75781 65.5394 8.52101 63.6948 10.9807 63.6948C12.466 63.6948 13.7769 64.4492 14.4726 65.609L13.0921 66.4096C12.6977 65.6904 11.9088 65.2491 10.9807 65.2491C9.39124 65.2491 8.34726 66.351 8.34726 67.9177C8.34726 69.4844 9.39124 70.5746 10.9807 70.5746C11.9088 70.5746 12.7094 70.134 13.0921 69.4258L14.4726 70.2264C13.7879 71.3869 12.477 72.1406 10.9807 72.1406C8.52101 72.1406 6.75781 70.2843 6.75781 67.9177Z" fill="white"/>
<path d="M17.9992 70.783C18.5791 70.783 19.0432 70.5396 19.2983 70.2031L20.5051 70.8995C19.9596 71.6884 19.0894 72.1407 17.9758 72.1407C16.0263 72.1407 14.7969 70.8064 14.7969 69.0777C14.7969 67.349 16.0381 66.0146 17.8599 66.0146C19.5769 66.0146 20.7954 67.3724 20.7954 69.0777C20.7954 69.2984 20.7719 69.4956 20.7375 69.6928H16.3636C16.5725 70.4589 17.2104 70.7837 17.9992 70.7837V70.783ZM19.2983 68.5322C19.1129 67.6972 18.486 67.3607 17.8599 67.3607C17.0593 67.3607 16.5139 67.7903 16.3401 68.5322H19.2983Z" fill="white"/>
<path d="M24.8103 66.061V67.7319C24.0332 67.6387 23.0471 67.987 23.0471 69.2055V71.9782H21.5508V66.1769H23.0471V67.1747C23.3484 66.3858 24.0794 66.061 24.8103 66.061Z" fill="white"/>
<path d="M28.0222 67.616V70.0295C28.0222 70.6564 28.4746 70.6673 29.3331 70.6212V71.9789C27.2334 72.2113 26.5252 71.5962 26.5252 70.0295V67.616H25.5156V66.1776H26.5252V65.0061L28.0215 64.5537V66.1783H29.3323V67.6168H28.0215L28.0222 67.616Z" fill="white"/>
<path d="M30.2734 64.5649C30.2734 64.0663 30.6913 63.6367 31.1899 63.6367C31.6884 63.6367 32.118 64.0663 32.118 64.5649C32.118 65.0634 31.7001 65.4813 31.1899 65.4813C30.6796 65.4813 30.2734 65.0634 30.2734 64.5649ZM30.4472 66.1778H31.9435V71.9791H30.4472V66.1778Z" fill="white"/>
<path d="M35.2298 66.1193V66.1772H36.46V67.6156H35.2298V71.9778H33.7335V67.6156H32.8984V66.1772H33.7335V66.1193C33.7335 64.5181 34.6154 63.5782 36.46 63.6948V65.1332C35.6829 65.0753 35.2298 65.3304 35.2298 66.1193Z" fill="white"/>
<path d="M37.2227 64.5644C37.2227 64.0658 37.6405 63.6362 38.1391 63.6362C38.6376 63.6362 39.0672 64.0658 39.0672 64.5644C39.0672 65.0629 38.6493 65.4808 38.1391 65.4808C37.6288 65.4808 37.2227 65.0629 37.2227 64.5644ZM37.3964 66.1773H38.8927V71.9786H37.3964V66.1773Z" fill="white"/>
<path d="M43.0227 70.783C43.6026 70.783 44.0666 70.5396 44.3218 70.2031L45.5285 70.8995C44.9831 71.6884 44.1128 72.1407 42.9992 72.1407C41.0498 72.1407 39.8203 70.8064 39.8203 69.0777C39.8203 67.349 41.0615 66.0146 42.8834 66.0146C44.6004 66.0146 45.8188 67.3724 45.8188 69.0777C45.8188 69.2984 45.7954 69.4956 45.7609 69.6928H41.387C41.596 70.4589 42.2338 70.7837 43.0227 70.7837V70.783ZM44.3218 68.5322C44.1363 67.6972 43.5095 67.3607 42.8834 67.3607C42.0828 67.3607 41.5373 67.7903 41.3636 68.5322H44.3218Z" fill="white"/>
<path d="M52.5817 63.8567V71.9784H51.0854V71.2936C50.6675 71.8274 50.0532 72.1404 49.2056 72.1404C47.6507 72.1404 46.375 70.8061 46.375 69.0774C46.375 67.3486 47.6514 66.0143 49.2056 66.0143C50.0524 66.0143 50.6675 66.3274 51.0854 66.8611V63.856H52.5817V63.8567ZM51.0854 69.0774C51.0854 68.103 50.4007 67.4417 49.4842 67.4417C48.5678 67.4417 47.8713 68.103 47.8713 69.0774C47.8713 70.0517 48.5561 70.713 49.4842 70.713C50.4124 70.713 51.0854 70.0517 51.0854 69.0774Z" fill="white"/>
<path d="M8.20241 77.7932H8.94163V80.1187C8.94163 80.4227 8.9149 80.6566 8.86145 80.8203C8.78961 81.0341 8.65931 81.2062 8.47053 81.3365C8.28176 81.4651 8.03285 81.5294 7.72379 81.5294C7.36128 81.5294 7.0823 81.4284 6.88684 81.2262C6.69139 81.0224 6.59282 80.7242 6.59115 80.3317L7.29028 80.2515C7.29864 80.462 7.32954 80.6106 7.383 80.6975C7.46319 80.8295 7.58514 80.8955 7.74885 80.8955C7.91424 80.8955 8.03118 80.8487 8.09967 80.7551C8.16816 80.6599 8.20241 80.4636 8.20241 80.1663V77.7932ZM9.72847 77.7932H10.4702V79.7829C10.4702 80.0986 10.4794 80.3033 10.4978 80.3968C10.5295 80.5472 10.6047 80.6683 10.7233 80.7601C10.8436 80.8504 11.0073 80.8955 11.2144 80.8955C11.4249 80.8955 11.5836 80.8529 11.6905 80.7677C11.7975 80.6808 11.8618 80.5747 11.8835 80.4494C11.9052 80.3241 11.9161 80.1161 11.9161 79.8255V77.7932H12.6578V79.7227C12.6578 80.1638 12.6378 80.4753 12.5977 80.6574C12.5576 80.8395 12.4832 80.9932 12.3746 81.1185C12.2677 81.2438 12.1241 81.344 11.9436 81.4192C11.7632 81.4927 11.5277 81.5294 11.237 81.5294C10.8862 81.5294 10.6197 81.4893 10.4376 81.4092C10.2572 81.3273 10.1144 81.2221 10.0091 81.0934C9.90388 80.9631 9.83455 80.827 9.80114 80.685C9.75269 80.4745 9.72847 80.1638 9.72847 79.7528V77.7932ZM13.4622 81.4668V77.8233H14.2039V80.8479H16.0482V81.4668H13.4622ZM20.1352 80.8128V81.4668H17.667C17.6937 81.2196 17.7739 80.9857 17.9075 80.7652C18.0412 80.543 18.3051 80.249 18.6994 79.8831C19.0168 79.5874 19.2114 79.3869 19.2832 79.2817C19.3801 79.1364 19.4286 78.9927 19.4286 78.8507C19.4286 78.6937 19.386 78.5734 19.3008 78.4899C19.2173 78.4047 19.1012 78.3621 18.9525 78.3621C18.8055 78.3621 18.6885 78.4063 18.6017 78.4949C18.5148 78.5834 18.4647 78.7304 18.4513 78.9359L17.7497 78.8657C17.7914 78.4782 17.9226 78.2 18.1431 78.0313C18.3636 77.8626 18.6392 77.7782 18.97 77.7782C19.3325 77.7782 19.6174 77.8759 19.8245 78.0714C20.0317 78.2668 20.1352 78.5099 20.1352 78.8006C20.1352 78.966 20.1052 79.1238 20.045 79.2742C19.9866 79.4229 19.893 79.5791 19.7644 79.7428C19.6792 79.8514 19.5255 80.0076 19.3033 80.2114C19.0811 80.4152 18.9399 80.5505 18.8798 80.6173C18.8213 80.6841 18.7737 80.7493 18.737 80.8128H20.1352ZM21.8041 77.7782C22.16 77.7782 22.4381 77.9052 22.6386 78.1591C22.8775 78.4598 22.9969 78.9584 22.9969 79.6551C22.9969 80.35 22.8766 80.8495 22.6361 81.1536C22.4373 81.4042 22.16 81.5294 21.8041 81.5294C21.4466 81.5294 21.1585 81.3925 20.9396 81.1185C20.7208 80.8428 20.6113 80.3525 20.6113 79.6476C20.6113 78.9559 20.7316 78.4581 20.9722 78.1541C21.171 77.9035 21.4483 77.7782 21.8041 77.7782ZM21.8041 78.3621C21.7189 78.3621 21.6429 78.3896 21.5761 78.4448C21.5093 78.4982 21.4575 78.5951 21.4207 78.7354C21.3723 78.9175 21.3481 79.2241 21.3481 79.6551C21.3481 80.0861 21.3698 80.3826 21.4132 80.5446C21.4566 80.705 21.5109 80.8119 21.5761 80.8654C21.6429 80.9189 21.7189 80.9456 21.8041 80.9456C21.8893 80.9456 21.9653 80.9189 22.0322 80.8654C22.099 80.8103 22.1508 80.7125 22.1875 80.5722C22.236 80.3918 22.2602 80.0861 22.2602 79.6551C22.2602 79.2241 22.2385 78.9284 22.195 78.768C22.1516 78.606 22.0965 78.4982 22.0296 78.4448C21.9645 78.3896 21.8893 78.3621 21.8041 78.3621ZM25.8486 80.8128V81.4668H23.3803C23.407 81.2196 23.4872 80.9857 23.6209 80.7652C23.7545 80.543 24.0185 80.249 24.4127 79.8831C24.7301 79.5874 24.9247 79.3869 24.9966 79.2817C25.0935 79.1364 25.1419 78.9927 25.1419 78.8507C25.1419 78.6937 25.0993 78.5734 25.0141 78.4899C24.9306 78.4047 24.8145 78.3621 24.6658 78.3621C24.5188 78.3621 24.4018 78.4063 24.315 78.4949C24.2281 78.5834 24.178 78.7304 24.1646 78.9359L23.463 78.8657C23.5048 78.4782 23.6359 78.2 23.8564 78.0313C24.0769 77.8626 24.3526 77.7782 24.6833 77.7782C25.0458 77.7782 25.3307 77.8759 25.5378 78.0714C25.745 78.2668 25.8486 78.5099 25.8486 78.8006C25.8486 78.966 25.8185 79.1238 25.7583 79.2742C25.6999 79.4229 25.6063 79.5791 25.4777 79.7428C25.3925 79.8514 25.2388 80.0076 25.0166 80.2114C24.7944 80.4152 24.6533 80.5505 24.5931 80.6173C24.5347 80.6841 24.487 80.7493 24.4503 80.8128H25.8486ZM27.7079 81.4668V80.7276H26.2044V80.1111L27.7981 77.7782H28.3895V80.1086H28.8455V80.7276H28.3895V81.4668H27.7079ZM27.7079 80.1086V78.8532L26.8634 80.1086H27.7079ZM29.254 80.487V79.7829H30.6372V80.487H29.254ZM32.3738 77.7932H33.113V80.1187C33.113 80.4227 33.0863 80.6566 33.0328 80.8203C32.961 81.0341 32.8307 81.2062 32.6419 81.3365C32.4531 81.4651 32.2042 81.5294 31.8951 81.5294C31.5326 81.5294 31.2537 81.4284 31.0582 81.2262C30.8627 81.0224 30.7642 80.7242 30.7625 80.3317L31.4616 80.2515C31.47 80.462 31.5009 80.6106 31.5544 80.6975C31.6345 80.8295 31.7565 80.8955 31.9202 80.8955C32.0856 80.8955 32.2025 80.8487 32.271 80.7551C32.3395 80.6599 32.3738 80.4636 32.3738 80.1663V77.7932ZM33.8998 77.7932H34.6416V79.7829C34.6416 80.0986 34.6507 80.3033 34.6691 80.3968C34.7009 80.5472 34.776 80.6683 34.8946 80.7601C35.0149 80.8504 35.1786 80.8955 35.3858 80.8955C35.5963 80.8955 35.755 80.8529 35.8619 80.7677C35.9688 80.6808 36.0331 80.5747 36.0548 80.4494C36.0766 80.3241 36.0874 80.1161 36.0874 79.8255V77.7932H36.8292V79.7227C36.8292 80.1638 36.8091 80.4753 36.769 80.6574C36.7289 80.8395 36.6546 80.9932 36.546 81.1185C36.4391 81.2438 36.2954 81.344 36.115 81.4192C35.9346 81.4927 35.699 81.5294 35.4083 81.5294C35.0575 81.5294 34.7911 81.4893 34.609 81.4092C34.4286 81.3273 34.2857 81.2221 34.1805 81.0934C34.0752 80.9631 34.0059 80.827 33.9725 80.685C33.924 80.4745 33.8998 80.1638 33.8998 79.7528V77.7932ZM37.6335 81.4668V77.8233H38.3753V80.8479H40.2196V81.4668H37.6335ZM44.3066 80.8128V81.4668H41.8383C41.8651 81.2196 41.9452 80.9857 42.0789 80.7652C42.2125 80.543 42.4765 80.249 42.8707 79.8831C43.1881 79.5874 43.3828 79.3869 43.4546 79.2817C43.5515 79.1364 43.5999 78.9927 43.5999 78.8507C43.5999 78.6937 43.5573 78.5734 43.4721 78.4899C43.3886 78.4047 43.2725 78.3621 43.1238 78.3621C42.9768 78.3621 42.8599 78.4063 42.773 78.4949C42.6861 78.5834 42.636 78.7304 42.6227 78.9359L41.921 78.8657C41.9628 78.4782 42.0939 78.2 42.3144 78.0313C42.535 77.8626 42.8106 77.7782 43.1414 77.7782C43.5039 77.7782 43.7887 77.8759 43.9959 78.0714C44.203 78.2668 44.3066 78.5099 44.3066 78.8006C44.3066 78.966 44.2765 79.1238 44.2164 79.2742C44.1579 79.4229 44.0644 79.5791 43.9357 79.7428C43.8505 79.8514 43.6968 80.0076 43.4746 80.2114C43.2525 80.4152 43.1113 80.5505 43.0512 80.6173C42.9927 80.6841 42.9451 80.7493 42.9083 80.8128H44.3066ZM45.9755 77.7782C46.3313 77.7782 46.6095 77.9052 46.8099 78.1591C47.0488 78.4598 47.1683 78.9584 47.1683 79.6551C47.1683 80.35 47.048 80.8495 46.8074 81.1536C46.6086 81.4042 46.3313 81.5294 45.9755 81.5294C45.618 81.5294 45.3298 81.3925 45.111 81.1185C44.8921 80.8428 44.7827 80.3525 44.7827 79.6476C44.7827 78.9559 44.903 78.4581 45.1435 78.1541C45.3423 77.9035 45.6196 77.7782 45.9755 77.7782ZM45.9755 78.3621C45.8903 78.3621 45.8143 78.3896 45.7474 78.4448C45.6806 78.4982 45.6288 78.5951 45.5921 78.7354C45.5436 78.9175 45.5194 79.2241 45.5194 79.6551C45.5194 80.0861 45.5411 80.3826 45.5846 80.5446C45.628 80.705 45.6823 80.8119 45.7474 80.8654C45.8143 80.9189 45.8903 80.9456 45.9755 80.9456C46.0607 80.9456 46.1367 80.9189 46.2035 80.8654C46.2703 80.8103 46.3221 80.7125 46.3589 80.5722C46.4073 80.3918 46.4315 80.0861 46.4315 79.6551C46.4315 79.2241 46.4098 78.9284 46.3664 78.768C46.323 78.606 46.2678 78.4982 46.201 78.4448C46.1359 78.3896 46.0607 78.3621 45.9755 78.3621ZM50.0199 80.8128V81.4668H47.5517C47.5784 81.2196 47.6586 80.9857 47.7922 80.7652C47.9259 80.543 48.1898 80.249 48.5841 79.8831C48.9015 79.5874 49.0961 79.3869 49.1679 79.2817C49.2648 79.1364 49.3133 78.9927 49.3133 78.8507C49.3133 78.6937 49.2707 78.5734 49.1855 78.4899C49.1019 78.4047 48.9858 78.3621 48.8371 78.3621C48.6901 78.3621 48.5732 78.4063 48.4863 78.4949C48.3995 78.5834 48.3493 78.7304 48.336 78.9359L47.6343 78.8657C47.6761 78.4782 47.8072 78.2 48.0278 78.0313C48.2483 77.8626 48.5239 77.7782 48.8547 77.7782C49.2172 77.7782 49.502 77.8759 49.7092 78.0714C49.9163 78.2668 50.0199 78.5099 50.0199 78.8006C50.0199 78.966 49.9898 79.1238 49.9297 79.2742C49.8712 79.4229 49.7777 79.5791 49.649 79.7428C49.5638 79.8514 49.4102 80.0076 49.188 80.2114C48.9658 80.4152 48.8246 80.5505 48.7645 80.6173C48.706 80.6841 48.6584 80.7493 48.6216 80.8128H50.0199ZM50.5085 80.5221L51.2102 80.4494C51.2302 80.6081 51.2895 80.7343 51.3881 80.8278C51.4867 80.9197 51.6003 80.9656 51.7289 80.9656C51.8759 80.9656 52.0004 80.9063 52.1023 80.7877C52.2042 80.6674 52.2551 80.487 52.2551 80.2465C52.2551 80.0209 52.2042 79.8522 52.1023 79.7403C52.002 79.6267 51.8709 79.5699 51.7088 79.5699C51.5067 79.5699 51.3255 79.6592 51.1651 79.838L50.5937 79.7553L50.9546 77.8433H52.8164V78.5024H51.4883L51.3781 79.1263C51.5351 79.0478 51.6955 79.0086 51.8592 79.0086C52.1716 79.0086 52.4364 79.1222 52.6535 79.3494C52.8707 79.5766 52.9793 79.8714 52.9793 80.2339C52.9793 80.5363 52.8916 80.8061 52.7162 81.0433C52.4773 81.3674 52.1457 81.5294 51.7214 81.5294C51.3822 81.5294 51.1058 81.4384 50.8919 81.2563C50.6781 81.0742 50.5503 80.8295 50.5085 80.5221Z" fill="white"/>
<path d="M20.759 90.4102V87.358H19.6689V86.7366H22.5882V87.358H21.5007V90.4102H20.759ZM23.0643 86.7366H23.8061V88.7262C23.8061 89.042 23.8153 89.2466 23.8336 89.3402C23.8654 89.4905 23.9406 89.6116 24.0592 89.7035C24.1794 89.7937 24.3432 89.8388 24.5503 89.8388C24.7608 89.8388 24.9195 89.7962 25.0264 89.711C25.1333 89.6242 25.1977 89.5181 25.2194 89.3928C25.2411 89.2675 25.2519 89.0595 25.2519 88.7688V86.7366H25.9937V88.6661C25.9937 89.1071 25.9736 89.4187 25.9335 89.6008C25.8934 89.7829 25.8191 89.9366 25.7105 90.0618C25.6036 90.1871 25.4599 90.2874 25.2795 90.3625C25.0991 90.436 24.8635 90.4728 24.5729 90.4728C24.222 90.4728 23.9556 90.4327 23.7735 90.3525C23.5931 90.2707 23.4502 90.1654 23.345 90.0368C23.2398 89.9065 23.1704 89.7703 23.137 89.6283C23.0886 89.4178 23.0643 89.1071 23.0643 88.6962V86.7366ZM26.7805 90.4102V86.7366H28.3417C28.7342 86.7366 29.0191 86.77 29.1961 86.8368C29.3749 86.902 29.5177 87.0189 29.6246 87.1876C29.7316 87.3564 29.785 87.5493 29.785 87.7665C29.785 88.0421 29.704 88.2702 29.5419 88.4506C29.3799 88.6293 29.1377 88.7421 28.8153 88.7889C28.9756 88.8824 29.1076 88.9852 29.2112 89.0971C29.3164 89.209 29.4576 89.4078 29.6347 89.6935L30.0832 90.4102H29.1961L28.6599 89.6108C28.4694 89.3251 28.3391 89.1455 28.269 89.072C28.1988 88.9969 28.1245 88.9459 28.046 88.9192C27.9674 88.8908 27.843 88.8766 27.6726 88.8766H27.5222V90.4102H26.7805ZM27.5222 88.2902H28.071C28.4268 88.2902 28.649 88.2752 28.7376 88.2451C28.8261 88.215 28.8954 88.1633 28.9456 88.0897C28.9957 88.0162 29.0207 87.9244 29.0207 87.8141C29.0207 87.6905 28.9873 87.5911 28.9205 87.5159C28.8553 87.4391 28.7626 87.3906 28.6424 87.3706C28.5822 87.3622 28.4018 87.358 28.1011 87.358H27.5222V88.2902ZM30.4967 90.4102V86.7366H31.2384V88.3679L32.7369 86.7366H33.7342L32.351 88.1674L33.8094 90.4102H32.8497L31.8398 88.6861L31.2384 89.3001V90.4102H30.4967ZM34.1953 90.4102V86.7366H36.9191V87.358H34.937V88.1724H36.7813V88.7914H34.937V89.7912H36.9893V90.4102H34.1953ZM38.583 90.4102V88.8641L37.2374 86.7366H38.1069L38.9714 88.19L39.8184 86.7366H40.6729L39.3223 88.8691V90.4102H38.583Z" fill="white"/>
</g>
</g>
<defs>
<clipPath id="clip0_14024_31627">
<rect width="1920" height="13841" fill="white" transform="translate(-930 -13502)"/>
</clipPath>
<clipPath id="clip1_14024_31627">
<rect width="58.651" height="100" fill="white" transform="translate(0.34375)"/>
</clipPath>
</defs>
</svg>
