<svg width="114" height="30" viewBox="0 0 114 30" fill="none" xmlns="http://www.w3.org/2000/svg">
<path d="M58.5411 27.9255C56.6241 27.9255 54.907 27.4766 53.3898 26.576C51.8726 25.6754 50.6706 24.4514 49.7867 22.8984C48.9029 21.3453 48.4609 19.5971 48.4609 17.6481C48.4609 15.6992 48.9141 13.9147 49.8233 12.3616C50.7325 10.8086 51.9683 9.58178 53.5362 8.68397C55.1041 7.78337 56.869 7.33447 58.8366 7.33447C60.8043 7.33447 62.5636 7.78337 64.1174 8.68397C65.6712 9.58456 66.9041 10.8086 67.8133 12.3616C68.7226 13.9147 69.187 15.6769 69.2123 17.6481L68.0554 18.5348C68.0554 20.3081 67.6388 21.9058 66.8056 23.3222C65.9724 24.7386 64.8408 25.8623 63.408 26.6876C61.9781 27.5129 60.3539 27.9255 58.5383 27.9255H58.5411ZM58.8395 25.3381C60.2835 25.3381 61.5699 25.0063 62.7015 24.3399C63.8331 23.6735 64.7282 22.7562 65.3897 21.5851C66.0484 20.4141 66.3777 19.1036 66.3777 17.6481C66.3777 16.1927 66.0484 14.8515 65.3897 13.6916C64.731 12.5345 63.8331 11.6144 62.7015 10.9369C61.5699 10.2593 60.2807 9.91917 58.8395 9.91917C57.3982 9.91917 56.14 10.2593 54.9943 10.9369C53.8486 11.6144 52.9422 12.5317 52.2695 13.6916C51.5967 14.8515 51.2617 16.1676 51.2617 17.6481C51.2617 19.1287 51.5967 20.4141 52.2695 21.5851C52.9422 22.7562 53.8486 23.6735 54.9943 24.3399C56.1371 25.0063 57.4207 25.3381 58.8395 25.3381ZM67.7599 27.7415C67.3376 27.7415 66.9886 27.6133 66.7155 27.354C66.4425 27.0947 66.3045 26.7573 66.3045 26.3362V20.0153L67.0139 17.0933L69.2152 17.6481V26.3362C69.2152 26.7545 69.0772 27.0947 68.8042 27.354C68.5311 27.6133 68.1821 27.7415 67.7599 27.7415V27.7415Z" fill="#12E193"/>
<path d="M58.5418 29.7155C56.3012 29.7155 54.2576 29.1745 52.4645 28.1122C50.6798 27.0555 49.2527 25.5972 48.2168 23.7765C47.1837 21.9614 46.6602 19.8981 46.6602 17.648C46.6602 15.3979 47.2006 13.2844 48.2675 11.4637C49.3315 9.64578 50.8009 8.19033 52.639 7.13359C54.4771 6.07685 56.5658 5.5415 58.843 5.5415C61.1203 5.5415 63.2061 6.07684 65.0358 7.13637C66.857 8.19032 68.3208 9.64578 69.382 11.4637C70.2236 12.9024 70.7444 14.5029 70.9386 16.2344L71.0231 16.2567V26.3361C71.0231 27.2479 70.6881 28.0453 70.0547 28.6476C69.4439 29.2247 68.6501 29.5314 67.7634 29.5314C66.8767 29.5314 66.0801 29.2247 65.4693 28.6476C65.23 28.4217 65.033 28.168 64.881 27.8892C64.698 28.0091 64.5122 28.1234 64.3208 28.2321C62.6178 29.2164 60.6727 29.7127 58.5418 29.7127V29.7155ZM58.8402 11.7091C57.7452 11.7091 56.791 11.96 55.9212 12.473C55.0373 12.9972 54.3561 13.6859 53.8353 14.5837C53.3202 15.476 53.0669 16.4769 53.0669 17.648C53.0669 18.8191 53.3202 19.7977 53.8381 20.7011C54.3561 21.6017 55.0316 22.2876 55.9071 22.7979C56.7769 23.3053 57.7368 23.5507 58.8374 23.5507C59.938 23.5507 60.9232 23.3053 61.779 22.8034C62.6403 22.2988 63.3046 21.6157 63.8113 20.7151C64.3236 19.8061 64.5713 18.8023 64.5713 17.648C64.5713 16.4937 64.3236 15.4648 63.8141 14.5698C63.3046 13.6776 62.6347 12.9889 61.7649 12.4675C60.912 11.9572 59.9549 11.7091 58.8374 11.7091H58.8402Z" fill="#12E193"/>
<path d="M82.6888 27.9254C81.2194 27.9254 79.7641 27.68 78.3229 27.1865C76.8789 26.693 75.7106 25.9541 74.8155 24.9671C74.5425 24.6715 74.4299 24.3397 74.4806 23.9689C74.5312 23.5981 74.717 23.2802 75.0407 23.007C75.3898 22.7616 75.7501 22.6612 76.1244 22.7114C76.4988 22.7616 76.8085 22.9205 77.059 23.191C77.6558 23.8825 78.4467 24.4122 79.4291 24.7803C80.4115 25.1511 81.5009 25.3351 82.6944 25.3351C84.5353 25.3351 85.8668 25.0201 86.6888 24.3927C87.5107 23.7654 87.9329 23.007 87.9583 22.1203C87.9583 21.2336 87.536 20.5004 86.6888 19.9204C85.8415 19.3405 84.4481 18.8915 82.5086 18.5709C79.9949 18.1778 78.154 17.4863 76.9858 16.4992C75.8148 15.515 75.2321 14.3439 75.2321 12.9861C75.2321 11.7286 75.5671 10.683 76.2399 9.84374C76.9126 9.00727 77.8077 8.37713 78.9281 7.95889C80.0484 7.54066 81.2785 7.33154 82.624 7.33154C84.2904 7.33154 85.7289 7.61594 86.9337 8.18195C88.1412 8.74796 89.118 9.51194 89.864 10.4739C90.1117 10.7945 90.213 11.1263 90.1623 11.4721C90.1117 11.8178 89.9146 12.0994 89.5656 12.3225C89.2672 12.4954 88.9238 12.5511 88.5381 12.4898C88.1525 12.4284 87.8231 12.25 87.5501 11.9544C86.928 11.2406 86.2074 10.7165 85.3855 10.3819C84.5635 10.0473 83.6177 9.88278 82.5481 9.88278C81.18 9.88278 80.085 10.1588 79.2631 10.7137C78.4411 11.2685 78.0301 11.9656 78.0301 12.802C78.0301 13.3681 78.185 13.8616 78.4974 14.2798C78.8071 14.698 79.3419 15.0689 80.1019 15.3895C80.8619 15.7102 81.9231 15.9806 83.294 16.2037C85.1603 16.4992 86.6353 16.937 87.7162 17.517C88.7999 18.0969 89.5684 18.7744 90.03 19.5496C90.4889 20.3247 90.7197 21.1695 90.7197 22.0813C90.7197 23.2412 90.3763 24.2561 89.6923 25.1316C89.0082 26.0071 88.0624 26.6902 86.8548 27.1837C85.6472 27.6773 84.2595 27.9226 82.6916 27.9226L82.6888 27.9254Z" fill="#12E193"/>
<path d="M82.689 29.7156C81.0254 29.7156 79.3589 29.434 77.7319 28.8791C76.0036 28.288 74.568 27.3763 73.4702 26.1662C72.8481 25.4942 72.5666 24.6271 72.6877 23.7321C72.7946 22.9263 73.2056 22.2041 73.8699 21.6437L73.9881 21.5517C74.7088 21.0414 75.5279 20.8295 76.3583 20.9382C77.1521 21.0442 77.853 21.4067 78.3878 21.9866L78.4244 22.0285C78.8241 22.4913 79.3618 22.8454 80.0627 23.1103C80.8368 23.4003 81.7179 23.548 82.689 23.548C84.5553 23.548 85.3012 23.1911 85.5799 22.9792C86.0528 22.6168 86.1372 22.3296 86.1457 22.0926C86.1457 21.942 86.1147 21.7078 85.6559 21.3927C85.3068 21.1529 84.392 20.6985 82.2048 20.336C79.3449 19.8871 77.2478 19.0785 75.8066 17.8628C74.2443 16.5468 73.4167 14.8599 73.4167 12.989C73.4167 11.3244 73.8868 9.89129 74.8157 8.73418C75.6911 7.64398 76.8537 6.82145 78.278 6.28889C79.5982 5.79538 81.0564 5.54443 82.613 5.54443C84.5412 5.54443 86.2526 5.88739 87.6967 6.56772C89.1576 7.25641 90.3652 8.2044 91.2857 9.38661C91.8318 10.092 92.0598 10.9006 91.9416 11.7259C91.8177 12.5819 91.3167 13.3292 90.5341 13.8283L90.4666 13.8701C89.8079 14.2521 89.0366 14.3859 88.2428 14.2577C87.4602 14.135 86.7565 13.7558 86.2104 13.1647L86.1738 13.1256C85.7347 12.6238 85.2506 12.2669 84.6932 12.041C84.0936 11.7984 83.3702 11.6758 82.5398 11.6758C81.5461 11.6758 80.7833 11.8514 80.271 12.1972C79.829 12.4955 79.8291 12.6907 79.8291 12.8078C79.8291 13.0392 79.8882 13.1507 79.9445 13.226C79.9642 13.2511 80.1387 13.4714 80.803 13.7502C81.4251 14.0123 82.3596 14.2465 83.5785 14.4445C85.6587 14.7735 87.2914 15.267 88.5665 15.9473C89.9374 16.6806 90.9507 17.5896 91.5784 18.6491C92.2005 19.7003 92.5186 20.8574 92.5186 22.087C92.5186 23.6456 92.0457 25.0397 91.114 26.2331C90.2357 27.354 89.0338 28.2323 87.5391 28.8429C86.1204 29.4228 84.4877 29.7184 82.689 29.7184V29.7156Z" fill="#12E193"/>
<path d="M111.207 27.0638C111.207 27.2729 111.125 27.4542 110.964 27.6159C110.801 27.7748 110.615 27.8557 110.407 27.8557C110.235 27.8557 110.055 27.7804 109.864 27.6298L98.6662 18.2084V26.9801C98.6662 27.245 98.5845 27.4625 98.4241 27.6298C98.2608 27.7999 98.0469 27.8835 97.7823 27.8835C97.5177 27.8835 97.301 27.7999 97.1405 27.6298C96.9773 27.4597 96.8984 27.2422 96.8984 26.9801V8.5611C96.8984 8.29622 96.9801 8.07875 97.1405 7.91145C97.301 7.74137 97.5149 7.65771 97.7823 7.65771C98.0497 7.65771 98.2636 7.74137 98.4241 7.91145C98.5845 8.08154 98.6662 8.299 98.6662 8.5611V17.0764L109.292 7.90866C109.444 7.7581 109.625 7.68282 109.836 7.68282C110.047 7.68282 110.235 7.76367 110.407 7.9226C110.579 8.08432 110.663 8.26834 110.663 8.47466C110.663 8.70051 110.559 8.90964 110.348 9.09645L100.409 17.5559L110.891 26.4392C111.1 26.6288 111.207 26.8352 111.207 27.061V27.0638Z" fill="#12E193"/>
<path d="M97.7821 29.9971C96.9292 29.9971 96.1495 29.6708 95.5865 29.0797C95.0489 28.5165 94.7617 27.7888 94.7617 26.9802V8.56115C94.7617 7.75257 95.046 7.02484 95.5865 6.45883C96.1495 5.86773 96.9292 5.5415 97.7793 5.5415C98.6294 5.5415 99.4091 5.86773 99.9721 6.45883C100.513 7.02763 100.797 7.75257 100.797 8.56115V12.434L107.848 6.3501C108.389 5.84543 109.09 5.56939 109.83 5.56939C110.57 5.56939 111.294 5.851 111.865 6.38634C112.462 6.94398 112.791 7.68844 112.791 8.47472C112.791 9.261 112.431 10.0724 111.778 10.6607L111.733 10.6997L103.682 17.5532L112.324 24.8779C112.977 25.4662 113.334 26.2413 113.334 27.0639C113.334 27.8278 113.028 28.5555 112.467 29.1076C111.904 29.6653 111.17 29.9692 110.401 29.9692C109.942 29.9692 109.244 29.8493 108.524 29.2805L108.476 29.2415L100.794 22.7783V26.9802C100.794 27.7888 100.51 28.5165 99.9693 29.0825C99.4063 29.6736 98.6266 29.9999 97.7737 29.9999L97.7821 29.9971Z" fill="#12E193"/>
<path d="M4.09979 13.0059C5.98866 13.0059 7.5199 11.4891 7.5199 9.61817C7.5199 7.7472 5.98866 6.23047 4.09979 6.23047C2.21092 6.23047 0.679688 7.7472 0.679688 9.61817C0.679688 11.4891 2.21092 13.0059 4.09979 13.0059Z" fill="#12E193"/>
<path d="M4.1013 13.6806C1.83813 13.6806 0 11.8571 0 9.61812C0 7.37917 1.84094 5.55566 4.1013 5.55566C6.36167 5.55566 8.20261 7.37917 8.20261 9.61812C8.20261 11.8571 6.36167 13.6806 4.1013 13.6806ZM4.1013 6.90517C2.58971 6.90517 1.36242 8.12084 1.36242 9.61812C1.36242 11.1154 2.58971 12.3311 4.1013 12.3311C5.6129 12.3311 6.84019 11.1126 6.84019 9.61812C6.84019 8.12363 5.61009 6.90517 4.1013 6.90517V6.90517Z" fill="#12E193"/>
<path d="M46.8051 7.54931C46.6193 7.28722 46.3716 7.05857 46.0648 6.85782C45.7579 6.65986 45.3948 6.50372 44.9782 6.39498C44.5616 6.28624 44.1112 6.23047 43.6271 6.23047C42.791 6.23047 42.1098 6.342 41.5834 6.55949C41.0571 6.77976 40.7052 7.06974 40.5279 7.42663L33.606 20.3807L26.915 7.81976C26.3436 6.76024 25.2458 6.23047 23.6188 6.23047C21.9918 6.23047 20.8602 6.76024 20.2888 7.81976L13.5978 20.3612L12.21 17.7682C11.3064 16.0813 9.18119 15.4539 7.49226 16.3796C6.07918 17.1548 5.54999 18.9086 6.30438 20.3222L10.3691 27.9508C10.5886 28.3495 10.9884 28.6785 11.571 28.9406C12.1537 29.2027 12.8293 29.3337 13.5978 29.3337C14.3662 29.3337 15.0474 29.2027 15.6414 28.9406C16.2353 28.6785 16.6294 28.3495 16.8265 27.9508L23.616 15.203L30.4055 27.9508C30.58 28.3216 30.9657 28.6451 31.5596 28.9211C32.1536 29.1971 32.8348 29.3337 33.6032 29.3337C34.504 29.3337 35.219 29.2027 35.7454 28.9406C36.2717 28.6785 36.6349 28.3495 36.8319 27.9508L46.8192 9.20273C46.9937 8.91554 47.0838 8.6395 47.0838 8.37741C47.0838 8.08743 46.9909 7.81418 46.8051 7.55209V7.54931Z" fill="#12E193"/>
<path d="M33.608 29.8383C32.7663 29.8383 32.0063 29.6822 31.3476 29.3783C30.6467 29.0521 30.1738 28.645 29.9486 28.1654L23.6235 16.2903L17.2872 28.1877C17.0423 28.6812 16.5581 29.0939 15.8572 29.4034C15.2014 29.6933 14.4442 29.8383 13.6053 29.8383C12.7665 29.8383 12.0149 29.6906 11.3675 29.4006C10.6835 29.0939 10.1993 28.6868 9.92625 28.1905L5.85872 20.5563C4.98047 18.9085 5.60538 16.834 7.25209 15.9334C8.18945 15.4204 9.27038 15.3033 10.2978 15.6072C11.3253 15.9083 12.1669 16.5915 12.668 17.5311L13.6025 19.2793L19.8431 7.58547C20.5074 6.35307 21.7798 5.72852 23.6235 5.72852C25.4673 5.72852 26.7058 6.35307 27.3701 7.58547L33.6108 19.3016L40.0794 7.19513C40.3018 6.74065 40.7437 6.36702 41.3883 6.09935C41.9767 5.85398 42.731 5.72852 43.629 5.72852C44.1526 5.72852 44.6508 5.78985 45.1096 5.90975C45.5769 6.03243 45.9935 6.21088 46.3454 6.43951C46.7057 6.67372 47.0012 6.94976 47.2236 7.26204C47.4713 7.61057 47.598 7.98698 47.598 8.38012C47.598 8.72865 47.4882 9.09112 47.2686 9.45359L37.2899 28.1905C37.0506 28.6756 36.6058 29.0855 35.9781 29.3978C35.3729 29.6989 34.596 29.8439 33.608 29.8439V29.8383ZM23.6207 14.1183L30.8634 27.7137C30.9957 27.9925 31.3082 28.2407 31.7811 28.461C32.3019 28.7035 32.9183 28.8262 33.608 28.8262C34.4243 28.8262 35.0689 28.7119 35.5221 28.4888C35.9443 28.2797 36.2343 28.0232 36.3806 27.7277L46.3876 8.94056C46.5142 8.73423 46.579 8.54463 46.579 8.37733C46.579 8.1961 46.5171 8.02045 46.3932 7.84479C46.244 7.63567 46.0414 7.44886 45.788 7.28435C45.5291 7.11706 45.211 6.98322 44.8478 6.88563C44.4735 6.78804 44.0653 6.73785 43.629 6.73785C42.8661 6.73785 42.2469 6.83544 41.7852 7.02783C41.3771 7.19791 41.1097 7.40703 40.9914 7.64961L33.6108 21.4653L26.4694 8.05668C25.9909 7.17002 25.0619 6.73785 23.6263 6.73785C22.1907 6.73785 21.2281 7.17003 20.7495 8.05947L13.6081 21.443L11.7672 18.0051C11.3956 17.3108 10.7707 16.8034 10.0079 16.5775C9.24503 16.3545 8.4428 16.4409 7.74752 16.8201C6.58497 17.4558 6.14303 18.9196 6.76231 20.0851L10.827 27.7137C10.9875 28.0065 11.3112 28.2658 11.7897 28.4777C12.302 28.7091 12.9129 28.8262 13.6053 28.8262C14.2978 28.8262 14.9171 28.7091 15.4406 28.4777C15.9192 28.2686 16.2344 28.0148 16.3752 27.7277L23.6235 14.1183H23.6207Z" fill="#12E193"/>
<path d="M37.033 22.1985L35.8282 21.5628C34.6065 20.9187 34.1393 19.4047 34.7895 18.1946L43.2961 2.35191C44.2025 0.665032 46.339 0.0181559 48.042 0.915966C49.4438 1.65485 49.9787 3.39192 49.2327 4.78046L40.4305 21.1697C39.7803 22.3798 38.2518 22.8426 37.0301 22.1985H37.033Z" fill="#12E193"/>
<path d="M38.2096 22.996C37.7311 22.996 37.247 22.8844 36.7938 22.6446L35.589 22.0089C34.1168 21.2338 33.5538 19.4159 34.3392 17.9548L42.8458 2.11213C43.3496 1.17529 44.1913 0.489382 45.2216 0.177101C46.2518 -0.135181 47.3384 -0.032014 48.2842 0.467079C49.9365 1.33701 50.567 3.37799 49.6888 5.01468L40.8866 21.4039C40.3433 22.416 39.2934 22.9932 38.2096 22.9932V22.996ZM37.2751 21.7524C38.249 22.2654 39.4651 21.8974 39.983 20.9327L48.7852 4.54347C49.3988 3.4003 48.9597 1.97272 47.8056 1.36489C47.1019 0.994055 46.2912 0.918767 45.5227 1.15019C44.7543 1.38161 44.1237 1.89465 43.7522 2.59171L35.2456 18.4344C34.7276 19.3992 35.0992 20.6037 36.0731 21.1167L37.2779 21.7524H37.2751Z" fill="#12E193"/>
<path d="M13.6731 26.2889L12.7555 26.7657C11.3705 27.4851 9.64218 26.9497 8.91594 25.5779L5.96311 19.9987C5.04546 18.2616 5.72667 16.0952 7.48035 15.1862C9.00321 14.3971 10.9004 14.9827 11.6971 16.4911L14.8694 22.4886C15.5957 23.8604 15.0552 25.5724 13.6703 26.2917L13.6731 26.2889Z" fill="#12E193"/>
<path d="M11.4477 27.4654C11.1239 27.4654 10.7974 27.4152 10.4765 27.3176C9.65176 27.0639 8.97899 26.5063 8.57928 25.7534L5.62645 20.1742C5.13385 19.2457 5.03815 18.1778 5.35623 17.1685C5.67432 16.1591 6.36678 15.3366 7.30414 14.8487C8.13172 14.4193 9.08033 14.3356 9.97547 14.6145C10.8706 14.8905 11.6053 15.4955 12.036 16.3125L15.2084 22.31C15.6081 23.0628 15.6841 23.9271 15.4279 24.7441C15.1718 25.5611 14.6088 26.2274 13.8488 26.6234L12.9311 27.1002C12.4667 27.3427 11.9572 27.4654 11.4449 27.4654H11.4477ZM8.92834 15.2111C8.50047 15.2111 8.06416 15.3115 7.65882 15.5206C6.0881 16.3376 5.47727 18.267 6.30203 19.8229L9.25486 25.4021C9.55887 25.9765 10.074 26.4003 10.7017 26.5955C11.3323 26.7907 11.9966 26.7321 12.5764 26.431L13.4941 25.9542C14.074 25.6531 14.5018 25.1428 14.6989 24.521C14.8959 23.8965 14.8368 23.2385 14.5328 22.6641L11.3604 16.6666C10.8706 15.7409 9.91355 15.2111 8.92552 15.2111H8.92834Z" fill="#12E193"/>
</svg>
