<svg width="71" height="81" viewBox="0 0 71 81" fill="none" xmlns="http://www.w3.org/2000/svg">
<g clip-path="url(#clip0_26113_97162)">
<path d="M4.30722 63.1172L35.3514 80.2756L66.3955 63.1172V0.0325623H4.30722V63.1172Z" fill="#DDDDDD"/>
<path d="M66.0169 62.8939L35.3514 79.8433L4.68584 62.8939V0.411072H66.0169V62.8939Z" stroke="black" stroke-width="0.81"/>
<path d="M7.33597 60.9506L35.3514 76.4905L63.3668 60.9506V3.8176H7.33597V60.9506Z" fill="white"/>
<path d="M30.9825 56.0512L31.9728 58.0573L34.1868 58.3783L32.5846 59.9392L32.9632 62.1437L30.9832 61.1028L29.0032 62.1437L29.3818 59.9392L27.7796 58.3783L29.9928 58.0566L30.9825 56.0512ZM40.3426 56.0512L41.333 58.0573L43.5462 58.3783L41.9448 59.9392L42.3234 62.1437L40.3426 61.1028L38.3626 62.1437L38.7412 59.9392L37.139 58.3783L39.353 58.0566L40.3426 56.0512ZM35.5255 63.6577L36.5159 65.6637L38.7299 65.9855L37.1277 67.5457L37.5063 69.7508L35.5263 68.7092L33.5462 69.7508L33.9248 67.5457L32.3227 65.9855L34.5359 65.663L35.5255 63.6577Z" fill="#FF492C"/>
<path d="M22.2727 38.0276C21.4549 38.0276 20.7462 37.8732 20.1465 37.5643C19.5732 37.2721 19.0991 36.817 18.7836 36.2562C18.4656 35.6839 18.3066 35.0072 18.3066 34.2259V28.3122H20.5009V34.2259C20.5009 34.5893 20.5736 34.9027 20.7189 35.1661C20.8643 35.4296 21.0688 35.634 21.3323 35.7793C21.6048 35.9246 21.9274 35.9973 22.2999 35.9973C22.6634 35.9973 22.9814 35.9246 23.254 35.7793C23.5265 35.634 23.7355 35.4296 23.8809 35.1661C24.0263 34.9027 24.099 34.5893 24.099 34.2259V28.3122H26.2933V34.2259C26.2933 35.0072 26.1297 35.6839 25.8026 36.2562C25.4846 36.8194 25.0212 37.2555 24.4124 37.5643C23.8128 37.8732 23.0995 38.0276 22.2727 38.0276ZM30.3434 38.014C29.8982 38.014 29.4802 37.9504 29.0895 37.8232C28.723 37.7043 28.3813 37.5196 28.0809 37.2782C27.8031 37.0383 27.5879 36.7343 27.454 36.3925L29.2122 35.6567C29.3303 35.8838 29.4938 36.0564 29.7028 36.1745C29.9118 36.2835 30.1253 36.338 30.3434 36.338C30.5615 36.338 30.7341 36.3016 30.8613 36.229C30.9885 36.1472 31.0521 36.0382 31.0521 35.9019C31.0536 35.8333 31.0367 35.7655 31.0032 35.7056C30.9696 35.6457 30.9206 35.5959 30.8613 35.5613C30.7341 35.4795 30.5478 35.4069 30.3025 35.3433L29.7028 35.207C29.0759 35.0435 28.5898 34.771 28.2445 34.3894C27.9086 34.0317 27.7231 33.5584 27.7266 33.0677C27.7266 32.3682 27.9674 31.8277 28.4489 31.4462C28.9305 31.0646 29.5983 30.8739 30.4524 30.8739C30.9431 30.8739 31.3701 30.942 31.7336 31.0783C32.1061 31.2055 32.415 31.3871 32.6603 31.6233C32.9147 31.8504 33.0965 32.1139 33.2055 32.4136L31.5155 33.1222C31.4519 32.9405 31.3201 32.7997 31.1202 32.6998C30.9215 32.6001 30.702 32.5488 30.4797 32.5499C30.2798 32.5499 30.1253 32.5953 30.0163 32.6862C29.9646 32.7265 29.923 32.7783 29.8946 32.8373C29.8662 32.8964 29.8519 32.9613 29.8527 33.0268C29.8527 33.1358 29.9163 33.2312 30.0435 33.313C30.1798 33.3856 30.3752 33.4538 30.6296 33.5174L31.3519 33.6945C31.779 33.8035 32.1379 33.9716 32.4286 34.1987C32.7194 34.4167 32.9375 34.6756 33.0828 34.9754C33.2282 35.266 33.3009 35.5795 33.3009 35.9156C33.3009 36.3516 33.1737 36.7286 32.9193 37.0465C32.674 37.3554 32.3287 37.5961 31.8835 37.7687C31.4383 37.9322 30.9249 38.014 30.3434 38.014ZM37.5744 38.014C36.8649 38.014 36.238 37.8641 35.6928 37.5643C35.1573 37.274 34.7135 36.8398 34.4117 36.3107C34.1028 35.7748 33.9483 35.1525 33.9483 34.4439C33.9483 33.7354 34.1028 33.1131 34.4117 32.5772C34.7135 32.0481 35.1573 31.6139 35.6928 31.3235C36.2471 31.0238 36.8831 30.8739 37.6009 30.8739C38.246 30.8739 38.8275 31.0283 39.3454 31.3372C39.8633 31.646 40.2722 32.1093 40.572 32.727C40.881 33.3357 41.0354 34.0897 41.0354 34.989H35.9116L36.1433 34.7301C36.1433 35.0389 36.2069 35.3115 36.3341 35.5477C36.4614 35.7838 36.6385 35.9655 36.8657 36.0927C37.0928 36.2108 37.3472 36.2698 37.6289 36.2698C37.9651 36.2698 38.2468 36.1972 38.4739 36.0518C38.7011 35.8974 38.8601 35.7066 38.9509 35.4795L40.8454 36.12C40.6778 36.5366 40.4111 36.906 40.0685 37.1964C39.7414 37.478 39.3644 37.687 38.9373 37.8232C38.4947 37.9526 38.0356 38.0169 37.5744 38.014ZM36.1971 33.858L35.979 33.5719H39.032L38.8275 33.858C38.8275 33.5128 38.7594 33.2448 38.6231 33.0541C38.4989 32.8646 38.3242 32.7136 38.1188 32.618C37.928 32.5272 37.7326 32.4818 37.5328 32.4818C37.3329 32.4818 37.1284 32.5272 36.9194 32.618C36.7116 32.7155 36.533 32.8659 36.4015 33.0541C36.2652 33.2448 36.1971 33.5128 36.1971 33.858ZM43.4963 34.3213C43.4963 33.5855 43.6424 32.9723 43.9331 32.4818C44.2322 31.9912 44.6048 31.6233 45.05 31.3781C45.4841 31.1379 45.972 31.0114 46.4682 31.0101V33.0813C46.0686 33.0791 45.6703 33.1248 45.2817 33.2176C44.9182 33.3084 44.6229 33.4492 44.3958 33.64C44.1686 33.8217 44.055 34.0579 44.055 34.3486L43.4963 34.3213ZM41.9297 37.8505V31.0374H44.0566V37.8505H41.9297ZM49.9224 38.014C49.4772 38.014 49.0592 37.9504 48.6685 37.8232C48.302 37.7043 47.9603 37.5196 47.66 37.2782C47.3821 37.0383 47.1669 36.7343 47.033 36.3925L48.7912 35.6567C48.9093 35.8838 49.0728 36.0564 49.2818 36.1745C49.4908 36.2835 49.7043 36.338 49.9224 36.338C50.1405 36.338 50.3131 36.3016 50.4403 36.229C50.5675 36.1472 50.6311 36.0382 50.6311 35.9019C50.6326 35.8333 50.6157 35.7655 50.5822 35.7056C50.5486 35.6457 50.4996 35.5959 50.4403 35.5613C50.3131 35.4795 50.1268 35.4069 49.8815 35.3433L49.2818 35.207C48.6549 35.0435 48.1688 34.771 47.8235 34.3894C47.4876 34.0317 47.3021 33.5584 47.3056 33.0677C47.3056 32.3682 47.5464 31.8277 48.0279 31.4462C48.5095 31.0646 49.1773 30.8739 50.0314 30.8739C50.5221 30.8739 50.9491 30.942 51.3126 31.0783C51.6851 31.2055 51.994 31.3871 52.2393 31.6233C52.4937 31.8504 52.6755 32.1139 52.7845 32.4136L51.0945 33.1222C51.0309 32.9405 50.8991 32.7997 50.6992 32.6998C50.5005 32.6001 50.281 32.5488 50.0587 32.5499C49.8588 32.5499 49.7043 32.5953 49.5953 32.6862C49.5436 32.7265 49.502 32.7783 49.4736 32.8373C49.4452 32.8964 49.4309 32.9613 49.4317 33.0268C49.4317 33.1358 49.4953 33.2312 49.6225 33.313C49.7588 33.3856 49.9542 33.4538 50.2086 33.5174L50.9309 33.6945C51.358 33.8035 51.7169 33.9716 52.0076 34.1987C52.2984 34.4167 52.5165 34.6756 52.6618 34.9754C52.8072 35.266 52.8799 35.5795 52.8799 35.9156C52.8799 36.3516 52.7527 36.7286 52.4983 37.0465C52.253 37.3554 51.9077 37.5961 51.4625 37.7687C51.0173 37.9322 50.5039 38.014 49.9224 38.014ZM11.5291 49.9626V40.4243H13.7234V47.946H17.7841V49.9626H11.5291ZM22.022 50.1261C21.3042 50.1261 20.6728 49.9763 20.1276 49.6765C19.5913 49.3763 19.1444 48.9389 18.8328 48.4092C18.5239 47.8733 18.3694 47.2556 18.3694 46.5561C18.3694 45.8566 18.5194 45.2389 18.8192 44.7029C19.1211 44.1739 19.5648 43.7397 20.1003 43.4493C20.6546 43.1405 21.2815 42.986 21.9812 42.986C22.699 42.986 23.3304 43.1405 23.8756 43.4493C24.415 43.7345 24.86 44.17 25.1567 44.7029C25.4657 45.2389 25.6201 45.8566 25.6201 46.5561C25.6201 47.2556 25.4657 47.8733 25.1567 48.4092C24.8606 48.9415 24.4216 49.3804 23.8892 49.6765C23.3441 49.9763 22.7217 50.1261 22.022 50.1261ZM22.022 48.164C22.2946 48.164 22.5354 48.0958 22.7444 47.9596C22.9625 47.8233 23.1305 47.6371 23.2487 47.4009C23.3797 47.1389 23.4452 46.849 23.4395 46.5561C23.4395 46.2381 23.3759 45.9611 23.2487 45.7249C23.1393 45.4895 22.9642 45.2908 22.7444 45.1526C22.5191 45.0143 22.259 44.9434 21.9948 44.9482C21.7131 44.9482 21.4633 45.0163 21.2452 45.1526C21.0236 45.2926 20.8445 45.4905 20.7273 45.7249C20.6092 45.9611 20.5501 46.2381 20.5501 46.5561C20.5501 46.874 20.6092 47.1556 20.7273 47.4009C20.8545 47.6371 21.0271 47.8233 21.2452 47.9596C21.4723 48.0958 21.7313 48.164 22.022 48.164ZM28.6549 49.9626L31.149 43.1495H33.3433L30.5766 49.9626H28.6549ZM28.4641 49.9626L25.6974 43.1495H27.8917L30.3858 49.9626H28.4641ZM37.1549 50.1261C36.4462 50.1261 35.8193 49.9763 35.2741 49.6765C34.7386 49.3861 34.2948 48.9519 33.993 48.4229C33.684 47.8869 33.5296 47.2646 33.5296 46.5561C33.5296 45.8475 33.684 45.2253 33.993 44.6893C34.2948 44.1602 34.7386 43.726 35.2741 43.4357C35.8284 43.1359 36.4644 42.986 37.1822 42.986C37.8273 42.986 38.4088 43.1405 38.9267 43.4493C39.4446 43.7582 39.8535 44.2215 40.1533 44.8392C40.4623 45.4478 40.6167 46.2018 40.6167 47.1011H35.4922L35.7239 46.8422C35.7239 47.1511 35.7875 47.4236 35.9147 47.6598C36.0419 47.896 36.2191 48.0777 36.4462 48.2049C36.6734 48.3229 36.9278 48.382 37.2094 48.382C37.5456 48.382 37.8273 48.3093 38.0544 48.164C38.2816 48.0095 38.4406 47.8188 38.5315 47.5917L40.4259 48.2321C40.2583 48.6487 39.9916 49.0182 39.6491 49.3086C39.322 49.5902 38.9449 49.7991 38.5178 49.9354C38.0752 50.0648 37.6161 50.129 37.1549 50.1261ZM35.7784 45.9702L35.5603 45.684H38.6132L38.4088 45.9702C38.4088 45.625 38.3407 45.357 38.2044 45.1662C38.0802 44.9768 37.9055 44.8258 37.7001 44.7302C37.5093 44.6393 37.3139 44.5939 37.114 44.5939C36.9141 44.5939 36.7097 44.6393 36.5007 44.7302C36.2929 44.8276 36.1142 44.978 35.9828 45.1662C35.8465 45.357 35.7784 45.625 35.7784 45.9702ZM48.7662 50.1398C47.9484 50.1398 47.2397 49.9853 46.64 49.6765C46.0667 49.3842 45.5926 48.9291 45.2771 48.3684C44.9591 47.7961 44.8001 47.1193 44.8001 46.3381V40.4243H46.9944V46.3381C46.9944 46.7014 47.0671 47.0148 47.2125 47.2783C47.3578 47.5417 47.5623 47.7461 47.8258 47.8915C48.0984 48.0368 48.4209 48.1095 48.7934 48.1095C49.1569 48.1095 49.4749 48.0368 49.7475 47.8915C50.0201 47.7461 50.229 47.5417 50.3744 47.2783C50.5198 47.0148 50.5925 46.7014 50.5925 46.3381V40.4243H52.7868V46.3381C52.7868 47.1193 52.6232 47.7961 52.2961 48.3684C51.9781 48.9316 51.5147 49.3676 50.906 49.6765C50.3063 49.9853 49.593 50.1398 48.7662 50.1398ZM56.8361 50.1261C56.3909 50.1261 55.973 50.0626 55.5823 49.9354C55.2158 49.8164 54.874 49.6317 54.5737 49.3903C54.2958 49.1504 54.0806 48.8464 53.9468 48.5046L55.7049 47.7688C55.823 47.9959 55.9866 48.1685 56.1956 48.2866C56.4045 48.3956 56.6181 48.4501 56.8361 48.4501C57.0542 48.4501 57.2268 48.4138 57.354 48.3411C57.4813 48.2594 57.5448 48.1503 57.5448 48.0141C57.5464 47.9454 57.5295 47.8777 57.4959 47.8177C57.4623 47.7578 57.4134 47.708 57.354 47.6734C57.2268 47.5917 57.0406 47.519 56.7952 47.4554L56.1956 47.3192C55.5686 47.1556 55.0825 46.8831 54.7373 46.5016C54.4013 46.1438 54.2159 45.6706 54.2193 45.1798C54.2193 44.4804 54.4601 43.9399 54.9417 43.5583C55.4233 43.1768 56.0911 42.986 56.9452 42.986C57.4358 42.986 57.8629 43.0542 58.2263 43.1904C58.5988 43.3176 58.9078 43.4993 59.1531 43.7355C59.4075 43.9626 59.5892 44.226 59.6983 44.5258L58.0082 45.2344C57.9446 45.0527 57.8129 44.9119 57.613 44.8119C57.4142 44.7123 57.1948 44.6609 56.9724 44.6621C56.7725 44.6621 56.6181 44.7075 56.509 44.7983C56.4574 44.8387 56.4157 44.8904 56.3874 44.9495C56.359 45.0086 56.3447 45.0734 56.3455 45.139C56.3455 45.248 56.4091 45.3434 56.5363 45.4251C56.6726 45.4978 56.8679 45.5659 57.1223 45.6295L57.8447 45.8066C58.2717 45.9157 58.6306 46.0837 58.9214 46.3108C59.2121 46.5288 59.4302 46.7877 59.5756 47.0875C59.721 47.3782 59.7937 47.6916 59.7937 48.0277C59.7937 48.4638 59.6665 48.8407 59.412 49.1587C59.1667 49.4675 58.8214 49.7083 58.3762 49.8809C57.931 50.0444 57.4176 50.1261 56.8361 50.1261Z" fill="black"/>
<path d="M0.899967 3.43909H54.6593V18.5793H0.899967V3.43909Z" fill="#DDDDDD"/>
<path d="M0.899967 3.43909H54.6593V18.5793H0.899967V3.43909Z" stroke="black" stroke-width="0.81"/>
<path d="M11.2271 12.5232V8.81386H12.0168L13.098 10.4142L14.1793 8.81386H14.9637V12.5232H14.2429V9.94786L13.098 11.633L11.9532 9.95316V12.5232H11.2271ZM16.3016 12.5232V8.81386H17.0278V12.5232H16.3016ZM18.3634 12.5232V8.81386H19.0903V11.8608H20.722V12.5232H18.3634ZM21.7404 12.5232V8.81386H24.0884V9.47625H22.4665V10.3188H23.8658V10.9653H22.4665V11.8608H24.1096V12.5232H21.7404ZM26.6371 12.5868C26.4598 12.5881 26.2832 12.5649 26.1123 12.5179C25.9589 12.476 25.8124 12.4117 25.6777 12.3271C25.5586 12.2495 25.4515 12.1549 25.3597 12.0463C25.2825 11.9522 25.2281 11.8416 25.2007 11.7231L25.9109 11.5111C25.9564 11.6315 26.0381 11.7352 26.1547 11.8237C26.2713 11.9085 26.4182 11.9524 26.5947 11.9562C26.7824 11.96 26.9339 11.9191 27.0505 11.8343C27.1059 11.7994 27.1516 11.7509 27.1831 11.6934C27.2146 11.6359 27.231 11.5713 27.2307 11.5058C27.2312 11.4494 27.2186 11.3937 27.1937 11.3431C27.1689 11.2925 27.1325 11.2484 27.0876 11.2143C26.9766 11.1236 26.8459 11.06 26.706 11.0289L26.2236 10.9017C26.054 10.8604 25.8927 10.7905 25.7466 10.695C25.6135 10.6047 25.5029 10.4851 25.4233 10.3453C25.3431 10.1975 25.3029 10.0312 25.3067 9.86308C25.3067 9.51334 25.4218 9.24157 25.6512 9.04702C25.8844 8.84944 26.213 8.75027 26.6371 8.75027C26.8741 8.75027 27.0808 8.78585 27.2579 8.85626C27.4374 8.92363 27.5881 9.02053 27.7077 9.1477C27.8281 9.27488 27.9197 9.42477 27.9833 9.59813L27.2791 9.81539C27.2339 9.6917 27.1524 9.58457 27.0452 9.50804C26.92 9.41957 26.7691 9.37486 26.6159 9.38086C26.4394 9.38086 26.3001 9.42174 26.1971 9.50274C26.1475 9.54478 26.1082 9.59776 26.0824 9.65752C26.0567 9.71729 26.0452 9.78221 26.0487 9.84718C26.0487 9.96376 26.0881 10.0554 26.1653 10.1227C26.2471 10.1901 26.3561 10.2408 26.4939 10.2764L26.9816 10.3983C27.2996 10.4763 27.5472 10.6155 27.7236 10.8169C27.9008 11.0183 27.9886 11.2423 27.9886 11.4899C27.9886 11.7094 27.9356 11.9017 27.8296 12.0675C27.7236 12.2302 27.5699 12.3574 27.3685 12.449C27.1671 12.5406 26.9233 12.5868 26.6371 12.5868ZM29.9255 12.5232V9.47625H28.8124V8.81386H31.7593V9.47625H30.6516V12.5232H29.9255ZM34.4624 12.5868C34.0876 12.5868 33.756 12.5058 33.466 12.343C33.1846 12.1818 32.952 11.9474 32.7929 11.6648C32.6271 11.3612 32.5433 11.0196 32.5498 10.6738C32.5498 10.2953 32.6308 9.96376 32.7936 9.67761C32.9564 9.38768 33.179 9.16209 33.4615 8.99933C33.763 8.83294 34.103 8.74887 34.4473 8.75557C34.8221 8.75557 35.1507 8.83885 35.4331 9.00463C35.7194 9.16739 35.9435 9.39298 36.107 9.68291C36.2691 9.96906 36.3501 10.2991 36.3501 10.6738C36.3501 11.0448 36.2691 11.3748 36.1063 11.6648C35.9473 11.9509 35.7247 12.1773 35.4384 12.343C35.1408 12.5094 34.8034 12.5935 34.4624 12.5868ZM34.4624 11.9244C34.6888 11.9244 34.8865 11.8714 35.0561 11.7654C35.2295 11.6557 35.3635 11.5081 35.4589 11.3203C35.5609 11.1203 35.6118 10.8983 35.6073 10.6738C35.6073 10.4263 35.5581 10.209 35.4589 10.0221C35.3635 9.83681 35.2181 9.68201 35.0391 9.57523C34.8602 9.46845 34.6549 9.41396 34.4465 9.41796C34.239 9.41478 34.0348 9.46966 33.8568 9.57641C33.6789 9.68315 33.5343 9.83751 33.4395 10.0221C33.3411 10.209 33.2911 10.4263 33.2911 10.6738C33.2911 10.9176 33.3403 11.1333 33.4395 11.3203C33.5379 11.5073 33.6765 11.6557 33.8529 11.7654C34.0293 11.8714 34.233 11.9244 34.4624 11.9244ZM37.4684 12.5232V8.81386H38.2256L40.039 11.3044V8.81386H40.7599V12.5232H40.039L38.1946 9.98496V12.5232H37.4677H37.4684ZM42.0978 12.5232V8.81386H44.445V9.47625H42.8247V10.3188H44.2239V10.9653H42.8247V11.8608H44.4677V12.5232H42.0978Z" fill="black"/>
<path d="M54.6593 3.43909H69.8027V18.5793H54.6593V3.43909Z" fill="#FF492C" stroke="black" stroke-width="0.81"/>
<path fill-rule="evenodd" clip-rule="evenodd" d="M65.677 9.14769H64.3186C64.3549 8.93498 64.4867 8.81613 64.7532 8.68138L65.0031 8.5542C65.4513 8.32483 65.6891 8.06669 65.6891 7.64579C65.6938 7.52403 65.6681 7.40302 65.6145 7.29362C65.5608 7.18422 65.4808 7.08985 65.3817 7.01899C65.1803 6.86758 64.9342 6.7934 64.651 6.7934C64.4246 6.7934 64.2194 6.85093 64.0309 6.96978C63.853 7.07488 63.7102 7.23029 63.6205 7.41641L64.0142 7.8093C64.1657 7.50196 64.3883 7.35055 64.6798 7.35055C64.9259 7.35055 65.078 7.47773 65.078 7.65336C65.078 7.80098 65.0038 7.92361 64.7207 8.06669L64.5601 8.14466C64.2118 8.32104 63.9695 8.52165 63.8295 8.75027C63.6901 8.97585 63.6205 9.26655 63.6205 9.61477V9.70864H65.677V9.14845V9.14769ZM65.4922 10.3597H63.2464L62.1228 12.3052H64.3693L65.4922 14.2499L66.6151 12.3044L65.4922 10.3589V10.3597Z" fill="white"/>
<path fill-rule="evenodd" clip-rule="evenodd" d="M62.3135 13.6034C61.6253 13.6028 60.9654 13.3294 60.4786 12.8431C59.9917 12.3567 59.7176 11.6972 59.7164 11.0092C59.7174 10.321 59.9914 9.66142 60.4783 9.17505C60.9652 8.68868 61.6252 8.4153 62.3135 8.4149L63.2024 6.55569C62.5434 6.42386 61.8632 6.4399 61.2111 6.60263C60.559 6.76537 59.9511 7.07075 59.4312 7.49675C58.9114 7.92276 58.4926 8.45878 58.205 9.06617C57.9175 9.67356 57.7683 10.3372 57.7682 11.0092C57.7684 11.6057 57.8861 12.1964 58.1147 12.7474C58.3432 13.2984 58.6781 13.7991 59.1002 14.2207C59.5223 14.6424 60.0233 14.9767 60.5746 15.2048C61.126 15.4328 61.7169 15.55 62.3135 15.5497C63.2756 15.5513 64.2131 15.2464 64.9901 14.6792L64.0058 12.9759C63.5507 13.3665 62.9594 13.6042 62.3135 13.6042V13.6034Z" fill="white"/>
<path d="M5.06439 22.7428L0.521343 18.9578H5.06439V22.7428ZM65.6383 22.7428L70.1813 18.9578H65.6383V22.7428Z" fill="black"/>
</g>
<defs>
<clipPath id="clip0_26113_97162">
<rect width="69.6449" height="81" fill="white" transform="translate(0.521301)"/>
</clipPath>
</defs>
</svg>
