<svg width="68" height="18" viewBox="0 0 68 18" fill="none" xmlns="http://www.w3.org/2000/svg">
<g clip-path="url(#clip0_623_28001)">
<path d="M35.1248 16.7551C33.9746 16.7551 32.9443 16.4857 32.034 15.9454C31.1237 15.405 30.4025 14.6706 29.8722 13.7387C29.3418 12.8069 29.0767 11.758 29.0767 10.5886C29.0767 9.41921 29.3486 8.34851 29.8941 7.41671C30.4396 6.48486 31.1811 5.74876 32.1218 5.21011C33.0626 4.66973 34.1215 4.40039 35.3021 4.40039C36.4827 4.40039 37.5382 4.66973 38.4705 5.21011C39.4028 5.75046 40.1426 6.48486 40.6881 7.41671C41.2336 8.34851 41.5123 9.40581 41.5275 10.5886L40.8334 11.1206C40.8334 12.1846 40.5834 13.1432 40.0835 13.993C39.5835 14.8429 38.9046 15.5171 38.0449 16.0123C37.1869 16.5075 36.2124 16.7551 35.1231 16.7551H35.1248ZM35.3038 15.2026C36.1702 15.2026 36.942 15.0035 37.621 14.6037C38.3 14.2038 38.837 13.6534 39.2339 12.9508C39.6291 12.2482 39.8268 11.4619 39.8268 10.5886C39.8268 9.71531 39.6291 8.91061 39.2339 8.21471C38.8387 7.52041 38.3 6.96836 37.621 6.56181C36.942 6.15531 36.1685 5.95121 35.3038 5.95121C34.439 5.95121 33.6841 6.15531 32.9967 6.56181C32.3093 6.96836 31.7655 7.51876 31.3618 8.21471C30.9581 8.91061 30.7572 9.70026 30.7572 10.5886C30.7572 11.4769 30.9581 12.2482 31.3618 12.9508C31.7655 13.6534 32.3093 14.2038 32.9967 14.6037C33.6824 15.0035 34.4526 15.2026 35.3038 15.2026ZM40.656 16.6446C40.4027 16.6446 40.1933 16.5677 40.0294 16.4121C39.8656 16.2565 39.7828 16.0541 39.7828 15.8015V12.0089L40.2085 10.2557L41.5292 10.5886V15.8015C41.5292 16.0524 41.4464 16.2565 41.2826 16.4121C41.1188 16.5677 40.9094 16.6446 40.656 16.6446Z" fill="white"/>
<path d="M35.1247 17.8291C33.7803 17.8291 32.5541 17.5046 31.4782 16.8672C30.4074 16.2331 29.5512 15.3582 28.9296 14.2657C28.3098 13.1767 27.9956 11.9387 27.9956 10.5886C27.9956 9.23856 28.3199 7.97046 28.96 6.87801C29.5985 5.78726 30.4801 4.914 31.5829 4.27996C32.6858 3.64592 33.939 3.32471 35.3054 3.32471C36.6717 3.32471 37.9232 3.64591 39.021 4.28163C40.1138 4.914 40.992 5.78726 41.6287 6.87801C42.1337 7.74126 42.4462 8.70151 42.5627 9.74041L42.6134 9.75381V15.8015C42.6134 16.3485 42.4124 16.827 42.0324 17.1884C41.6659 17.5347 41.1896 17.7187 40.6576 17.7187C40.1256 17.7187 39.6476 17.5347 39.2811 17.1884C39.1376 17.0529 39.0193 16.9006 38.9281 16.7333C38.8184 16.8053 38.7069 16.8739 38.592 16.9391C37.5702 17.5296 36.4032 17.8274 35.1247 17.8274V17.8291ZM35.3037 7.02526C34.6467 7.02526 34.0741 7.17581 33.5523 7.48366C33.0219 7.79816 32.6132 8.21136 32.3007 8.75006C31.9917 9.28541 31.8397 9.88596 31.8397 10.5886C31.8397 11.2913 31.9917 11.8785 32.3024 12.4205C32.6132 12.9609 33.0185 13.3724 33.5438 13.6785C34.0657 13.983 34.6416 14.1302 35.302 14.1302C35.9624 14.1302 36.5535 13.983 37.0669 13.6819C37.5837 13.3791 37.9823 12.9692 38.2863 12.4289C38.5937 11.8835 38.7424 11.2812 38.7424 10.5886C38.7424 9.89601 38.5937 9.27871 38.288 8.74171C37.9823 8.20636 37.5804 7.79311 37.0585 7.48031C36.5467 7.17416 35.9725 7.02526 35.302 7.02526H35.3037Z" fill="white"/>
<path d="M49.6127 16.7553C48.731 16.7553 47.8579 16.6081 46.9931 16.3119C46.1267 16.0158 45.4258 15.5725 44.8887 14.9803C44.7249 14.803 44.6573 14.6039 44.6877 14.3814C44.7181 14.1589 44.8296 13.9681 45.0238 13.8042C45.2332 13.657 45.4494 13.5968 45.6741 13.6269C45.8987 13.657 46.0845 13.7523 46.2348 13.9146C46.5928 14.3295 47.0674 14.6474 47.6569 14.8682C48.2463 15.0907 48.8999 15.2011 49.616 15.2011C50.7206 15.2011 51.5196 15.0121 52.0126 14.6357C52.5056 14.2592 52.7591 13.8042 52.7741 13.2722C52.7741 12.7402 52.5211 12.3002 52.0126 11.9523C51.5041 11.6043 50.6681 11.335 49.5046 11.1426C47.9964 10.9067 46.8918 10.4918 46.1909 9.89955C45.4883 9.309 45.1387 8.60635 45.1387 7.79165C45.1387 7.03715 45.3396 6.4098 45.7433 5.90625C46.147 5.40435 46.684 5.0263 47.3562 4.77534C48.0284 4.5244 48.7665 4.39893 49.5738 4.39893C50.5736 4.39893 51.4366 4.56957 52.1596 4.90917C52.8841 5.2488 53.4701 5.70715 53.9176 6.28435C54.0666 6.4767 54.1271 6.6758 54.0966 6.88325C54.0666 7.0907 53.9481 7.25965 53.7386 7.3935C53.5596 7.4972 53.3536 7.53065 53.1221 7.49385C52.8911 7.45705 52.6931 7.35 52.5296 7.17265C52.1561 6.7444 51.7236 6.42985 51.2306 6.2291C50.7376 6.02835 50.1701 5.92965 49.5282 5.92965C48.7074 5.92965 48.0504 6.0953 47.5572 6.4282C47.0641 6.7611 46.8175 7.17935 46.8175 7.68125C46.8175 8.02085 46.9104 8.31695 47.0978 8.5679C47.2836 8.8188 47.6045 9.04135 48.0605 9.2337C48.5165 9.4261 49.1533 9.5884 49.9758 9.7222C51.0956 9.89955 51.9806 10.1622 52.6291 10.5102C53.2791 10.8582 53.7406 11.2647 54.0176 11.7298C54.2926 12.1948 54.4311 12.7017 54.4311 13.2488C54.4311 13.9447 54.2251 14.5537 53.8146 15.079C53.4041 15.6043 52.8366 16.0142 52.1121 16.3103C51.3876 16.6064 50.5551 16.7536 49.6143 16.7536L49.6127 16.7553Z" fill="white"/>
<path d="M49.6125 17.8293C48.6144 17.8293 47.6145 17.6604 46.6383 17.3275C45.6013 16.9728 44.7399 16.4258 44.0812 15.6997C43.708 15.2966 43.5391 14.7763 43.6117 14.2393C43.6759 13.7558 43.9225 13.3225 44.3211 12.9862L44.392 12.931C44.8244 12.6248 45.3158 12.4977 45.8141 12.563C46.2904 12.6265 46.7109 12.844 47.0318 13.1919L47.0538 13.217C47.2936 13.4948 47.6162 13.7072 48.0367 13.8661C48.5012 14.0401 49.0298 14.1288 49.6125 14.1288C50.7325 14.1288 51.18 13.9147 51.347 13.7875C51.631 13.57 51.6815 13.3978 51.6865 13.2556C51.6865 13.1652 51.668 13.0247 51.3925 12.8357C51.183 12.6918 50.6345 12.4191 49.322 12.2016C47.606 11.9323 46.3478 11.4471 45.4831 10.7177C44.5457 9.9281 44.0491 8.91595 44.0491 7.7934C44.0491 6.79465 44.3312 5.9348 44.8885 5.2405C45.4138 4.58639 46.1113 4.09287 46.9659 3.77334C47.7581 3.47723 48.6329 3.32666 49.5669 3.32666C50.724 3.32666 51.7505 3.53244 52.617 3.94063C53.4935 4.35385 54.2185 4.92265 54.7705 5.63195C55.098 6.0552 55.235 6.5404 55.164 7.03555C55.09 7.54915 54.789 7.9975 54.3195 8.29695L54.279 8.32205C53.884 8.55125 53.421 8.63155 52.945 8.5546C52.4755 8.481 52.053 8.25345 51.7255 7.8988L51.7035 7.8754C51.44 7.57425 51.1495 7.3601 50.815 7.2246C50.4555 7.07905 50.0215 7.00545 49.523 7.00545C48.9268 7.00545 48.4691 7.11085 48.1617 7.3183C47.8965 7.4973 47.8966 7.6144 47.8966 7.68465C47.8966 7.8235 47.932 7.89045 47.9658 7.9356C47.9776 7.95065 48.0823 8.08285 48.4809 8.2501C48.8542 8.4074 49.4149 8.5479 50.146 8.6667C51.3945 8.8641 52.374 9.1602 53.139 9.5684C53.9615 10.0084 54.5695 10.5538 54.946 11.1895C55.3195 11.8202 55.5105 12.5145 55.5105 13.2522C55.5105 14.1874 55.2265 15.0239 54.6675 15.7399C54.1405 16.4124 53.4195 16.9393 52.5225 17.3057C51.6715 17.6537 50.692 17.8311 49.6125 17.8311V17.8293Z" fill="white"/>
<path d="M66.7232 16.2384C66.7232 16.3639 66.6742 16.4726 66.5782 16.5696C66.4802 16.665 66.3687 16.7135 66.2437 16.7135C66.1407 16.7135 66.0327 16.6683 65.9177 16.578L59.1992 10.9252V16.1882C59.1992 16.3471 59.1502 16.4776 59.0537 16.578C58.9557 16.6801 58.8277 16.7302 58.6687 16.7302C58.5102 16.7302 58.3802 16.6801 58.2837 16.578C58.1857 16.476 58.1387 16.3455 58.1387 16.1882V5.13675C58.1387 4.97783 58.1877 4.84735 58.2837 4.74697C58.3802 4.64492 58.5082 4.59473 58.6687 4.59473C58.8292 4.59473 58.9577 4.64492 59.0537 4.74697C59.1502 4.84902 59.1992 4.9795 59.1992 5.13675V10.2459L65.5747 4.7453C65.6662 4.65496 65.7742 4.60979 65.9007 4.60979C66.0277 4.60979 66.1407 4.6583 66.2437 4.75366C66.3467 4.85069 66.3972 4.9611 66.3972 5.0849C66.3972 5.2204 66.3347 5.3459 66.2082 5.45795L60.2447 10.5337L66.5342 15.8637C66.6592 15.9774 66.7232 16.1012 66.7232 16.2367V16.2384Z" fill="white"/>
<path d="M58.6684 17.9981C58.1569 17.9981 57.6889 17.8023 57.3509 17.4477C57.0284 17.1097 56.8564 16.6731 56.8564 16.1879V5.13651C56.8564 4.65135 57.0269 4.21471 57.3509 3.87511C57.6889 3.52044 58.1569 3.32471 58.6669 3.32471C59.1769 3.32471 59.6449 3.52044 59.9824 3.87511C60.3069 4.21639 60.4774 4.65135 60.4774 5.13651V7.46021L64.7085 3.80986C65.0325 3.50706 65.4529 3.34144 65.8974 3.34144C66.3414 3.34144 66.7754 3.5104 67.1184 3.83161C67.4764 4.1662 67.674 4.61287 67.674 5.08466C67.674 5.55641 67.4579 6.04326 67.0659 6.39621L67.0389 6.41966L62.2084 10.5317L67.3934 14.9266C67.7854 15.2795 67.9999 15.7446 67.9999 16.2381C67.9999 16.6965 67.8159 17.1332 67.4799 17.4644C67.1419 17.799 66.7009 17.9813 66.2399 17.9813C65.9649 17.9813 65.5459 17.9094 65.1134 17.5681L65.0849 17.5447L60.4759 13.6668V16.1879C60.4759 16.6731 60.3049 17.1097 59.9809 17.4493C59.6429 17.804 59.1754 17.9997 58.6634 17.9997L58.6684 17.9981Z" fill="white"/>
<path d="M2.46076 7.80301C3.59408 7.80301 4.51282 6.89301 4.51282 5.77041C4.51282 4.64783 3.59408 3.73779 2.46076 3.73779C1.32744 3.73779 0.408691 4.64783 0.408691 5.77041C0.408691 6.89301 1.32744 7.80301 2.46076 7.80301Z" fill="white"/>
<path d="M2.46078 8.20796C1.10287 8.20796 0 7.11386 0 5.77046C0 4.42711 1.10456 3.33301 2.46078 3.33301C3.817 3.33301 4.92157 4.42711 4.92157 5.77046C4.92157 7.11386 3.817 8.20796 2.46078 8.20796ZM2.46078 4.14271C1.55382 4.14271 0.81745 4.87211 0.81745 5.77046C0.81745 6.66886 1.55382 7.39826 2.46078 7.39826C3.36774 7.39826 4.10412 6.66716 4.10412 5.77046C4.10412 4.87379 3.36605 4.14271 2.46078 4.14271Z" fill="white"/>
<path d="M28.0836 4.5291C27.9721 4.37185 27.8235 4.23466 27.6394 4.11421C27.4553 3.99543 27.2375 3.90175 26.9875 3.8365C26.7375 3.77126 26.4673 3.73779 26.1768 3.73779C25.6752 3.73779 25.2665 3.80472 24.9506 3.93521C24.6348 4.06737 24.4237 4.24136 24.3173 4.45549L20.1642 12.228L16.1496 4.69137C15.8067 4.05565 15.1481 3.73779 14.1718 3.73779C13.1956 3.73779 12.5167 4.05565 12.1738 4.69137L8.15924 12.2163L7.32659 10.6604C6.78444 9.64831 5.50929 9.27186 4.49594 9.82731C3.64809 10.2924 3.33058 11.3447 3.78321 12.1928L6.22204 16.77C6.35379 17.0092 6.59359 17.2066 6.94319 17.3639C7.29279 17.5212 7.69814 17.5998 8.15924 17.5998C8.62034 17.5998 9.02904 17.5212 9.38539 17.3639C9.74179 17.2066 9.97824 17.0092 10.0964 16.77L14.1702 9.12131L18.2439 16.77C18.3486 16.9925 18.58 17.1866 18.9363 17.3522C19.2927 17.5178 19.7014 17.5998 20.1625 17.5998C20.703 17.5998 21.1319 17.5212 21.4478 17.3639C21.7636 17.2066 21.9815 17.0092 22.0997 16.77L28.0921 5.52116C28.1968 5.34886 28.2508 5.18321 28.2508 5.02596C28.2508 4.85197 28.1951 4.68802 28.0836 4.53077V4.5291Z" fill="white"/>
<path d="M20.1641 17.9029C19.6591 17.9029 19.2031 17.8092 18.8079 17.6269C18.3873 17.4312 18.1036 17.1869 17.9685 16.8992L14.1734 9.7741L10.3716 16.9125C10.2247 17.2087 9.93422 17.4563 9.51367 17.6419C9.12012 17.8159 8.66582 17.9029 8.16252 17.9029C7.65922 17.9029 7.20827 17.8143 6.81982 17.6403C6.40937 17.4563 6.11887 17.212 5.95507 16.9142L3.51455 12.3337C2.9876 11.345 3.36255 10.1003 4.35057 9.55995C4.91299 9.25215 5.56152 9.1819 6.17802 9.36425C6.79447 9.5449 7.29947 9.9548 7.60007 10.5186L8.16082 11.5675L11.9052 4.55119C12.3038 3.81175 13.0672 3.43701 14.1734 3.43701C15.2797 3.43701 16.0228 3.81175 16.4214 4.55119L20.1658 11.5809L24.047 4.31698C24.1804 4.04429 24.4456 3.82011 24.8323 3.65951C25.1853 3.51229 25.6379 3.43701 26.1767 3.43701C26.4909 3.43701 26.7898 3.47382 27.0651 3.54575C27.3455 3.61936 27.5954 3.72643 27.8065 3.86361C28.0227 4.00414 28.2001 4.16976 28.3335 4.35713C28.4821 4.56625 28.5581 4.7921 28.5581 5.028C28.5581 5.2371 28.4922 5.45455 28.3605 5.67205L22.3732 16.9142C22.2297 17.2053 21.9628 17.4512 21.5862 17.6386C21.2231 17.8193 20.7569 17.9063 20.1641 17.9063V17.9029ZM14.1717 8.4709L18.5174 16.6281C18.5968 16.7954 18.7842 16.9443 19.068 17.0765C19.3804 17.222 19.7503 17.2957 20.1641 17.2957C20.6539 17.2957 21.0407 17.2271 21.3126 17.0932C21.5659 16.9678 21.7399 16.8139 21.8277 16.6365L27.8319 5.36425C27.9079 5.24045 27.9467 5.1267 27.9467 5.0263C27.9467 4.91756 27.9096 4.81217 27.8352 4.70678C27.7457 4.58131 27.6241 4.46922 27.4721 4.37052C27.3167 4.27014 27.1259 4.18984 26.908 4.13128C26.6834 4.07273 26.4385 4.04262 26.1767 4.04262C25.719 4.04262 25.3474 4.10117 25.0705 4.2166C24.8256 4.31865 24.6651 4.44413 24.5942 4.58967L20.1658 12.8791L15.881 4.83391C15.5938 4.30192 15.0365 4.04262 14.1751 4.04262C13.3138 4.04262 12.7362 4.30192 12.449 4.83559L8.16417 12.8657L7.05962 10.803C6.83667 10.3864 6.46172 10.0819 6.00402 9.9464C5.54632 9.81255 5.06497 9.86445 4.64783 10.092C3.9503 10.4734 3.68513 11.3517 4.0567 12.051L6.49552 16.6281C6.59177 16.8038 6.78602 16.9594 7.07312 17.0865C7.38052 17.2254 7.74702 17.2957 8.16252 17.2957C8.57797 17.2957 8.94957 17.2254 9.26367 17.0865C9.55082 16.9611 9.73997 16.8088 9.82442 16.6365L14.1734 8.4709H14.1717Z" fill="white"/>
<path d="M22.2199 13.319L21.497 12.9376C20.764 12.5512 20.4837 11.6428 20.8738 10.9167L25.9778 1.41105C26.5216 0.398922 27.8035 0.0107965 28.8253 0.549481C29.6664 0.992811 29.9873 2.03506 29.5397 2.86818L24.2584 12.7017C23.8683 13.4278 22.9512 13.7055 22.2182 13.319H22.2199Z" fill="white"/>
<path d="M22.9258 13.7976C22.6386 13.7976 22.3482 13.7306 22.0762 13.5868L21.3534 13.2053C20.47 12.7403 20.1323 11.6495 20.6035 10.7729L25.7074 1.26728C26.0098 0.705175 26.5148 0.293629 27.1329 0.10626C27.7511 -0.0811085 28.403 -0.0192084 28.9705 0.280247C29.9619 0.802205 30.3402 2.0268 29.8133 3.00881L24.5319 12.8424C24.206 13.4496 23.576 13.7959 22.9258 13.7959V13.7976ZM22.365 13.0514C22.9494 13.3592 23.679 13.1384 23.9898 12.5596L29.2711 2.72608C29.6393 2.04017 29.3758 1.18363 28.6834 0.818935C28.2611 0.596435 27.7747 0.55126 27.3136 0.690115C26.8525 0.82897 26.4742 1.13679 26.2513 1.55502L21.1473 11.0606C20.8366 11.6395 21.0595 12.3622 21.6439 12.67L22.3667 13.0514H22.365Z" fill="white"/>
<path d="M8.20503 15.7732L7.65443 16.0593C6.82348 16.4909 5.78648 16.1697 5.35073 15.3466L3.57904 11.9991C3.02845 10.9568 3.43717 9.65699 4.48938 9.11159C5.40308 8.63819 6.54143 8.98949 7.01943 9.89454L8.92283 13.493C9.35858 14.3161 9.03433 15.3433 8.20333 15.7749L8.20503 15.7732Z" fill="white"/>
<path d="M6.86898 16.4791C6.67473 16.4791 6.47883 16.449 6.28633 16.3904C5.79143 16.2382 5.38778 15.9036 5.14793 15.4519L3.37626 12.1043C3.0807 11.5472 3.02328 10.9065 3.21413 10.3009C3.40498 9.69531 3.82046 9.20176 4.38287 8.90901C4.87942 8.65136 5.44858 8.60121 5.98568 8.76846C6.52273 8.93411 6.96358 9.29716 7.22198 9.78731L9.12543 13.3858C9.36523 13.8375 9.41083 14.3561 9.25713 14.8463C9.10343 15.3365 8.76568 15.7363 8.30963 15.9738L7.75903 16.2599C7.48038 16.4055 7.17468 16.4791 6.86728 16.4791H6.86898ZM5.35738 9.12651C5.10068 9.12651 4.83889 9.18671 4.59568 9.31221C3.65325 9.80236 3.28675 10.96 3.78161 11.8935L5.55328 15.2411C5.73573 15.5857 6.04478 15.84 6.42143 15.9571C6.79973 16.0742 7.19833 16.0391 7.54623 15.8584L8.09683 15.5723C8.44478 15.3917 8.70148 15.0855 8.81973 14.7125C8.93793 14.3377 8.90248 13.9429 8.72008 13.5983L6.81663 9.99976C6.52273 9.44436 5.94853 9.12651 5.35568 9.12651H5.35738Z" fill="white"/>
</g>
<defs>
<clipPath id="clip0_623_28001">
<rect width="68" height="18" fill="white"/>
</clipPath>
</defs>
</svg>
