<svg width="74" height="32" viewBox="0 0 74 32" fill="none" xmlns="http://www.w3.org/2000/svg">
    <path d="M18.0576 24.5527V29.6695H16.4341V17.0371H20.7391C21.8326 17.0371 22.7616 17.4016 23.5271 18.1306C24.3034 18.8596 24.6915 19.7482 24.6915 20.7944C24.6915 21.8406 24.3034 22.7588 23.5271 23.476C22.7744 24.1931 21.8454 24.5517 20.7391 24.5517H18.0576V24.5527ZM18.0576 18.5897V23.0001H20.7746C21.4208 23.0001 21.9568 22.7824 22.3804 22.347C22.8158 21.9116 23.0335 21.3944 23.0335 20.7944C23.0335 20.1945 22.8158 19.695 22.3804 19.2596C21.9568 18.8123 21.4218 18.5887 20.7746 18.5887H18.0576V18.5897Z" fill="#7E7A79"/>
    <path d="M29.0319 20.7422C30.2318 20.7422 31.1785 21.0624 31.872 21.7037C32.5656 22.345 32.9133 23.2237 32.9133 24.3409V29.6695H31.3608V28.4696H31.2898C30.6189 29.4577 29.7254 29.9512 28.6083 29.9512C27.6557 29.9512 26.8587 29.6695 26.2174 29.104C25.576 28.5395 25.2559 27.8342 25.2559 26.987C25.2559 26.0934 25.5938 25.3812 26.2706 24.8522C26.9473 24.3232 27.8497 24.0582 28.9787 24.0582C29.9431 24.0582 30.7372 24.2345 31.3608 24.5872V24.2168C31.3608 23.6523 31.1371 23.1735 30.6909 22.7794C30.2436 22.3854 29.7205 22.1884 29.1206 22.1884C28.2142 22.1884 27.497 22.5706 26.968 23.3351L25.5386 22.4356C26.3267 21.3067 27.4911 20.7422 29.0319 20.7422ZM26.9326 27.0234C26.9326 27.447 27.1119 27.7997 27.4704 28.0824C27.829 28.3652 28.2497 28.506 28.7314 28.506C29.4131 28.506 30.022 28.2529 30.5579 27.7475C31.0928 27.2421 31.3608 26.6481 31.3608 25.9654C30.8554 25.5654 30.149 25.3654 29.2437 25.3654C28.5846 25.3654 28.0349 25.524 27.5946 25.8422C27.1532 26.1595 26.9326 26.5545 26.9326 27.0244V27.0234Z" fill="#7E7A79"/>
    <path d="M34.7478 21.024H36.3004V22.4357H36.3713C36.853 21.3304 37.847 20.7777 39.3533 20.7777L39.6883 20.8132V22.5066L38.9652 22.4357C38.2125 22.4357 37.5919 22.6682 37.1043 23.1322C36.6156 23.5972 36.3723 24.1883 36.3723 24.9055V29.6696H34.7488V21.025L34.7478 21.024ZM44.875 29.8095C44.1696 29.8095 43.5845 29.5917 43.1195 29.1563C42.6545 28.7209 42.4161 28.115 42.4053 27.3387V22.5047H40.8882V21.023H42.4053V18.377H44.0288V21.023H46.1458V22.5047H44.0288V26.8097C44.0288 27.386 44.1401 27.7771 44.3637 27.983C44.5873 28.1889 44.8405 28.2914 45.1223 28.2914C45.2513 28.2914 45.3784 28.2766 45.5016 28.247C45.6247 28.2175 45.74 28.1791 45.8454 28.1328L46.3567 29.5789C45.933 29.7316 45.4395 29.8085 44.875 29.8085V29.8095Z" fill="#7E7A79"/>
    <path d="M47.7859 21.0249H49.3385V22.2248H49.4094C49.6567 21.8012 50.036 21.4485 50.5472 21.1658C51.0585 20.884 51.5905 20.7422 52.1441 20.7422C53.2032 20.7422 54.0169 21.0446 54.5873 21.6505C55.1577 22.2563 55.4434 23.1183 55.4434 24.2355V29.6695H53.8199V24.3409C53.7844 22.9292 53.0731 22.2238 51.6851 22.2238C51.0378 22.2238 50.497 22.4859 50.0616 23.009C49.6261 23.5321 49.4084 24.1586 49.4084 24.8876V29.6685H47.7849V21.0239L47.7859 21.0249Z" fill="#7E7A79"/>
    <path d="M61.2305 29.9522C59.9606 29.9522 58.9134 29.5168 58.0899 28.6469C57.2663 27.777 56.8545 26.6766 56.8545 25.3477C56.8545 24.0187 57.2545 22.9341 58.0544 22.0573C58.8543 21.1815 59.8779 20.7432 61.1241 20.7432C62.3703 20.7432 63.4263 21.1579 64.1849 21.9874C64.9434 22.8169 65.3227 23.9784 65.3227 25.4718L65.305 25.6482H58.5125C58.5361 26.4954 58.8179 27.1771 59.3597 27.6943C59.9005 28.2125 60.5478 28.4706 61.3004 28.4706C62.3358 28.4706 63.1466 27.9534 63.7347 26.918L65.1809 27.6234C64.7927 28.3524 64.2548 28.9228 63.5662 29.3345C62.8776 29.7463 62.0984 29.9522 61.2285 29.9522H61.2305ZM58.6366 24.3064H63.5948C63.5475 23.7065 63.3032 23.2099 62.8628 22.8159C62.4215 22.4218 61.8304 22.2248 61.0896 22.2248C60.4778 22.2248 59.9518 22.413 59.5104 22.7893C59.0691 23.1656 58.7785 23.672 58.6366 24.3064Z" fill="#7E7A79"/>
    <path d="M68.4275 29.6672H66.804V21.0227H68.3565V22.4344H68.4275C68.592 21.9753 68.9299 21.5852 69.4421 21.2611C69.9534 20.9379 70.4568 20.7754 70.9504 20.7754C71.4439 20.7754 71.8203 20.8463 72.1503 20.9872L71.6567 22.5575C71.4568 22.4757 71.1386 22.4344 70.7041 22.4344C70.0923 22.4344 69.5604 22.6816 69.1072 23.1752C68.654 23.6697 68.4275 24.246 68.4275 24.9041V29.6682V29.6672Z" fill="#7E7A79"/>
    <path d="M21.2682 6.77526V8.20742H24.6943C24.583 9.11099 24.208 9.81363 23.5693 10.3166C22.9473 10.8106 22.1794 11.0576 21.2682 11.0576C20.211 11.0576 19.3202 10.6865 18.5971 9.94546C17.8727 9.21338 17.5105 8.31364 17.5105 7.24881C17.5105 6.18397 17.8727 5.28423 18.5971 4.55216C19.3215 3.81112 20.2123 3.43997 21.2682 3.43997C22.2562 3.43997 23.1176 3.78041 23.8509 4.46257L24.8607 3.45277C23.8471 2.49032 22.6491 2.00781 21.2682 2.00781C20.3313 2.00781 19.4444 2.24587 18.6099 2.72325C17.7831 3.19168 17.1317 3.83544 16.6543 4.65327C16.1859 5.45445 15.9517 6.31963 15.9517 7.24753C15.9517 8.17542 16.1859 9.05468 16.6543 9.85587C17.1227 10.666 17.7742 11.3047 18.6099 11.7731C19.4457 12.2505 20.3313 12.4885 21.2682 12.4885C22.6824 12.4885 23.8547 12.0457 24.7839 11.1588C25.7041 10.2808 26.1649 9.11739 26.1649 7.6686C26.1649 7.32816 26.1393 7.02995 26.0881 6.77398H21.2682V6.77526Z" fill="#4B7ABD"/>
    <path d="M30.0636 5.73828C29.0998 5.73828 28.2948 6.06208 27.6472 6.70969C26.9996 7.34834 26.6758 8.14952 26.6758 9.11325C26.6758 10.077 27.0034 10.8603 27.66 11.5168C28.3076 12.1644 29.1088 12.4882 30.0636 12.4882C31.0183 12.4882 31.8195 12.1644 32.4671 11.5168C33.1237 10.8603 33.4513 10.0591 33.4513 9.11325C33.4513 8.16744 33.1237 7.34961 32.4671 6.70969C31.8195 6.06208 31.0183 5.73828 30.0636 5.73828ZM31.4048 10.5697C31.0388 10.9614 30.5908 11.1585 30.0623 11.1585C29.5337 11.1585 29.0729 10.9626 28.7069 10.5697C28.3409 10.1781 28.1579 9.69175 28.1579 9.11197C28.1579 8.5322 28.3409 8.02922 28.7069 7.65422C29.0729 7.26259 29.5247 7.06677 30.0623 7.06677C30.5998 7.06677 31.0503 7.26259 31.4176 7.65422C31.7837 8.02922 31.9667 8.51556 31.9667 9.11197C31.9667 9.70838 31.7786 10.1691 31.4048 10.5697Z" fill="#E5291F"/>
    <path d="M50.4267 2.36523H48.9434V12.2854H50.4267V2.36523Z" fill="#009E3C"/>
    <path d="M37.4517 5.73828C36.4893 5.73828 35.683 6.06208 35.0354 6.70969C34.3878 7.34834 34.064 8.14952 34.064 9.11325C34.064 10.077 34.3916 10.8603 35.0482 11.5168C35.6958 12.1644 36.497 12.4882 37.4517 12.4882C38.4065 12.4882 39.2077 12.1644 39.8553 11.5168C40.5119 10.8603 40.8395 10.0591 40.8395 9.11325C40.8395 8.16744 40.5119 7.34961 39.8553 6.70969C39.2077 6.06208 38.4065 5.73828 37.4517 5.73828ZM38.793 10.5697C38.427 10.9614 37.979 11.1585 37.4505 11.1585C36.9219 11.1585 36.4611 10.9626 36.0951 10.5697C35.7291 10.1781 35.546 9.69175 35.546 9.11197C35.546 8.5322 35.7291 8.02922 36.0951 7.65422C36.4611 7.26259 36.9129 7.06677 37.4505 7.06677C37.988 7.06677 38.4385 7.26259 38.8058 7.65422C39.1719 8.02922 39.3562 8.51556 39.3562 9.11197C39.3562 9.70838 39.168 10.1691 38.793 10.5697Z" fill="#FBB700"/>
    <path d="M54.4907 11.1585C53.7497 11.1585 53.2032 10.818 52.8538 10.1359L57.3666 8.26983L57.213 7.88587C57.094 7.57103 56.9378 7.2805 56.7458 7.01685C56.5539 6.7532 56.335 6.52411 56.088 6.33341C55.841 6.14143 55.5684 5.99425 55.2702 5.89186C54.972 5.78947 54.6571 5.73828 54.3243 5.73828C53.4208 5.73828 52.6631 6.05824 52.0488 6.69689C51.4434 7.3445 51.1414 8.14952 51.1414 9.11325C51.1414 10.077 51.4613 10.8692 52.1 11.5168C52.7386 12.1644 53.536 12.4882 54.4907 12.4882C55.6836 12.4882 56.6204 11.9891 57.3026 10.9921L56.152 10.2254C55.7347 10.8475 55.1806 11.1585 54.4907 11.1585ZM53.1238 7.60431C53.4988 7.22931 53.9161 7.04245 54.3768 7.04245C54.6661 7.04245 54.9259 7.109 55.1563 7.24083C55.3866 7.37265 55.544 7.54543 55.6285 7.75789L52.6119 9.01086C52.5953 8.44005 52.7655 7.97162 53.1238 7.60431Z" fill="#E5291F"/>
    <path d="M46.5145 6.49211H46.4633C46.0371 5.98913 45.4445 5.73828 44.6868 5.73828C43.8178 5.73828 43.0589 6.07104 42.4112 6.73529C41.7726 7.39953 41.4526 8.19688 41.4526 9.12605C41.4526 10.0552 41.7726 10.8385 42.4112 11.504C43.0678 12.1606 43.8255 12.4882 44.6868 12.4882C45.4458 12.4882 46.0371 12.2323 46.4633 11.7216H46.5145V12.0671C46.5145 13.4814 45.9142 14.1891 44.7124 14.1891C44.3285 14.1891 43.988 14.0778 43.6898 13.8564C43.3916 13.635 43.1651 13.3444 43.0128 12.9874L41.7214 13.5236C41.8494 13.8218 42.0107 14.0919 42.2077 14.335C42.4036 14.5782 42.6314 14.7868 42.8912 14.9609C43.151 15.135 43.4338 15.2719 43.741 15.3704C44.0482 15.4677 44.372 15.5176 44.7124 15.5176C45.7184 15.5176 46.5042 15.213 47.0712 14.6038C47.6382 13.9946 47.921 13.1269 47.921 12.0019V5.94306H46.5145V6.49211ZM46.0921 10.5825C45.7427 10.9665 45.3165 11.1585 44.8135 11.1585C44.285 11.1585 43.837 10.9626 43.471 10.5697C43.1126 10.1781 42.9334 9.69686 42.9334 9.12477C42.9334 8.55268 43.1164 8.05993 43.4838 7.66702C43.8588 7.26642 44.3016 7.06677 44.8135 7.06677C45.3255 7.06677 45.7504 7.26259 46.0921 7.65422C46.4415 8.05481 46.6168 8.545 46.6168 9.12477C46.6168 9.70454 46.4415 10.1819 46.0921 10.5825Z" fill="#4B7ABD"/>
    <path d="M9.8501 0.800781H1.84985V31.2008H9.8501V0.800781Z" fill="#4B7ABD"/>
</svg>
