<svg width="406" height="244" viewBox="0 0 406 244" fill="none" xmlns="http://www.w3.org/2000/svg">
<g clip-path="url(#clip0_27057_53681)">
<path d="M0.166016 16C0.166016 7.16344 7.32946 0 16.166 0H389.166C398.003 0 405.166 7.16344 405.166 16V244H0.166016V16Z" fill="#F2F4F7"/>
<g filter="url(#filter0_d_27057_53681)">
<rect x="53" y="65" width="300" height="250" rx="8.99021" fill="white"/>
<g clip-path="url(#clip1_27057_53681)">
<path fill-rule="evenodd" clip-rule="evenodd" d="M76.1873 97.1849C72.938 97.1749 70.3066 94.5336 70.3066 91.2943C70.3066 89.7564 71.072 87.6745 72.041 86.5001C72.3294 86.1478 72.9011 86.2631 73.0277 86.6894C73.1219 87.0065 73.3587 87.5376 73.6856 87.9054C73.6856 85.4333 74.7306 83.1658 76.8153 81.7059C77.2048 81.433 77.712 81.7339 77.7223 82.1643C77.7223 83.8231 78.7022 85.7167 79.9649 86.7791C81.3304 87.9054 82.1078 89.56 82.0979 91.3242C82.0779 94.5436 79.4266 97.1849 76.1873 97.1849Z" fill="#F5511E"/>
<path fill-rule="evenodd" clip-rule="evenodd" d="M76.3559 94.9402C75.7579 94.9402 75.1997 94.711 74.7711 94.2924C74.3326 93.8638 74.0934 93.2957 74.0834 92.6777C74.0634 92.3289 74.1332 91.9701 74.3027 91.6511C74.502 91.1129 75.1998 89.5181 76.8144 88.9101C77.0038 88.8403 77.2032 88.8703 77.3626 88.9898C77.5221 89.1094 77.6019 89.2988 77.5819 89.4982C77.5819 89.4982 77.5421 89.9766 77.6816 90.4949C77.7414 90.7241 77.861 90.9334 78.0405 91.1328C78.4391 91.5713 78.6484 92.1295 78.6385 92.7176C78.6086 93.9435 77.6318 94.9203 76.4058 94.9402C76.3958 94.9402 76.3759 94.9402 76.3559 94.9402Z" fill="#FF9000"/>
</g>
<path d="M92.8459 85.1399V93.8672H91.5291V85.1399H92.8459ZM95.9354 89.9808V93.8672H94.6612V87.3217H95.8842V88.3871H95.9652C96.1158 88.0405 96.3516 87.7621 96.6726 87.5518C96.9964 87.3416 97.4041 87.2365 97.8956 87.2365C98.3416 87.2365 98.7322 87.3303 99.0675 87.5178C99.4027 87.7024 99.6626 87.978 99.8473 88.3445C100.032 88.7109 100.124 89.1641 100.124 89.7038V93.8672H98.8501V89.8572C98.8501 89.3828 98.7266 89.0121 98.4794 88.745C98.2322 88.4751 97.8928 88.3402 97.4609 88.3402C97.1655 88.3402 96.9027 88.4041 96.6726 88.532C96.4453 88.6598 96.2649 88.8473 96.1314 89.0945C96.0007 89.3388 95.9354 89.6342 95.9354 89.9808ZM106.738 88.9197L105.583 89.1243C105.535 88.9766 105.458 88.8359 105.353 88.7024C105.251 88.5689 105.112 88.4595 104.935 88.3743C104.759 88.2891 104.539 88.2464 104.275 88.2464C103.914 88.2464 103.613 88.3274 103.371 88.4893C103.13 88.6484 103.009 88.8544 103.009 89.1072C103.009 89.326 103.09 89.5021 103.252 89.6357C103.414 89.7692 103.675 89.8786 104.036 89.9638L105.076 90.2024C105.678 90.3416 106.127 90.5561 106.423 90.8459C106.718 91.1357 106.866 91.5121 106.866 91.9751C106.866 92.3672 106.752 92.7166 106.525 93.0234C106.3 93.3274 105.987 93.5661 105.583 93.7393C105.183 93.9126 104.718 93.9993 104.19 93.9993C103.457 93.9993 102.859 93.843 102.396 93.5305C101.933 93.2152 101.648 92.7678 101.543 92.1882L102.775 92.0007C102.852 92.3217 103.009 92.5646 103.248 92.7294C103.487 92.8913 103.798 92.9723 104.181 92.9723C104.599 92.9723 104.933 92.8857 105.183 92.7124C105.433 92.5362 105.558 92.3217 105.558 92.0689C105.558 91.8643 105.481 91.6925 105.327 91.5533C105.177 91.4141 104.945 91.3089 104.633 91.2379L103.525 90.995C102.914 90.8558 102.462 90.6342 102.17 90.3303C101.88 90.0263 101.735 89.6413 101.735 89.1754C101.735 88.7891 101.843 88.451 102.059 88.1612C102.275 87.8714 102.573 87.6456 102.954 87.4837C103.335 87.3189 103.771 87.2365 104.262 87.2365C104.969 87.2365 105.526 87.3899 105.933 87.6967C106.339 88.0007 106.607 88.4084 106.738 88.9197ZM111.322 87.3217V88.3445H107.747V87.3217H111.322ZM108.706 85.7536H109.98V91.9453C109.98 92.1925 110.017 92.3786 110.091 92.5036C110.164 92.6257 110.26 92.7095 110.376 92.755C110.495 92.7976 110.625 92.8189 110.764 92.8189C110.866 92.8189 110.956 92.8118 111.032 92.7976C111.109 92.7834 111.169 92.772 111.211 92.7635L111.441 93.8161C111.368 93.8445 111.262 93.8729 111.126 93.9013C110.99 93.9325 110.819 93.9496 110.615 93.9524C110.279 93.9581 109.967 93.8984 109.677 93.7734C109.387 93.6484 109.153 93.4553 108.974 93.1939C108.795 92.9325 108.706 92.6044 108.706 92.2095V85.7536ZM114.636 94.0121C114.222 94.0121 113.847 93.9354 113.511 93.782C113.176 93.6257 112.911 93.3999 112.714 93.1044C112.521 92.8089 112.425 92.4467 112.425 92.0178C112.425 91.6484 112.496 91.3445 112.638 91.1058C112.78 90.8672 112.972 90.6783 113.213 90.5391C113.455 90.3999 113.724 90.2947 114.023 90.2237C114.321 90.1527 114.625 90.0987 114.935 90.0618C115.327 90.0163 115.645 89.9794 115.889 89.951C116.134 89.9197 116.311 89.87 116.422 89.8018C116.533 89.7337 116.588 89.6229 116.588 89.4695V89.4396C116.588 89.0675 116.483 88.7791 116.273 88.5746C116.065 88.37 115.756 88.2678 115.344 88.2678C114.915 88.2678 114.577 88.3629 114.33 88.5533C114.085 88.7408 113.916 88.9496 113.822 89.1797L112.625 88.907C112.767 88.5092 112.974 88.1882 113.247 87.9439C113.523 87.6967 113.839 87.5178 114.197 87.407C114.555 87.2933 114.932 87.2365 115.327 87.2365C115.588 87.2365 115.865 87.2678 116.158 87.3303C116.453 87.3899 116.729 87.5007 116.984 87.6626C117.243 87.8246 117.455 88.0561 117.619 88.3572C117.784 88.6555 117.866 89.0433 117.866 89.5206V93.8672H116.622V92.9723H116.571C116.489 93.1371 116.365 93.299 116.2 93.4581C116.036 93.6172 115.824 93.7493 115.565 93.8544C115.307 93.9595 114.997 94.0121 114.636 94.0121ZM114.913 92.9893C115.266 92.9893 115.567 92.9197 115.817 92.7805C116.07 92.6413 116.261 92.4595 116.392 92.2351C116.526 92.0078 116.592 91.7649 116.592 91.5064V90.6626C116.547 90.7081 116.459 90.7507 116.328 90.7905C116.2 90.8274 116.054 90.8601 115.889 90.8885C115.724 90.9141 115.564 90.9382 115.408 90.9609C115.251 90.9808 115.121 90.9979 115.016 91.0121C114.768 91.0433 114.543 91.0959 114.338 91.1697C114.136 91.2436 113.974 91.3501 113.852 91.4893C113.733 91.6257 113.673 91.8075 113.673 92.0348C113.673 92.3501 113.79 92.5888 114.023 92.7507C114.256 92.9098 114.553 92.9893 114.913 92.9893ZM122.308 96.4581C121.788 96.4581 121.341 96.3899 120.966 96.2536C120.593 96.1172 120.289 95.9368 120.054 95.7124C119.818 95.4879 119.642 95.2422 119.525 94.9751L120.62 94.5234C120.697 94.6484 120.799 94.7805 120.927 94.9197C121.058 95.0618 121.234 95.1825 121.456 95.282C121.68 95.3814 121.968 95.4311 122.321 95.4311C122.804 95.4311 123.203 95.3132 123.518 95.0774C123.833 94.8445 123.991 94.4723 123.991 93.9609V92.674H123.91C123.833 92.8132 123.723 92.968 123.578 93.1385C123.436 93.3089 123.24 93.4567 122.99 93.5817C122.74 93.7067 122.414 93.7692 122.014 93.7692C121.497 93.7692 121.031 93.6484 120.616 93.407C120.204 93.1626 119.877 92.8033 119.636 92.3288C119.397 91.8516 119.278 91.2649 119.278 90.5689C119.278 89.8729 119.396 89.2763 119.632 88.7791C119.87 88.282 120.197 87.9013 120.612 87.6371C121.027 87.37 121.497 87.2365 122.022 87.2365C122.429 87.2365 122.757 87.3047 123.007 87.4411C123.257 87.5746 123.451 87.7308 123.591 87.9098C123.733 88.0888 123.842 88.2464 123.919 88.3828H124.012V87.3217H125.261V94.0121C125.261 94.5746 125.13 95.0362 124.869 95.397C124.608 95.7578 124.254 96.0249 123.808 96.1982C123.365 96.3714 122.865 96.4581 122.308 96.4581ZM122.295 92.7124C122.662 92.7124 122.971 92.6271 123.224 92.4567C123.48 92.2834 123.673 92.0362 123.804 91.7152C123.937 91.3913 124.004 91.0036 124.004 90.5518C124.004 90.1115 123.939 89.7237 123.808 89.3885C123.677 89.0533 123.485 88.7919 123.233 88.6044C122.98 88.4141 122.667 88.3189 122.295 88.3189C121.912 88.3189 121.592 88.4183 121.336 88.6172C121.081 88.8132 120.887 89.0803 120.757 89.4183C120.629 89.7564 120.565 90.1342 120.565 90.5518C120.565 90.9808 120.63 91.3572 120.761 91.6811C120.892 92.005 121.085 92.2578 121.341 92.4396C121.599 92.6214 121.917 92.7124 122.295 92.7124ZM126.97 93.8672V87.3217H128.201V88.3615H128.27C128.389 88.0092 128.599 87.7322 128.9 87.5305C129.204 87.326 129.548 87.2237 129.931 87.2237C130.011 87.2237 130.105 87.2266 130.213 87.2322C130.324 87.2379 130.41 87.245 130.473 87.2536V88.4723C130.422 88.4581 130.331 88.4425 130.2 88.4254C130.069 88.4055 129.939 88.3956 129.808 88.3956C129.507 88.3956 129.238 88.4595 129.002 88.5874C128.77 88.7124 128.585 88.8871 128.449 89.1115C128.312 89.3331 128.244 89.5859 128.244 89.87V93.8672H126.97ZM133.422 94.0121C133.007 94.0121 132.632 93.9354 132.297 93.782C131.961 93.6257 131.696 93.3999 131.5 93.1044C131.306 92.8089 131.21 92.4467 131.21 92.0178C131.21 91.6484 131.281 91.3445 131.423 91.1058C131.565 90.8672 131.757 90.6783 131.998 90.5391C132.24 90.3999 132.51 90.2947 132.808 90.2237C133.106 90.1527 133.41 90.0987 133.72 90.0618C134.112 90.0163 134.43 89.9794 134.674 89.951C134.919 89.9197 135.096 89.87 135.207 89.8018C135.318 89.7337 135.373 89.6229 135.373 89.4695V89.4396C135.373 89.0675 135.268 88.7791 135.058 88.5746C134.85 88.37 134.541 88.2678 134.129 88.2678C133.7 88.2678 133.362 88.3629 133.115 88.5533C132.87 88.7408 132.701 88.9496 132.608 89.1797L131.41 88.907C131.552 88.5092 131.76 88.1882 132.032 87.9439C132.308 87.6967 132.625 87.5178 132.983 87.407C133.341 87.2933 133.717 87.2365 134.112 87.2365C134.373 87.2365 134.65 87.2678 134.943 87.3303C135.238 87.3899 135.514 87.5007 135.77 87.6626C136.028 87.8246 136.24 88.0561 136.404 88.3572C136.569 88.6555 136.652 89.0433 136.652 89.5206V93.8672H135.407V92.9723H135.356C135.274 93.1371 135.15 93.299 134.985 93.4581C134.821 93.6172 134.609 93.7493 134.35 93.8544C134.092 93.9595 133.782 94.0121 133.422 94.0121ZM133.699 92.9893C134.051 92.9893 134.352 92.9197 134.602 92.7805C134.855 92.6413 135.047 92.4595 135.177 92.2351C135.311 92.0078 135.377 91.7649 135.377 91.5064V90.6626C135.332 90.7081 135.244 90.7507 135.113 90.7905C134.985 90.8274 134.839 90.8601 134.674 90.8885C134.51 90.9141 134.349 90.9382 134.193 90.9609C134.037 90.9808 133.906 90.9979 133.801 91.0121C133.554 91.0433 133.328 91.0959 133.123 91.1697C132.922 91.2436 132.76 91.3501 132.637 91.4893C132.518 91.6257 132.458 91.8075 132.458 92.0348C132.458 92.3501 132.575 92.5888 132.808 92.7507C133.041 92.9098 133.338 92.9893 133.699 92.9893ZM138.349 93.8672V87.3217H139.572V88.3871H139.653C139.789 88.0263 140.012 87.745 140.322 87.5433C140.631 87.3388 141.002 87.2365 141.434 87.2365C141.871 87.2365 142.238 87.3388 142.533 87.5433C142.832 87.7479 143.052 88.0291 143.194 88.3871H143.262C143.418 88.0376 143.667 87.7592 144.008 87.5518C144.349 87.3416 144.755 87.2365 145.227 87.2365C145.82 87.2365 146.305 87.4226 146.68 87.7947C147.058 88.1669 147.246 88.728 147.246 89.478V93.8672H145.972V89.5973C145.972 89.1541 145.852 88.8331 145.61 88.6342C145.369 88.4354 145.08 88.3359 144.745 88.3359C144.33 88.3359 144.008 88.4638 143.778 88.7195C143.548 88.9723 143.433 89.2976 143.433 89.6953V93.8672H142.163V89.5163C142.163 89.1612 142.052 88.8757 141.83 88.6598C141.609 88.4439 141.32 88.3359 140.965 88.3359C140.724 88.3359 140.501 88.3999 140.296 88.5277C140.094 88.6527 139.931 88.8274 139.806 89.0518C139.684 89.2763 139.623 89.5362 139.623 89.8317V93.8672H138.349ZM152.232 93.8672V85.1399H157.704V86.2734H153.549V88.9325H157.418V90.0618H153.549V92.7337H157.755V93.8672H152.232ZM160.635 89.9808V93.8672H159.36V87.3217H160.583V88.3871H160.664C160.815 88.0405 161.051 87.7621 161.372 87.5518C161.696 87.3416 162.103 87.2365 162.595 87.2365C163.041 87.2365 163.431 87.3303 163.767 87.5178C164.102 87.7024 164.362 87.978 164.547 88.3445C164.731 88.7109 164.824 89.1641 164.824 89.7038V93.8672H163.549V89.8572C163.549 89.3828 163.426 89.0121 163.179 88.745C162.931 88.4751 162.592 88.3402 162.16 88.3402C161.865 88.3402 161.602 88.4041 161.372 88.532C161.145 88.6598 160.964 88.8473 160.831 89.0945C160.7 89.3388 160.635 89.6342 160.635 89.9808ZM169.277 96.4581C168.757 96.4581 168.309 96.3899 167.934 96.2536C167.562 96.1172 167.258 95.9368 167.022 95.7124C166.787 95.4879 166.61 95.2422 166.494 94.9751L167.589 94.5234C167.666 94.6484 167.768 94.7805 167.896 94.9197C168.027 95.0618 168.203 95.1825 168.424 95.282C168.649 95.3814 168.937 95.4311 169.289 95.4311C169.772 95.4311 170.172 95.3132 170.487 95.0774C170.802 94.8445 170.96 94.4723 170.96 93.9609V92.674H170.879C170.802 92.8132 170.691 92.968 170.547 93.1385C170.404 93.3089 170.208 93.4567 169.958 93.5817C169.708 93.7067 169.383 93.7692 168.983 93.7692C168.466 93.7692 168 93.6484 167.585 93.407C167.173 93.1626 166.846 92.8033 166.605 92.3288C166.366 91.8516 166.247 91.2649 166.247 90.5689C166.247 89.8729 166.365 89.2763 166.6 88.7791C166.839 88.282 167.166 87.9013 167.581 87.6371C167.995 87.37 168.466 87.2365 168.991 87.2365C169.397 87.2365 169.725 87.3047 169.975 87.4411C170.225 87.5746 170.42 87.7308 170.559 87.9098C170.701 88.0888 170.811 88.2464 170.887 88.3828H170.981V87.3217H172.23V94.0121C172.23 94.5746 172.099 95.0362 171.838 95.397C171.576 95.7578 171.223 96.0249 170.777 96.1982C170.333 96.3714 169.833 96.4581 169.277 96.4581ZM169.264 92.7124C169.63 92.7124 169.94 92.6271 170.193 92.4567C170.449 92.2834 170.642 92.0362 170.772 91.7152C170.906 91.3913 170.973 91.0036 170.973 90.5518C170.973 90.1115 170.907 89.7237 170.777 89.3885C170.646 89.0533 170.454 88.7919 170.201 88.6044C169.949 88.4141 169.636 88.3189 169.264 88.3189C168.88 88.3189 168.561 88.4183 168.305 88.6172C168.049 88.8132 167.856 89.0803 167.725 89.4183C167.598 89.7564 167.534 90.1342 167.534 90.5518C167.534 90.9808 167.599 91.3572 167.73 91.6811C167.86 92.005 168.054 92.2578 168.309 92.4396C168.568 92.6214 168.886 92.7124 169.264 92.7124ZM175.843 94.0121C175.429 94.0121 175.054 93.9354 174.718 93.782C174.383 93.6257 174.118 93.3999 173.922 93.1044C173.728 92.8089 173.632 92.4467 173.632 92.0178C173.632 91.6484 173.703 91.3445 173.845 91.1058C173.987 90.8672 174.179 90.6783 174.42 90.5391C174.662 90.3999 174.931 90.2947 175.23 90.2237C175.528 90.1527 175.832 90.0987 176.142 90.0618C176.534 90.0163 176.852 89.9794 177.096 89.951C177.341 89.9197 177.518 89.87 177.629 89.8018C177.74 89.7337 177.795 89.6229 177.795 89.4695V89.4396C177.795 89.0675 177.69 88.7791 177.48 88.5746C177.272 88.37 176.963 88.2678 176.551 88.2678C176.122 88.2678 175.784 88.3629 175.537 88.5533C175.292 88.7408 175.123 88.9496 175.029 89.1797L173.832 88.907C173.974 88.5092 174.181 88.1882 174.454 87.9439C174.73 87.6967 175.047 87.5178 175.404 87.407C175.762 87.2933 176.139 87.2365 176.534 87.2365C176.795 87.2365 177.072 87.2678 177.365 87.3303C177.66 87.3899 177.936 87.5007 178.191 87.6626C178.45 87.8246 178.662 88.0561 178.826 88.3572C178.991 88.6555 179.074 89.0433 179.074 89.5206V93.8672H177.829V92.9723H177.778C177.696 93.1371 177.572 93.299 177.407 93.4581C177.243 93.6172 177.031 93.7493 176.772 93.8544C176.514 93.9595 176.204 94.0121 175.843 94.0121ZM176.12 92.9893C176.473 92.9893 176.774 92.9197 177.024 92.7805C177.277 92.6413 177.468 92.4595 177.599 92.2351C177.733 92.0078 177.799 91.7649 177.799 91.5064V90.6626C177.754 90.7081 177.666 90.7507 177.535 90.7905C177.407 90.8274 177.261 90.8601 177.096 90.8885C176.931 90.9141 176.771 90.9382 176.615 90.9609C176.458 90.9808 176.328 90.9979 176.223 91.0121C175.975 91.0433 175.75 91.0959 175.545 91.1697C175.343 91.2436 175.181 91.3501 175.059 91.4893C174.94 91.6257 174.88 91.8075 174.88 92.0348C174.88 92.3501 174.997 92.5888 175.23 92.7507C175.463 92.9098 175.76 92.9893 176.12 92.9893ZM183.515 96.4581C182.995 96.4581 182.548 96.3899 182.173 96.2536C181.8 96.1172 181.496 95.9368 181.261 95.7124C181.025 95.4879 180.849 95.2422 180.732 94.9751L181.827 94.5234C181.904 94.6484 182.006 94.7805 182.134 94.9197C182.265 95.0618 182.441 95.1825 182.663 95.282C182.887 95.3814 183.175 95.4311 183.528 95.4311C184.011 95.4311 184.41 95.3132 184.725 95.0774C185.04 94.8445 185.198 94.4723 185.198 93.9609V92.674H185.117C185.04 92.8132 184.93 92.968 184.785 93.1385C184.643 93.3089 184.447 93.4567 184.197 93.5817C183.947 93.7067 183.621 93.7692 183.221 93.7692C182.704 93.7692 182.238 93.6484 181.823 93.407C181.411 93.1626 181.085 92.8033 180.843 92.3288C180.604 91.8516 180.485 91.2649 180.485 90.5689C180.485 89.8729 180.603 89.2763 180.839 88.7791C181.077 88.282 181.404 87.9013 181.819 87.6371C182.234 87.37 182.704 87.2365 183.229 87.2365C183.636 87.2365 183.964 87.3047 184.214 87.4411C184.464 87.5746 184.658 87.7308 184.798 87.9098C184.94 88.0888 185.049 88.2464 185.126 88.3828H185.219V87.3217H186.468V94.0121C186.468 94.5746 186.337 95.0362 186.076 95.397C185.815 95.7578 185.461 96.0249 185.015 96.1982C184.572 96.3714 184.072 96.4581 183.515 96.4581ZM183.502 92.7124C183.869 92.7124 184.178 92.6271 184.431 92.4567C184.687 92.2834 184.88 92.0362 185.011 91.7152C185.144 91.3913 185.211 91.0036 185.211 90.5518C185.211 90.1115 185.146 89.7237 185.015 89.3885C184.884 89.0533 184.692 88.7919 184.44 88.6044C184.187 88.4141 183.874 88.3189 183.502 88.3189C183.119 88.3189 182.799 88.4183 182.543 88.6172C182.288 88.8132 182.094 89.0803 181.964 89.4183C181.836 89.7564 181.772 90.1342 181.772 90.5518C181.772 90.9808 181.837 91.3572 181.968 91.6811C182.099 92.005 182.292 92.2578 182.548 92.4396C182.806 92.6214 183.124 92.7124 183.502 92.7124ZM190.998 93.9993C190.353 93.9993 189.798 93.8615 189.332 93.5859C188.869 93.3075 188.511 92.9169 188.258 92.4141C188.008 91.9084 187.883 91.3161 187.883 90.6371C187.883 89.9666 188.008 89.3757 188.258 88.8643C188.511 88.353 188.863 87.9538 189.315 87.6669C189.769 87.38 190.3 87.2365 190.908 87.2365C191.278 87.2365 191.636 87.2976 191.982 87.4197C192.329 87.5419 192.64 87.7337 192.915 87.995C193.191 88.2564 193.408 88.5959 193.567 89.0135C193.727 89.4283 193.806 89.9325 193.806 90.5263V90.978H188.603V90.0234H192.558C192.558 89.6882 192.489 89.3913 192.353 89.1328C192.217 88.8714 192.025 88.6655 191.778 88.5149C191.533 88.3643 191.246 88.2891 190.917 88.2891C190.559 88.2891 190.246 88.3771 189.979 88.5533C189.715 88.7266 189.511 88.9538 189.366 89.2351C189.224 89.5135 189.153 89.8161 189.153 90.1428V90.8885C189.153 91.326 189.229 91.6982 189.383 92.005C189.539 92.3118 189.756 92.5462 190.035 92.7081C190.313 92.8672 190.638 92.9467 191.011 92.9467C191.252 92.9467 191.472 92.9126 191.671 92.8445C191.87 92.7734 192.042 92.6683 192.187 92.5291C192.332 92.3899 192.442 92.218 192.519 92.0135L193.725 92.2308C193.629 92.5859 193.455 92.897 193.205 93.1641C192.958 93.4283 192.647 93.6342 192.272 93.782C191.9 93.9268 191.475 93.9993 190.998 93.9993ZM195.22 93.8672V87.3217H196.443V88.3871H196.524C196.66 88.0263 196.883 87.745 197.193 87.5433C197.502 87.3388 197.873 87.2365 198.305 87.2365C198.743 87.2365 199.109 87.3388 199.404 87.5433C199.703 87.7479 199.923 88.0291 200.065 88.3871H200.133C200.289 88.0376 200.538 87.7592 200.879 87.5518C201.22 87.3416 201.626 87.2365 202.098 87.2365C202.691 87.2365 203.176 87.4226 203.551 87.7947C203.929 88.1669 204.118 88.728 204.118 89.478V93.8672H202.843V89.5973C202.843 89.1541 202.723 88.8331 202.481 88.6342C202.24 88.4354 201.951 88.3359 201.616 88.3359C201.201 88.3359 200.879 88.4638 200.649 88.7195C200.419 88.9723 200.304 89.2976 200.304 89.6953V93.8672H199.034V89.5163C199.034 89.1612 198.923 88.8757 198.701 88.6598C198.48 88.4439 198.191 88.3359 197.836 88.3359C197.595 88.3359 197.372 88.3999 197.167 88.5277C196.966 88.6527 196.802 88.8274 196.677 89.0518C196.555 89.2763 196.494 89.5362 196.494 89.8317V93.8672H195.22ZM208.646 93.9993C208.001 93.9993 207.446 93.8615 206.98 93.5859C206.517 93.3075 206.159 92.9169 205.906 92.4141C205.656 91.9084 205.531 91.3161 205.531 90.6371C205.531 89.9666 205.656 89.3757 205.906 88.8643C206.159 88.353 206.511 87.9538 206.963 87.6669C207.418 87.38 207.949 87.2365 208.557 87.2365C208.926 87.2365 209.284 87.2976 209.631 87.4197C209.977 87.5419 210.288 87.7337 210.564 87.995C210.839 88.2564 211.057 88.5959 211.216 89.0135C211.375 89.4283 211.455 89.9325 211.455 90.5263V90.978H206.251V90.0234H210.206C210.206 89.6882 210.138 89.3913 210.001 89.1328C209.865 88.8714 209.673 88.6655 209.426 88.5149C209.182 88.3643 208.895 88.2891 208.565 88.2891C208.207 88.2891 207.895 88.3771 207.628 88.5533C207.364 88.7266 207.159 88.9538 207.014 89.2351C206.872 89.5135 206.801 89.8161 206.801 90.1428V90.8885C206.801 91.326 206.878 91.6982 207.031 92.005C207.188 92.3118 207.405 92.5462 207.683 92.7081C207.962 92.8672 208.287 92.9467 208.659 92.9467C208.901 92.9467 209.121 92.9126 209.32 92.8445C209.518 92.7734 209.69 92.6683 209.835 92.5291C209.98 92.3899 210.091 92.218 210.168 92.0135L211.374 92.2308C211.277 92.5859 211.104 92.897 210.854 93.1641C210.607 93.4283 210.295 93.6342 209.92 93.782C209.548 93.9268 209.124 93.9993 208.646 93.9993ZM214.142 89.9808V93.8672H212.868V87.3217H214.091V88.3871H214.172C214.323 88.0405 214.559 87.7621 214.88 87.5518C215.203 87.3416 215.611 87.2365 216.103 87.2365C216.549 87.2365 216.939 87.3303 217.275 87.5178C217.61 87.7024 217.87 87.978 218.054 88.3445C218.239 88.7109 218.331 89.1641 218.331 89.7038V93.8672H217.057V89.8572C217.057 89.3828 216.934 89.0121 216.686 88.745C216.439 88.4751 216.1 88.3402 215.668 88.3402C215.373 88.3402 215.11 88.4041 214.88 88.532C214.652 88.6598 214.472 88.8473 214.338 89.0945C214.208 89.3388 214.142 89.6342 214.142 89.9808ZM223.096 87.3217V88.3445H219.52V87.3217H223.096ZM220.479 85.7536H221.753V91.9453C221.753 92.1925 221.79 92.3786 221.864 92.5036C221.938 92.6257 222.033 92.7095 222.15 92.755C222.269 92.7976 222.398 92.8189 222.537 92.8189C222.64 92.8189 222.729 92.8118 222.806 92.7976C222.882 92.7834 222.942 92.772 222.985 92.7635L223.215 93.8161C223.141 93.8445 223.036 93.8729 222.9 93.9013C222.763 93.9325 222.593 93.9496 222.388 93.9524C222.053 93.9581 221.74 93.8984 221.451 93.7734C221.161 93.6484 220.926 93.4553 220.748 93.1939C220.569 92.9325 220.479 92.6044 220.479 92.2095V85.7536ZM227.783 93.8672V85.1399H230.894C231.57 85.1399 232.131 85.2564 232.577 85.4893C233.026 85.7223 233.361 86.0447 233.583 86.4567C233.804 86.8658 233.915 87.3388 233.915 87.8757C233.915 88.4098 233.803 88.88 233.578 89.2862C233.357 89.6896 233.022 90.0036 232.573 90.228C232.127 90.4524 231.566 90.5646 230.89 90.5646H228.533V89.4311H230.77C231.196 89.4311 231.543 89.37 231.81 89.2479C232.08 89.1257 232.277 88.9482 232.402 88.7152C232.527 88.4822 232.59 88.2024 232.59 87.8757C232.59 87.5462 232.526 87.2607 232.398 87.0192C232.273 86.7777 232.076 86.593 231.806 86.4652C231.539 86.3345 231.188 86.2692 230.753 86.2692H229.1V93.8672H227.783ZM232.091 89.9297L234.248 93.8672H232.748L230.634 89.9297H232.091ZM237.32 94.0121C236.905 94.0121 236.53 93.9354 236.195 93.782C235.86 93.6257 235.594 93.3999 235.398 93.1044C235.205 92.8089 235.108 92.4467 235.108 92.0178C235.108 91.6484 235.179 91.3445 235.321 91.1058C235.463 90.8672 235.655 90.6783 235.897 90.5391C236.138 90.3999 236.408 90.2947 236.706 90.2237C237.005 90.1527 237.309 90.0987 237.618 90.0618C238.01 90.0163 238.328 89.9794 238.573 89.951C238.817 89.9197 238.995 89.87 239.105 89.8018C239.216 89.7337 239.272 89.6229 239.272 89.4695V89.4396C239.272 89.0675 239.167 88.7791 238.956 88.5746C238.749 88.37 238.439 88.2678 238.027 88.2678C237.598 88.2678 237.26 88.3629 237.013 88.5533C236.769 88.7408 236.6 88.9496 236.506 89.1797L235.309 88.907C235.451 88.5092 235.658 88.1882 235.931 87.9439C236.206 87.6967 236.523 87.5178 236.881 87.407C237.239 87.2933 237.615 87.2365 238.01 87.2365C238.272 87.2365 238.549 87.2678 238.841 87.3303C239.137 87.3899 239.412 87.5007 239.668 87.6626C239.926 87.8246 240.138 88.0561 240.303 88.3572C240.468 88.6555 240.55 89.0433 240.55 89.5206V93.8672H239.306V92.9723H239.255C239.172 93.1371 239.049 93.299 238.884 93.4581C238.719 93.6172 238.507 93.7493 238.249 93.8544C237.99 93.9595 237.681 94.0121 237.32 94.0121ZM237.597 92.9893C237.949 92.9893 238.25 92.9197 238.5 92.7805C238.753 92.6413 238.945 92.4595 239.076 92.2351C239.209 92.0078 239.276 91.7649 239.276 91.5064V90.6626C239.23 90.7081 239.142 90.7507 239.012 90.7905C238.884 90.8274 238.738 90.8601 238.573 90.8885C238.408 90.9141 238.248 90.9382 238.091 90.9609C237.935 90.9808 237.804 90.9979 237.699 91.0121C237.452 91.0433 237.226 91.0959 237.022 91.1697C236.82 91.2436 236.658 91.3501 236.536 91.4893C236.417 91.6257 236.357 91.8075 236.357 92.0348C236.357 92.3501 236.473 92.5888 236.706 92.7507C236.939 92.9098 237.236 92.9893 237.597 92.9893ZM245.303 87.3217V88.3445H241.727V87.3217H245.303ZM242.686 85.7536H243.96V91.9453C243.96 92.1925 243.997 92.3786 244.071 92.5036C244.145 92.6257 244.24 92.7095 244.357 92.755C244.476 92.7976 244.605 92.8189 244.744 92.8189C244.847 92.8189 244.936 92.8118 245.013 92.7976C245.089 92.7834 245.149 92.772 245.192 92.7635L245.422 93.8161C245.348 93.8445 245.243 93.8729 245.107 93.9013C244.97 93.9325 244.8 93.9496 244.595 93.9524C244.26 93.9581 243.947 93.8984 243.658 93.7734C243.368 93.6484 243.134 93.4553 242.955 93.1939C242.776 92.9325 242.686 92.6044 242.686 92.2095V85.7536ZM249.463 93.9993C248.818 93.9993 248.262 93.8615 247.797 93.5859C247.333 93.3075 246.975 92.9169 246.723 92.4141C246.473 91.9084 246.348 91.3161 246.348 90.6371C246.348 89.9666 246.473 89.3757 246.723 88.8643C246.975 88.353 247.328 87.9538 247.779 87.6669C248.234 87.38 248.765 87.2365 249.373 87.2365C249.743 87.2365 250.1 87.2976 250.447 87.4197C250.794 87.5419 251.105 87.7337 251.38 87.995C251.656 88.2564 251.873 88.5959 252.032 89.0135C252.191 89.4283 252.271 89.9325 252.271 90.5263V90.978H247.068V90.0234H251.022C251.022 89.6882 250.954 89.3913 250.818 89.1328C250.681 88.8714 250.49 88.6655 250.243 88.5149C249.998 88.3643 249.711 88.2891 249.382 88.2891C249.024 88.2891 248.711 88.3771 248.444 88.5533C248.18 88.7266 247.975 88.9538 247.831 89.2351C247.689 89.5135 247.618 89.8161 247.618 90.1428V90.8885C247.618 91.326 247.694 91.6982 247.848 92.005C248.004 92.3118 248.221 92.5462 248.5 92.7081C248.778 92.8672 249.103 92.9467 249.475 92.9467C249.717 92.9467 249.937 92.9126 250.136 92.8445C250.335 92.7734 250.507 92.6683 250.652 92.5291C250.797 92.3899 250.907 92.218 250.984 92.0135L252.19 92.2308C252.093 92.5859 251.92 92.897 251.67 93.1641C251.423 93.4283 251.112 93.6342 250.737 93.782C250.365 93.9268 249.94 93.9993 249.463 93.9993ZM264.211 87.978H262.882C262.831 87.6939 262.735 87.4439 262.596 87.228C262.457 87.0121 262.287 86.8288 262.085 86.6783C261.883 86.5277 261.657 86.4141 261.407 86.3374C261.16 86.2607 260.897 86.2223 260.619 86.2223C260.116 86.2223 259.666 86.3487 259.268 86.6016C258.873 86.8544 258.561 87.2251 258.331 87.7138C258.103 88.2024 257.99 88.799 257.99 89.5036C257.99 90.2138 258.103 90.8132 258.331 91.3018C258.561 91.7905 258.875 92.1598 259.272 92.4098C259.67 92.6598 260.118 92.7848 260.615 92.7848C260.89 92.7848 261.152 92.7479 261.399 92.674C261.649 92.5973 261.875 92.4851 262.076 92.3374C262.278 92.1896 262.449 92.0092 262.588 91.7962C262.73 91.5803 262.828 91.3331 262.882 91.0547L264.211 91.0589C264.14 91.4879 264.002 91.8828 263.798 92.2436C263.596 92.6016 263.336 92.9112 263.018 93.1726C262.703 93.4311 262.342 93.6314 261.936 93.7734C261.529 93.9155 261.086 93.9865 260.606 93.9865C259.85 93.9865 259.177 93.8075 258.586 93.4496C257.995 93.0888 257.529 92.5732 257.189 91.9027C256.85 91.2322 256.681 90.4325 256.681 89.5036C256.681 88.5717 256.852 87.772 257.193 87.1044C257.534 86.4339 258 85.9197 258.591 85.5618C259.181 85.201 259.853 85.0206 260.606 85.0206C261.069 85.0206 261.501 85.0874 261.902 85.2209C262.305 85.3516 262.667 85.5447 262.988 85.8004C263.309 86.0533 263.575 86.3629 263.785 86.7294C263.995 87.093 264.137 87.5092 264.211 87.978ZM267.589 94.0121C267.175 94.0121 266.8 93.9354 266.464 93.782C266.129 93.6257 265.864 93.3999 265.668 93.1044C265.474 92.8089 265.378 92.4467 265.378 92.0178C265.378 91.6484 265.449 91.3445 265.591 91.1058C265.733 90.8672 265.925 90.6783 266.166 90.5391C266.408 90.3999 266.678 90.2947 266.976 90.2237C267.274 90.1527 267.578 90.0987 267.888 90.0618C268.28 90.0163 268.598 89.9794 268.842 89.951C269.087 89.9197 269.264 89.87 269.375 89.8018C269.486 89.7337 269.541 89.6229 269.541 89.4695V89.4396C269.541 89.0675 269.436 88.7791 269.226 88.5746C269.018 88.37 268.709 88.2678 268.297 88.2678C267.868 88.2678 267.53 88.3629 267.283 88.5533C267.038 88.7408 266.869 88.9496 266.776 89.1797L265.578 88.907C265.72 88.5092 265.928 88.1882 266.2 87.9439C266.476 87.6967 266.793 87.5178 267.151 87.407C267.509 87.2933 267.885 87.2365 268.28 87.2365C268.541 87.2365 268.818 87.2678 269.111 87.3303C269.406 87.3899 269.682 87.5007 269.938 87.6626C270.196 87.8246 270.408 88.0561 270.572 88.3572C270.737 88.6555 270.82 89.0433 270.82 89.5206V93.8672H269.575V92.9723H269.524C269.442 93.1371 269.318 93.299 269.153 93.4581C268.989 93.6172 268.777 93.7493 268.518 93.8544C268.26 93.9595 267.95 94.0121 267.589 94.0121ZM267.866 92.9893C268.219 92.9893 268.52 92.9197 268.77 92.7805C269.023 92.6413 269.214 92.4595 269.345 92.2351C269.479 92.0078 269.545 91.7649 269.545 91.5064V90.6626C269.5 90.7081 269.412 90.7507 269.281 90.7905C269.153 90.8274 269.007 90.8601 268.842 90.8885C268.678 90.9141 268.517 90.9382 268.361 90.9609C268.205 90.9808 268.074 90.9979 267.969 91.0121C267.722 91.0433 267.496 91.0959 267.291 91.1697C267.089 91.2436 266.928 91.3501 266.805 91.4893C266.686 91.6257 266.626 91.8075 266.626 92.0348C266.626 92.3501 266.743 92.5888 266.976 92.7507C267.209 92.9098 267.506 92.9893 267.866 92.9893ZM273.791 85.1399V93.8672H272.517V85.1399H273.791ZM278.262 93.9993C277.629 93.9993 277.083 93.8558 276.626 93.5689C276.171 93.2791 275.822 92.88 275.577 92.3714C275.333 91.8629 275.211 91.2805 275.211 90.6243C275.211 89.9595 275.336 89.3729 275.586 88.8643C275.836 88.353 276.188 87.9538 276.643 87.6669C277.097 87.38 277.633 87.2365 278.249 87.2365C278.746 87.2365 279.19 87.3288 279.579 87.5135C279.968 87.6953 280.282 87.951 280.521 88.2805C280.762 88.6101 280.906 88.995 280.951 89.4354H279.711C279.643 89.1286 279.487 88.8643 279.242 88.6428C279.001 88.4212 278.677 88.3104 278.271 88.3104C277.915 88.3104 277.604 88.4041 277.337 88.5916C277.073 88.7763 276.867 89.0405 276.719 89.3842C276.572 89.7251 276.498 90.1286 276.498 90.5945C276.498 91.0717 276.57 91.4837 276.715 91.8303C276.86 92.1768 277.065 92.4453 277.329 92.6357C277.596 92.826 277.91 92.9212 278.271 92.9212C278.512 92.9212 278.731 92.8771 278.927 92.7891C279.126 92.6982 279.292 92.5689 279.425 92.4013C279.562 92.2337 279.657 92.032 279.711 91.7962H280.951C280.906 92.2195 280.768 92.5973 280.538 92.9297C280.308 93.2621 279.999 93.5234 279.613 93.7138C279.229 93.9041 278.779 93.9993 278.262 93.9993ZM286.46 91.1527V87.3217H287.738V93.8672H286.485V92.7337H286.417C286.267 93.0831 286.025 93.3743 285.693 93.6072C285.363 93.8374 284.953 93.9524 284.461 93.9524C284.041 93.9524 283.669 93.8601 283.345 93.6754C283.024 93.4879 282.771 93.2109 282.586 92.8445C282.404 92.478 282.314 92.0249 282.314 91.4851V87.3217H283.588V91.3317C283.588 91.7777 283.711 92.1328 283.958 92.397C284.206 92.6612 284.527 92.7933 284.922 92.7933C285.16 92.7933 285.397 92.7337 285.633 92.6143C285.872 92.495 286.069 92.3146 286.225 92.0732C286.385 91.8317 286.463 91.5249 286.46 91.1527ZM290.724 85.1399V93.8672H289.45V85.1399H290.724ZM294.343 94.0121C293.929 94.0121 293.554 93.9354 293.218 93.782C292.883 93.6257 292.618 93.3999 292.422 93.1044C292.228 92.8089 292.132 92.4467 292.132 92.0178C292.132 91.6484 292.203 91.3445 292.345 91.1058C292.487 90.8672 292.679 90.6783 292.92 90.5391C293.162 90.3999 293.431 90.2947 293.73 90.2237C294.028 90.1527 294.332 90.0987 294.642 90.0618C295.034 90.0163 295.352 89.9794 295.596 89.951C295.841 89.9197 296.018 89.87 296.129 89.8018C296.24 89.7337 296.295 89.6229 296.295 89.4695V89.4396C296.295 89.0675 296.19 88.7791 295.98 88.5746C295.772 88.37 295.463 88.2678 295.051 88.2678C294.622 88.2678 294.284 88.3629 294.037 88.5533C293.792 88.7408 293.623 88.9496 293.529 89.1797L292.332 88.907C292.474 88.5092 292.681 88.1882 292.954 87.9439C293.23 87.6967 293.547 87.5178 293.904 87.407C294.262 87.2933 294.639 87.2365 295.034 87.2365C295.295 87.2365 295.572 87.2678 295.865 87.3303C296.16 87.3899 296.436 87.5007 296.691 87.6626C296.95 87.8246 297.162 88.0561 297.326 88.3572C297.491 88.6555 297.574 89.0433 297.574 89.5206V93.8672H296.329V92.9723H296.278C296.196 93.1371 296.072 93.299 295.907 93.4581C295.743 93.6172 295.531 93.7493 295.272 93.8544C295.014 93.9595 294.704 94.0121 294.343 94.0121ZM294.62 92.9893C294.973 92.9893 295.274 92.9197 295.524 92.7805C295.777 92.6413 295.968 92.4595 296.099 92.2351C296.233 92.0078 296.299 91.7649 296.299 91.5064V90.6626C296.254 90.7081 296.166 90.7507 296.035 90.7905C295.907 90.8274 295.761 90.8601 295.596 90.8885C295.431 90.9141 295.271 90.9382 295.115 90.9609C294.958 90.9808 294.828 90.9979 294.723 91.0121C294.475 91.0433 294.25 91.0959 294.045 91.1697C293.843 91.2436 293.681 91.3501 293.559 91.4893C293.44 91.6257 293.38 91.8075 293.38 92.0348C293.38 92.3501 293.497 92.5888 293.73 92.7507C293.963 92.9098 294.26 92.9893 294.62 92.9893ZM302.326 87.3217V88.3445H298.751V87.3217H302.326ZM299.71 85.7536H300.984V91.9453C300.984 92.1925 301.021 92.3786 301.094 92.5036C301.168 92.6257 301.263 92.7095 301.38 92.755C301.499 92.7976 301.629 92.8189 301.768 92.8189C301.87 92.8189 301.96 92.8118 302.036 92.7976C302.113 92.7834 302.173 92.772 302.215 92.7635L302.445 93.8161C302.371 93.8445 302.266 93.8729 302.13 93.9013C301.994 93.9325 301.823 93.9496 301.619 93.9524C301.283 93.9581 300.971 93.8984 300.681 93.7734C300.391 93.6484 300.157 93.4553 299.978 93.1939C299.799 92.9325 299.71 92.6044 299.71 92.2095V85.7536ZM306.422 93.9993C305.809 93.9993 305.273 93.8587 304.816 93.5774C304.358 93.2962 304.003 92.9027 303.75 92.397C303.498 91.8913 303.371 91.3004 303.371 90.6243C303.371 89.9453 303.498 89.3516 303.75 88.843C304.003 88.3345 304.358 87.9396 304.816 87.6584C305.273 87.3771 305.809 87.2365 306.422 87.2365C307.036 87.2365 307.571 87.3771 308.029 87.6584C308.486 87.9396 308.841 88.3345 309.094 88.843C309.347 89.3516 309.473 89.9453 309.473 90.6243C309.473 91.3004 309.347 91.8913 309.094 92.397C308.841 92.9027 308.486 93.2962 308.029 93.5774C307.571 93.8587 307.036 93.9993 306.422 93.9993ZM306.426 92.9297C306.824 92.9297 307.154 92.8246 307.415 92.6143C307.676 92.4041 307.87 92.1243 307.995 91.7749C308.123 91.4254 308.186 91.0405 308.186 90.62C308.186 90.2024 308.123 89.8189 307.995 89.4695C307.87 89.1172 307.676 88.8345 307.415 88.6214C307.154 88.4084 306.824 88.3018 306.426 88.3018C306.026 88.3018 305.694 88.4084 305.429 88.6214C305.168 88.8345 304.973 89.1172 304.846 89.4695C304.721 89.8189 304.658 90.2024 304.658 90.62C304.658 91.0405 304.721 91.4254 304.846 91.7749C304.973 92.1243 305.168 92.4041 305.429 92.6143C305.694 92.8246 306.026 92.9297 306.426 92.9297ZM310.896 93.8672V87.3217H312.127V88.3615H312.195C312.315 88.0092 312.525 87.7322 312.826 87.5305C313.13 87.326 313.474 87.2237 313.857 87.2237C313.937 87.2237 314.031 87.2266 314.138 87.2322C314.249 87.2379 314.336 87.245 314.398 87.2536V88.4723C314.347 88.4581 314.256 88.4425 314.126 88.4254C313.995 88.4055 313.864 88.3956 313.734 88.3956C313.433 88.3956 313.164 88.4595 312.928 88.5874C312.695 88.7124 312.511 88.8871 312.374 89.1115C312.238 89.3331 312.17 89.5859 312.17 89.87V93.8672H310.896Z" fill="#05001D"/>
<rect x="68.3585" y="111.359" width="271.283" height="150.283" rx="5.37792" stroke="#EAECF0" stroke-width="0.717056"/>
<rect x="80.36" y="199.756" width="51.28" height="53.28" rx="5.64" fill="url(#paint0_linear_27057_53681)"/>
<rect x="80.36" y="199.756" width="51.28" height="53.28" rx="5.64" stroke="#EAECF0" stroke-width="0.72"/>
<rect x="145.694" y="169.756" width="51.28" height="83.28" rx="5.64" fill="url(#paint1_linear_27057_53681)"/>
<rect x="145.694" y="169.756" width="51.28" height="83.28" rx="5.64" stroke="#EAECF0" stroke-width="0.72"/>
<rect x="211.026" y="154.756" width="51.28" height="98.28" rx="5.64" fill="url(#paint2_linear_27057_53681)"/>
<rect x="211.026" y="154.756" width="51.28" height="98.28" rx="5.64" stroke="#EAECF0" stroke-width="0.72"/>
<rect x="276.5" y="131.896" width="51" height="121" rx="5.5" fill="url(#paint3_linear_27057_53681)"/>
<rect x="276.5" y="131.896" width="51" height="121" rx="5.5" stroke="#FFD400"/>
</g>
<g filter="url(#filter1_d_27057_53681)">
<path d="M324.898 43.5243C325.6 39.6497 325.951 37.7124 326.974 36.3692C327.873 35.1877 329.123 34.3212 330.545 33.8939C332.162 33.4081 334.099 33.7593 337.974 34.4617L364.262 39.2273C368.137 39.9297 370.074 40.2809 371.418 41.3032C372.599 42.2025 373.466 43.4527 373.893 44.8747C374.379 46.4913 374.028 48.4286 373.325 52.3032L368.56 78.5933C367.857 82.4679 367.506 84.4052 366.484 85.7484C365.585 86.9299 364.334 87.7965 362.912 88.2238C361.296 88.7095 359.358 88.3583 355.484 87.656L329.195 82.8903C325.32 82.188 323.383 81.8368 322.04 80.8144C320.858 79.9152 319.992 78.665 319.564 77.243C319.079 75.6264 319.43 73.6891 320.132 69.8144L324.898 43.5243Z" fill="url(#paint4_radial_27057_53681)"/>
<path d="M324.898 43.5243C325.6 39.6497 325.951 37.7124 326.974 36.3692C327.873 35.1877 329.123 34.3212 330.545 33.8939C332.162 33.4081 334.099 33.7593 337.974 34.4617L364.262 39.2273C368.137 39.9297 370.074 40.2809 371.418 41.3032C372.599 42.2025 373.466 43.4527 373.893 44.8747C374.379 46.4913 374.028 48.4286 373.325 52.3032L368.56 78.5933C367.857 82.4679 367.506 84.4052 366.484 85.7484C365.585 86.9299 364.334 87.7965 362.912 88.2238C361.296 88.7095 359.358 88.3583 355.484 87.656L329.195 82.8903C325.32 82.188 323.383 81.8368 322.04 80.8144C320.858 79.9152 319.992 78.665 319.564 77.243C319.079 75.6264 319.43 73.6891 320.132 69.8144L324.898 43.5243Z" fill="url(#paint5_radial_27057_53681)"/>
<path d="M364.53 37.7513C366.443 38.0981 367.967 38.373 369.176 38.6958C370.402 39.0232 371.434 39.4306 372.326 40.1095C373.76 41.2006 374.811 42.7179 375.33 44.4432C375.652 45.5166 375.672 46.6257 375.548 47.889C375.425 49.1348 375.148 50.6583 374.801 52.5711L370.036 78.8605C369.689 80.7732 369.414 82.2973 369.091 83.5067C368.764 84.7331 368.356 85.7648 367.678 86.6567C366.587 88.0903 365.069 89.1419 363.344 89.6603C362.27 89.9829 361.162 90.0023 359.898 89.8783C358.652 89.7561 357.129 89.4785 355.216 89.1318L328.928 84.3663C327.015 84.0195 325.491 83.7446 324.281 83.4218C323.055 83.0944 322.023 82.6869 321.132 82.0081C319.698 80.917 318.646 79.3997 318.128 77.6743C317.805 76.601 317.786 75.4919 317.91 74.2286C318.032 72.9828 318.31 71.4593 318.656 69.5465L323.422 43.2571C323.769 41.3443 324.043 39.8203 324.366 38.6108C324.694 37.3844 325.101 36.3528 325.78 35.4609C326.871 34.0273 328.388 32.9757 330.114 32.4572C331.187 32.1347 332.296 32.1153 333.559 32.2393C334.805 32.3615 336.329 32.6391 338.241 32.9858L364.53 37.7513Z" fill="url(#paint6_radial_27057_53681)" stroke="white" stroke-width="3"/>
<path d="M360.56 53.7411C360.3 55.174 358.928 56.125 357.495 55.8652C356.062 55.6055 355.111 54.2334 355.371 52.8005C355.631 51.3677 357.003 50.4167 358.436 50.6764C359.869 50.9362 360.82 52.3083 360.56 53.7411Z" fill="white"/>
<path fill-rule="evenodd" clip-rule="evenodd" d="M345.161 69.7072C349.937 70.5729 354.511 67.403 355.376 62.6268C356.242 57.8507 353.072 53.277 348.296 52.4112C343.52 51.5454 338.947 54.7154 338.081 59.4915C337.215 64.2677 340.385 68.8414 345.161 69.7072ZM345.788 66.248C348.654 66.7674 351.398 64.8655 351.917 61.9998C352.437 59.1341 350.535 56.3899 347.669 55.8704C344.804 55.3509 342.059 57.2529 341.54 60.1186C341.021 62.9843 342.922 65.7285 345.788 66.248Z" fill="white"/>
<path fill-rule="evenodd" clip-rule="evenodd" d="M329.559 57.232C330.612 51.4201 331.139 48.5141 332.672 46.4992C334.021 44.7269 335.896 43.4271 338.029 42.7862C340.454 42.0575 343.36 42.5843 349.172 43.6378L350.556 43.8886C356.368 44.9422 359.273 45.469 361.288 47.0025C363.06 48.3514 364.36 50.2267 365.001 52.3598C365.73 54.7847 365.203 57.6907 364.15 63.5026L363.899 64.8863C362.845 70.6983 362.318 73.6043 360.785 75.6191C359.436 77.3914 357.561 78.6912 355.428 79.3322C353.003 80.0609 350.097 79.5341 344.285 78.4805L342.902 78.2297C337.09 77.1761 334.184 76.6494 332.169 75.1159C330.397 73.767 329.097 71.8916 328.456 69.7586C327.727 67.3337 328.254 64.4277 329.308 58.6157L329.559 57.232ZM348.545 47.097L349.929 47.3478C352.892 47.885 354.905 48.2528 356.439 48.6622C357.933 49.0611 358.668 49.4262 359.159 49.8C360.341 50.6992 361.207 51.9495 361.634 53.3715C361.812 53.9625 361.896 54.7787 361.745 56.3178C361.59 57.8978 361.228 59.9125 360.69 62.8756L360.44 64.2593C359.903 67.2223 359.535 69.2361 359.125 70.77C358.726 72.2641 358.361 72.9989 357.988 73.49C357.088 74.6715 355.838 75.538 354.416 75.9654C353.825 76.1429 353.009 76.2269 351.47 76.0759C349.89 75.9209 347.875 75.5585 344.912 75.0213L343.529 74.7705C340.566 74.2334 338.552 73.8656 337.018 73.4561C335.524 73.0573 334.789 72.6921 334.298 72.3184C333.117 71.4191 332.25 70.1689 331.823 68.7469C331.645 68.1559 331.561 67.3396 331.712 65.8006C331.867 64.2206 332.23 62.2058 332.767 59.2428L333.018 57.8591C333.555 54.896 333.923 52.8823 334.332 51.3484C334.731 49.8543 335.096 49.1194 335.47 48.6284C336.369 47.4468 337.619 46.5803 339.041 46.153C339.632 45.9754 340.448 45.8914 341.987 46.0424C343.567 46.1974 345.582 46.5599 348.545 47.097Z" fill="white"/>
</g>
</g>
<defs>
<filter id="filter0_d_27057_53681" x="50.0616" y="64.0205" width="305.877" height="255.877" filterUnits="userSpaceOnUse" color-interpolation-filters="sRGB">
<feFlood flood-opacity="0" result="BackgroundImageFix"/>
<feColorMatrix in="SourceAlpha" type="matrix" values="0 0 0 0 0 0 0 0 0 0 0 0 0 0 0 0 0 0 127 0" result="hardAlpha"/>
<feMorphology radius="0.97947" operator="erode" in="SourceAlpha" result="effect1_dropShadow_27057_53681"/>
<feOffset dy="1.95894"/>
<feGaussianBlur stdDeviation="1.95894"/>
<feColorMatrix type="matrix" values="0 0 0 0 0.0745098 0 0 0 0 0.0745098 0 0 0 0 0.0745098 0 0 0 0.04 0"/>
<feBlend mode="normal" in2="BackgroundImageFix" result="effect1_dropShadow_27057_53681"/>
<feBlend mode="normal" in="SourceGraphic" in2="effect1_dropShadow_27057_53681" result="shape"/>
</filter>
<filter id="filter1_d_27057_53681" x="309.47" y="26.8026" width="74.5101" height="74.5111" filterUnits="userSpaceOnUse" color-interpolation-filters="sRGB">
<feFlood flood-opacity="0" result="BackgroundImageFix"/>
<feColorMatrix in="SourceAlpha" type="matrix" values="0 0 0 0 0 0 0 0 0 0 0 0 0 0 0 0 0 0 127 0" result="hardAlpha"/>
<feMorphology radius="1.43439" operator="erode" in="SourceAlpha" result="effect1_dropShadow_27057_53681"/>
<feOffset dy="3"/>
<feGaussianBlur stdDeviation="3"/>
<feColorMatrix type="matrix" values="0 0 0 0 0.0745098 0 0 0 0 0.0745098 0 0 0 0 0.0745098 0 0 0 0.06 0"/>
<feBlend mode="normal" in2="BackgroundImageFix" result="effect1_dropShadow_27057_53681"/>
<feBlend mode="normal" in="SourceGraphic" in2="effect1_dropShadow_27057_53681" result="shape"/>
</filter>
<linearGradient id="paint0_linear_27057_53681" x1="106" y1="199.396" x2="106" y2="253.396" gradientUnits="userSpaceOnUse">
<stop stop-color="#F9FAFB" stop-opacity="0.75"/>
<stop offset="1" stop-color="#F9FAFB" stop-opacity="0"/>
</linearGradient>
<linearGradient id="paint1_linear_27057_53681" x1="171.334" y1="169.396" x2="171.334" y2="253.396" gradientUnits="userSpaceOnUse">
<stop stop-color="#F9FAFB" stop-opacity="0.75"/>
<stop offset="1" stop-color="#F9FAFB" stop-opacity="0"/>
</linearGradient>
<linearGradient id="paint2_linear_27057_53681" x1="236.666" y1="154.396" x2="236.666" y2="253.396" gradientUnits="userSpaceOnUse">
<stop stop-color="#F9FAFB" stop-opacity="0.75"/>
<stop offset="1" stop-color="#F9FAFB" stop-opacity="0"/>
</linearGradient>
<linearGradient id="paint3_linear_27057_53681" x1="302" y1="131.396" x2="302" y2="253.396" gradientUnits="userSpaceOnUse">
<stop stop-color="#FFD400" stop-opacity="0.15"/>
<stop offset="1" stop-color="#FFD400" stop-opacity="0"/>
</linearGradient>
<radialGradient id="paint4_radial_27057_53681" cx="0" cy="0" r="1" gradientTransform="matrix(31.6625 -31.7753 31.7745 31.6633 337.616 71.9119)" gradientUnits="userSpaceOnUse">
<stop stop-color="#B13589"/>
<stop offset="0.79309" stop-color="#C62F94"/>
<stop offset="1" stop-color="#8A3AC8"/>
</radialGradient>
<radialGradient id="paint5_radial_27057_53681" cx="0" cy="0" r="1" gradientTransform="matrix(22.8579 -32.4781 32.4773 22.8585 333.378 85.4351)" gradientUnits="userSpaceOnUse">
<stop stop-color="#E0E8B7"/>
<stop offset="0.444662" stop-color="#FB8A2E"/>
<stop offset="0.71474" stop-color="#E2425C"/>
<stop offset="1" stop-color="#E2425C" stop-opacity="0"/>
</radialGradient>
<radialGradient id="paint6_radial_27057_53681" cx="0" cy="0" r="1" gradientTransform="matrix(68.3121 2.55816 -0.54715 14.6116 323.996 33.7144)" gradientUnits="userSpaceOnUse">
<stop offset="0.156701" stop-color="#406ADC"/>
<stop offset="0.467799" stop-color="#6A45BE"/>
<stop offset="1" stop-color="#6A45BE" stop-opacity="0"/>
</radialGradient>
<clipPath id="clip0_27057_53681">
<path d="M0.166016 16C0.166016 7.16344 7.32946 0 16.166 0H389.166C398.003 0 405.166 7.16344 405.166 16V244H0.166016V16Z" fill="white"/>
</clipPath>
<clipPath id="clip1_27057_53681">
<rect width="17" height="17" fill="white" transform="translate(67.6934 80.8672)"/>
</clipPath>
</defs>
</svg>
