<svg width="20" height="20" viewBox="0 0 20 20" fill="none" xmlns="http://www.w3.org/2000/svg">
<path d="M16.041 10.8333C11.829 11.1979 9.53062 13.4962 9.16602 17.7083C8.78604 13.4307 6.49969 11.31 2.29102 10.8333C6.56622 10.3402 8.67292 8.23345 9.16602 3.95825C9.64273 8.16693 11.7634 10.4533 16.041 10.8333Z" stroke="white" stroke-width="1.7" stroke-linecap="round" stroke-linejoin="round"/>
<path d="M16.4922 1.04895C16.4783 0.926181 16.3745 0.833378 16.2509 0.833252C16.1273 0.833126 16.0234 0.925716 16.0092 1.04846C15.9171 1.8466 15.6785 2.40783 15.2935 2.7928C14.9086 3.17778 14.3473 3.41641 13.5492 3.50846C13.4264 3.52262 13.3339 3.62661 13.334 3.75017C13.3341 3.87372 13.4269 3.97752 13.5497 3.99143C14.3346 4.08034 14.9078 4.31887 15.3019 4.70586C15.6945 5.09139 15.9381 5.6525 16.0085 6.44503C16.0197 6.57055 16.1249 6.66673 16.2509 6.66658C16.3769 6.66644 16.4819 6.57003 16.4928 6.44449C16.5603 5.66499 16.8037 5.09208 17.1982 4.6975C17.5928 4.30293 18.1657 4.05954 18.9452 3.99207C19.0708 3.9812 19.1672 3.8762 19.1673 3.75019C19.1675 3.62419 19.0713 3.51897 18.9458 3.50782C18.1532 3.43742 17.5921 3.1938 17.2066 2.80117C16.8196 2.40706 16.5811 1.8339 16.4922 1.04895Z" fill="white"/>
</svg>
