<svg width="19" height="19" viewBox="0 0 19 19" fill="none" xmlns="http://www.w3.org/2000/svg">
<path id="vector" d="M4.62435 16.8434H6.41286C6.41286 16.8434 8.45447 17.6327 9.82742 17.6981C12.8547 17.8425 15.2594 16.4323 17.2072 14.2875C17.652 13.7978 17.6445 13.0583 17.2314 12.5414C16.699 11.875 15.6982 11.821 15.0306 12.3516C14.295 12.9361 13.3186 13.5936 12.3883 13.8518C11.1033 14.2085 9.82742 14.2792 9.82742 14.2792C16.6566 13.8518 14.0144 9.16659 4.62435 11.6666M10.7121 3.24111C10.334 2.20107 9.33674 1.45825 8.16602 1.45825C6.67024 1.45825 5.45768 2.67081 5.45768 4.16659C5.45768 5.66236 6.67024 6.87492 8.16602 6.87492C8.43982 6.87492 8.70414 6.83429 8.95326 6.75873M10.7121 3.24111C9.60028 3.57833 8.79102 4.61129 8.79102 5.83325C8.79102 6.1583 8.84828 6.46997 8.95326 6.75873M10.7121 3.24111C10.9612 3.16555 11.2255 3.12492 11.4993 3.12492C12.9951 3.12492 14.2077 4.33748 14.2077 5.83325C14.2077 7.32902 12.9951 8.54159 11.4993 8.54159C10.3286 8.54159 9.33139 7.79876 8.95326 6.75873M2.12435 17.7083H3.79102C4.25125 17.7083 4.62435 17.3352 4.62435 16.8749V11.4583C4.62435 10.998 4.25125 10.6249 3.79102 10.6249H2.12435C1.66411 10.6249 1.29102 10.998 1.29102 11.4583V16.8749C1.29102 17.3352 1.66411 17.7083 2.12435 17.7083Z" stroke="white" stroke-width="1.7" stroke-linecap="round" stroke-linejoin="round"/>
</svg>
